<?xml version="1.0" standalone="no"?>
<!DOCTYPE svg PUBLIC "-//W3C//DTD SVG 1.1//EN" "http://www.w3.org/Graphics/SVG/1.1/DTD/svg11.dtd" >
<!--
2013-9-30: Created.
-->
<svg>
<metadata>
Created by iconfont
</metadata>
<defs>

<font id="iconfont" horiz-adv-x="1024" >
  <font-face
    font-family="iconfont"
    font-weight="500"
    font-stretch="normal"
    units-per-em="1024"
    ascent="896"
    descent="-128"
  />
    <missing-glyph />
    
    <glyph glyph-name="geshi_yasuobaozip" unicode="&#59090;" d="M766.1 838.8c-0.8 0.8-1.6 1.4-2.4 2.2l-50 50c-2.8 2.8-8.2 5-12.1 5H286c-58.1 0-105.4-47.2-105.4-105.1v-465.5h82.5V790.9c0 12.4 10.5 22.9 22.9 22.9h364.4v-152c0-58 47.3-105.1 105.4-105.1h152.4v-579.5c0-12.4-10.5-22.9-22.9-22.9H286c-12.4 0-22.9 10.5-22.9 22.9v57.9h-82.5v-57.9c0-58 47.3-105.1 105.4-105.1h599.2c58.1 0 105.4 47.2 105.4 105.1V607.6c0 3.9-2.2 9.3-5 12l-50.2 50c-0.8 0.8-1.5 1.6-2.3 2.4l-167 166.8z m-33.2-177V766.9c0 3.9 2.2 4.8 5 2.1l125.3-125c2.8-2.8 1.8-5-2.1-5H755.8c-12.4-0.1-22.9 10.4-22.9 22.8zM679.7 297.5H68c-15.1 0-27.5-12.3-27.5-27.4v-180.6c0-15.1 12.4-27.4 27.5-27.4h611.7c15.1 0 27.5 12.3 27.5 27.4V270c0 15.1-12.4 27.5-27.5 27.5z m-345.1-59.3l-77.3-107.4h77.2v-26.4H213.6v18l78.7 106.9h-72.9v26.4h115.1v-17.5z m67.6-7.6h-13v-101.1h13v-25.1h-58v25.1H357V230.6h-12.8v25.1h58v-25.1z m113.4-60c-11.4-9.3-25.6-13.8-42.6-13.4h-16.6v-52.7h-32.2V255.7h52.1c37.6 0 56.4-16 56.4-47.9 0-15.5-5.7-27.9-17.1-37.2zM470.7 230.7h-14.3v-48.8h14c18.9 0 28.4 8.2 28.4 24.7 0 16.1-9.4 24.1-28.1 24.1zM468.4 814.5h71v-47.4h-71zM397.4 767.1h71v-47.3h-71zM468.4 719.8h71v-47.3h-71zM397.4 672.5h71v-47.3h-71zM468.4 625.2h71v-47.3h-71zM397.4 577.9h71v-47.3h-71zM468.4 530.6h71v-47.3h-71zM397.4 483.3h142V436h-142zM397.4 436h15.1v-47.3h-15.1zM523.7 436h15.7v-47.3h-15.7zM539.4 352.9c0-13.1-11-11.5-24.5-11.5H422c-13.6 0-24.5-1.7-24.5 11.3V365v23.6h141.9v-35.7z"  horiz-adv-x="1024" />

    
    <glyph glyph-name="geshi_yasuobaorar" unicode="&#59091;" d="M766.1 838.8c-0.8 0.8-1.6 1.4-2.4 2.2l-50 50c-2.8 2.8-8.2 5-12.1 5H286c-58.1 0-105.4-47.2-105.4-105.1v-465.5h82.5V790.9c0 12.4 10.5 22.9 22.9 22.9h364.4v-152c0-58 47.3-105.1 105.4-105.1h152.4v-579.5c0-12.4-10.5-22.9-22.9-22.9H286c-12.4 0-22.9 10.5-22.9 22.9v57.9h-82.5v-57.9c0-58 47.3-105.1 105.4-105.1h599.2c58.1 0 105.4 47.2 105.4 105.1V607.6c0 3.9-2.2 9.3-5 12l-50.2 50c-0.8 0.8-1.5 1.6-2.3 2.4l-167 166.8z m-33.2-177V766.9c0 3.9 2.2 4.8 5 2.1l125.3-125c2.8-2.8 1.8-5-2.1-5H755.8c-12.4-0.1-22.9 10.4-22.9 22.8zM225.1 231.2h-16.4v-43.6h15.8c7.6 0 13.6 2.2 18.2 6.6 4.6 4.4 6.9 9.9 6.9 16.5 0 13.6-8.1 20.5-24.5 20.5zM515.2 231.2h-16.4v-43.6h15.8c7.6 0 13.6 2.2 18.2 6.6s6.9 9.9 6.9 16.5c0 13.6-8.2 20.5-24.5 20.5zM373.8 229.6h-0.9c-0.4-4.4-1.3-8.7-2.6-12.8L352.9 164h40.3L376 216.4c-1 3.4-1.8 7.8-2.2 13.2zM679.7 297.5H68c-15.1 0-27.5-12.3-27.5-27.4v-180.6c0-15.1 12.4-27.4 27.5-27.4h611.7c15.1 0 27.5 12.3 27.5 27.4V270c0 15.1-12.4 27.5-27.5 27.5zM412.2 104.4l-11.3 34.7h-55l-11.1-34.7h-70.6l-23.7 39.4c-4.9 8.1-8.9 13.4-12 15.7s-6.4 3.5-10 3.5h-9.8v-58.6h-32.2V255.7h53c36 0 54-13.7 54-41 0-10.3-3-19.1-9-26.5-6-7.4-14.3-12.5-24.9-15.5v-0.4c7-2.3 14.7-10 23.1-23l27.6-43.4 54.8 149.8H393l54.3-151.3h-35.1z m142 0l-23.7 39.4c-4.9 8.1-8.9 13.4-12 15.7s-6.4 3.5-10 3.5h-9.8v-58.6h-32.2V255.7h53c36 0 54-13.7 54-41 0-10.3-3-19.1-9-26.5-6-7.4-14.3-12.5-24.9-15.5v-0.4c7-2.3 14.7-10 23.1-23l28.5-44.8h-37zM468.4 814.5h71v-47.4h-71zM397.4 767.1h71v-47.3h-71zM468.4 719.8h71v-47.3h-71zM397.4 672.5h71v-47.3h-71zM468.4 625.2h71v-47.3h-71zM397.4 577.9h71v-47.3h-71zM468.4 530.6h71v-47.3h-71zM397.4 483.3h142V436h-142zM397.4 436h15.1v-47.3h-15.1zM523.7 436h15.7v-47.3h-15.7zM539.4 352.9c0-13.1-11-11.5-24.5-11.5H422c-13.6 0-24.5-1.7-24.5 11.3V365v23.6h141.9v-35.7z"  horiz-adv-x="1024" />

    
    <glyph glyph-name="geshi_yasuobaoz" unicode="&#59092;" d="M766.1 838.8c-0.8 0.8-1.6 1.4-2.4 2.2l-50 50c-2.8 2.8-8.2 5-12.1 5H286c-58.1 0-105.4-47.2-105.4-105.1v-465.5h82.5V790.9c0 12.4 10.5 22.9 22.9 22.9h364.4v-152c0-58 47.3-105.1 105.4-105.1h152.4v-579.5c0-12.4-10.5-22.9-22.9-22.9H286c-12.4 0-22.9 10.5-22.9 22.9v57.9h-82.5v-57.9c0-58 47.3-105.1 105.4-105.1h599.2c58.1 0 105.4 47.2 105.4 105.1V607.6c0 3.9-2.2 9.3-5 12l-50.2 50c-0.8 0.8-1.5 1.6-2.3 2.4l-167 166.8z m-33.2-177V766.9c0 3.9 2.2 4.8 5 2.1l125.3-125c2.8-2.8 1.8-5-2.1-5H755.8c-12.4-0.1-22.9 10.4-22.9 22.8zM679.7 297.5H68c-15.1 0-27.5-12.3-27.5-27.4v-180.6c0-15.1 12.4-27.4 27.5-27.4h611.7c15.1 0 27.5 12.3 27.5 27.4V270c0 15.1-12.4 27.5-27.5 27.5z m-318.1-56.1l-54.2-137h-33.3l54.2 125.3h-71.1v26h104.4v-14.3z m134-3.2l-77.3-107.4h77.2v-26.4H374.6v18l78.7 106.9h-72.9v26.4h115.1v-17.5zM468.4 814.5h71v-47.4h-71zM397.4 767.1h71v-47.3h-71zM468.4 719.8h71v-47.3h-71zM397.4 672.5h71v-47.3h-71zM468.4 625.2h71v-47.3h-71zM397.4 577.9h71v-47.3h-71zM468.4 530.6h71v-47.3h-71zM397.4 483.3h142V436h-142zM397.4 436h15.1v-47.3h-15.1zM523.7 436h15.7v-47.3h-15.7zM539.4 352.9c0-13.1-11-11.5-24.5-11.5H422c-13.6 0-24.5-1.7-24.5 11.3V365v23.6h141.9v-35.7z"  horiz-adv-x="1024" />

    
    <glyph glyph-name="geshi_yasuobaocab" unicode="&#59093;" d="M766.1 838.8c-0.8 0.8-1.6 1.4-2.4 2.2l-50 50c-2.8 2.8-8.2 5-12.1 5H286c-58.1 0-105.4-47.2-105.4-105.1v-465.5h82.5V790.9c0 12.4 10.5 22.9 22.9 22.9h364.4v-152c0-58 47.3-105.1 105.4-105.1h152.4v-579.5c0-12.4-10.5-22.9-22.9-22.9H286c-12.4 0-22.9 10.5-22.9 22.9v57.9h-82.5v-57.9c0-58 47.3-105.1 105.4-105.1h599.2c58.1 0 105.4 47.2 105.4 105.1V607.6c0 3.9-2.2 9.3-5 12l-50.2 50c-0.8 0.8-1.5 1.6-2.3 2.4l-167 166.8z m-33.2-177V766.9c0 3.9 2.2 4.8 5 2.1l125.3-125c2.8-2.8 1.8-5-2.1-5H755.8c-12.4-0.1-22.9 10.4-22.9 22.8zM530.4 199.5c4.2 3.5 6.3 8.4 6.3 14.7 0 11.6-8.5 17.4-25.4 17.4h-13.7v-37.4h15.3c7.5 0.1 13.3 1.8 17.5 5.3zM536 164.7c-4.6 3.5-11 5.3-19.4 5.3h-18.8v-41.5h19.1c8.1 0 14.5 1.9 19.1 5.7 4.6 3.8 6.9 9 6.9 15.7-0.1 6.3-2.3 11.3-6.9 14.8zM372.7 229.6h-0.9c-0.4-4.4-1.3-8.7-2.6-12.8L351.9 164h40.3L375 216.4c-1 3.4-1.8 7.8-2.3 13.2zM679.7 297.5H68c-15.1 0-27.5-12.3-27.5-27.4v-180.6c0-15.1 12.4-27.4 27.5-27.4h611.7c15.1 0 27.5 12.3 27.5 27.4V270c0 15.1-12.4 27.5-27.5 27.5z m-391.3-76.2c-10.2 6-21.8 9-34.8 9-14.8 0-26.6-4.7-35.4-14.2-8.9-9.4-13.3-21.8-13.3-37 0-14.8 4.2-26.8 12.6-35.8 8.4-9 19.8-13.6 34.1-13.6 13.5 0 25.7 3.3 36.8 9.8v-29.6c-11-5.4-25.4-8.1-43.1-8.1-22.8 0-40.9 6.8-54.2 20.5-13.4 13.6-20.1 31.8-20.1 54.5 0 23.9 7.5 43.4 22.4 58.6 14.9 15.2 34.2 22.8 57.9 22.8 14.8 0 27.1-1.9 37.1-5.8v-31.1z m122.8-116.9l-11.3 34.7h-55l-11.1-34.7h-35l55.4 151.3h37.9l54.3-151.3h-35.2z m150.9 12.2c-9.8-8.1-23.1-12.2-40-12.2h-56.5V255.7h53.7c16.5 0 29.2-3.1 38.1-9.4s13.4-14.9 13.4-26c0-8.2-2.8-15.4-8.3-21.6-5.5-6.2-12.5-10.4-20.9-12.8v-0.4c10.5-1.3 19.1-5.2 25.5-11.7 6.5-6.5 9.7-14.7 9.7-24.5-0.1-13.7-5-24.6-14.7-32.7zM468.4 814.5h71v-47.4h-71zM397.4 767.1h71v-47.3h-71zM468.4 719.8h71v-47.3h-71zM397.4 672.5h71v-47.3h-71zM468.4 625.2h71v-47.3h-71zM397.4 577.9h71v-47.3h-71zM468.4 530.6h71v-47.3h-71zM397.4 483.3h142V436h-142zM397.4 436h15.1v-47.3h-15.1zM523.7 436h15.7v-47.3h-15.7zM539.4 352.9c0-13.1-11-11.5-24.5-11.5H422c-13.6 0-24.5-1.7-24.5 11.3V365v23.6h141.9v-35.7z"  horiz-adv-x="1024" />

    
    <glyph glyph-name="geshi_yasuobaoiso" unicode="&#59094;" d="M766.1 838.8c-0.8 0.8-1.6 1.4-2.4 2.2l-50 50c-2.8 2.8-8.2 5-12.1 5H286c-58.1 0-105.4-47.2-105.4-105.1v-465.5h82.5V790.9c0 12.4 10.5 22.9 22.9 22.9h364.4v-152c0-58 47.3-105.1 105.4-105.1h152.4v-579.5c0-12.4-10.5-22.9-22.9-22.9H286c-12.4 0-22.9 10.5-22.9 22.9v57.9h-82.5v-57.9c0-58 47.3-105.1 105.4-105.1h599.2c58.1 0 105.4 47.2 105.4 105.1V607.6c0 3.9-2.2 9.3-5 12l-50.2 50c-0.8 0.8-1.5 1.6-2.3 2.4l-167 166.8z m-33.2-177V766.9c0 3.9 2.2 4.8 5 2.1l125.3-125c2.8-2.8 1.8-5-2.1-5H755.8c-12.4-0.1-22.9 10.4-22.9 22.8zM679.7 297.5H68c-15.1 0-27.5-12.3-27.5-27.4v-180.6c0-15.1 12.4-27.4 27.5-27.4h611.7c15.1 0 27.5 12.3 27.5 27.4V270c0 15.1-12.4 27.5-27.5 27.5z m-418.8-168v-25.1h-58v25.1h12.8V230.6h-12.8v25.1h58v-25.1h-13v-101.1h13z m101.5-16.3c-10.3-7.6-24.9-11.4-43.8-11.4-17.3 0-31.5 2.8-42.6 8.4v32.3c12.2-10.1 26-15.1 41.5-15.1 8.8 0 15.4 1.5 19.8 4.5s6.6 6.9 6.6 11.7c0 4.1-1.8 8-5.3 11.6-3.5 3.6-12.8 8.6-27.8 14.8-23.6 10-35.4 24.6-35.4 43.8 0 14.1 5.4 25 16.1 32.8 10.7 7.8 24.9 11.7 42.5 11.7 14.8 0 27.2-1.9 37.2-5.8v-30.3c-10.2 6.9-22 10.4-35.6 10.4-7.9 0-14.3-1.4-19-4.3-4.8-2.9-7.1-6.8-7.1-11.7 0-3.9 1.6-7.5 4.9-10.8 3.3-3.3 11.3-7.7 24.1-13.3 15-6.4 25.4-13.2 31-20.4 5.6-7.2 8.4-15.7 8.4-25.6-0.1-14.6-5.2-25.7-15.5-33.3z m158.3 10.6c-13.7-14.7-31.7-22-53.9-22-21.7 0-39.3 7.1-52.8 21.3-13.5 14.2-20.3 32.5-20.3 54.9 0 23.7 6.9 43 20.8 57.9 13.8 14.9 32.1 22.3 54.8 22.3 21.6 0 39-7.2 52.2-21.6 13.2-14.4 19.8-32.9 19.8-55.5 0-23.5-6.9-42.6-20.6-57.3zM468.3 230.3c-12.6 0-22.6-4.7-29.8-14.1-7.3-9.4-10.9-21.5-10.9-36.4 0-14.7 3.5-26.7 10.6-36.1 7.1-9.3 16.8-14 29.2-14 12.6 0 22.5 4.5 29.5 13.4 7 9 10.5 21 10.5 36.1 0 15.8-3.4 28.2-10.3 37.4-6.7 9.1-16.3 13.7-28.8 13.7zM468.4 814.5h71v-47.4h-71zM397.4 767.1h71v-47.3h-71zM468.4 719.8h71v-47.3h-71zM397.4 672.5h71v-47.3h-71zM468.4 625.2h71v-47.3h-71zM397.4 577.9h71v-47.3h-71zM468.4 530.6h71v-47.3h-71zM397.4 483.3h142V436h-142zM397.4 436h15.1v-47.3h-15.1zM523.7 436h15.7v-47.3h-15.7zM539.4 352.9c0-13.1-11-11.5-24.5-11.5H422c-13.6 0-24.5-1.7-24.5 11.3V365v23.6h141.9v-35.7z"  horiz-adv-x="1024" />

    
    <glyph glyph-name="geshi_yasuobaotar" unicode="&#59095;" d="M766.1 838.8c-0.8 0.8-1.6 1.4-2.4 2.2l-50 50c-2.8 2.8-8.2 5-12.1 5H286c-58.1 0-105.4-47.2-105.4-105.1v-465.5h82.5V790.9c0 12.4 10.5 22.9 22.9 22.9h364.4v-152c0-58 47.3-105.1 105.4-105.1h152.4v-579.5c0-12.4-10.5-22.9-22.9-22.9H286c-12.4 0-22.9 10.5-22.9 22.9v57.9h-82.5v-57.9c0-58 47.3-105.1 105.4-105.1h599.2c58.1 0 105.4 47.2 105.4 105.1V607.6c0 3.9-2.2 9.3-5 12l-50.2 50c-0.8 0.8-1.5 1.6-2.3 2.4l-167 166.8z m-33.2-177V766.9c0 3.9 2.2 4.8 5 2.1l125.3-125c2.8-2.8 1.8-5-2.1-5H755.8c-12.4-0.1-22.9 10.4-22.9 22.8zM358.9 229.6h-0.9c-0.4-4.4-1.3-8.7-2.6-12.8L338.1 164h40.3l-17.2 52.4c-1.1 3.4-1.8 7.8-2.3 13.2zM500.3 231.2h-16.4v-43.6h15.8c7.6 0 13.6 2.2 18.2 6.6s6.9 9.9 6.9 16.5c0 13.6-8.1 20.5-24.5 20.5zM679.7 297.5H68c-15.1 0-27.5-12.3-27.5-27.4v-180.6c0-15.1 12.4-27.4 27.5-27.4h611.7c15.1 0 27.5 12.3 27.5 27.4V270c0 15.1-12.4 27.5-27.5 27.5zM252.6 104.4h-32.3V229.3h-43.1v26.4h118.6v-26.4h-43.2v-124.9z m144.8 0l-11.3 34.7h-55L320 104.4h-35l55.4 151.3h37.9l54.3-151.3h-35.2z m142 0l-23.7 39.4c-4.9 8.1-8.9 13.4-12 15.7s-6.4 3.5-10 3.5h-9.8v-58.6h-32.2V255.7h53c36 0 54-13.7 54-41 0-10.3-3-19.1-9-26.5-6-7.4-14.3-12.5-24.9-15.5v-0.4c7-2.3 14.7-10 23.1-23l28.5-44.8h-37zM468.4 814.5h71v-47.4h-71zM397.4 767.1h71v-47.3h-71zM468.4 719.8h71v-47.3h-71zM397.4 672.5h71v-47.3h-71zM468.4 625.2h71v-47.3h-71zM397.4 577.9h71v-47.3h-71zM468.4 530.6h71v-47.3h-71zM397.4 483.3h142V436h-142zM397.4 436h15.1v-47.3h-15.1zM523.7 436h15.7v-47.3h-15.7zM539.4 352.9c0-13.1-11-11.5-24.5-11.5H422c-13.6 0-24.5-1.7-24.5 11.3V365v23.6h141.9v-35.7z"  horiz-adv-x="1024" />

    
    <glyph glyph-name="geshi_tongyongyasuobao" unicode="&#59096;" d="M695.841 838.817c-0.781 0.779-1.565 1.442-2.353 2.183L643.359 891.019C640.602 893.771 635.207 896 631.306 896H215.721c-58.106 0-105.38-47.164-105.38-105.142v-465.521h82.471V790.858c0 12.386 10.497 22.854 22.909 22.854h364.366V661.8c0-57.977 47.273-105.144 105.38-105.144h152.377v-579.511c0-12.386-10.495-22.857-22.909-22.857H215.721c-12.413 0-22.909 10.472-22.909 22.857v57.908h-82.471v-57.908c0-57.979 47.274-105.145 105.38-105.145h599.214c58.108 0 105.381 47.166 105.381 105.145V607.639c0 3.89-2.234 9.275-4.994 12.028l-50.154 50.042c-0.771 0.813-1.461 1.62-2.282 2.439L695.841 838.817zM662.558 661.8V766.894c0 3.89 2.235 4.816 4.993 2.064l125.317-125.034c2.759-2.752 1.828-4.981-2.068-4.981H685.467c-12.413-0.001-22.909 10.468-22.909 22.857zM110.013 327.999h82.471v-297.005h-82.471M389.456 815.325h108.512v-72.341H389.456V815.325zM280.943 742.984h108.513v-72.342H280.943v72.342zM389.456 670.642h108.512v-72.341H389.456v72.341zM280.943 598.301h108.513v-72.341H280.943v72.341zM389.456 525.96h108.512v-72.341H389.456V525.96zM280.943 453.619h108.513v-72.343H280.943v72.343zM389.456 381.276h108.512v-72.339H389.456v72.339zM280.943 308.937h217.025v-72.342H280.943v72.342zM280.943 236.595h23.048v-72.342h-23.048v72.342zM473.994 236.595h23.974v-72.342h-23.974v72.342zM497.968 109.512c0-19.956-16.808-17.532-37.528-17.532H318.47c-20.729 0-37.527-2.667-37.527 17.288v18.85 36.136h217.024V109.512z"  horiz-adv-x="1024" />

    
    <glyph glyph-name="dianji" unicode="&#58965;" d="M455.68 491.968l91.264-529.152c0 0 67.456 69.44 123.136 117.888l122.432-163.904c4.928-6.656 15.68-7.104 23.872-1.088l52.288 38.208c8.256 6.016 10.944 16.32 5.952 22.976l-119.104 159.424c62.208 25.088 164.672 53.632 164.672 53.632L455.68 491.968zM308.352 247.616l-135.872-99.328c-20.544-15.04-24.256-43.968-8-65.408 16.256-21.376 46.272-27.008 66.752-12.032l135.872 99.328c20.992 15.36 24.512 45.504 8.256 66.88C359.168 258.496 329.344 262.976 308.352 247.616zM949.696 657.024c-16.256 21.376-45.632 26.176-67.072 10.496l-134.912-98.688c-21.44-15.68-25.152-44.672-8.896-66.048 16.256-21.376 46.272-27.008 67.712-11.328l134.912 98.688C962.88 605.824 965.952 635.648 949.696 657.024zM319.296 759.168c-15.936 20.928-45.248 25.728-66.752 10.048-20.096-14.72-24.256-43.968-8.32-64.896l105.536-138.816c15.936-20.992 45.696-25.408 65.792-10.688 21.44 15.68 25.216 44.608 9.28 65.6L319.296 759.168zM585.792 594.24c26.176-4.224 50.24 13.376 53.632 39.232l21.184 167.808c3.392 25.792-14.976 49.984-41.536 54.656-26.176 4.224-50.24-13.376-53.632-39.168l-21.248-167.872C540.928 623.04 559.296 598.912 585.792 594.24zM329.728 406.976c2.56 25.92-15.808 50.048-41.536 54.656l-170.048 27.968c-27.072 3.584-50.688-13.696-53.632-39.232-3.904-26.944 14.464-51.072 41.536-54.656l170.048-27.968C301.824 363.264 325.504 380.544 329.728 406.976z"  horiz-adv-x="1024" />

    
    <glyph glyph-name="diandan" unicode="&#58892;" d="M642.372858 652.891461c-91.174017 0-182.348034-0.051167-273.522051 0.0307-30.643762 0.025583-35.320402 4.83014-35.652986 35.550652-0.066517 5.966042-0.086983 11.932084 0.005117 17.89301 0.460501 29.134343 4.983641 33.836566 34.737101 33.857033 149.96972 0.112567 299.934323 0.056283 449.904042 0.051167 36.640504 0 73.296357-0.629351 109.916394 0.220017 22.083566 0.511667 31.549413-9.117913 30.091161-30.633528-0.112567-1.693619-0.020467-3.407705 0-5.111557 0.583301-51.857493 0.583301-51.857493-52.179843-51.857493C817.900365 652.891461 730.13917 652.891461 642.372858 652.891461zM647.556049 339.664018c-92.043851 0-184.087703-0.086983-276.131554 0.04605-34.798501 0.051167-38.226673 4.226373-38.236906 43.844781-0.01535 41.040843 2.655554 44.525299 37.198221 44.545765 183.233218 0.102333 366.471553 0.0921 549.704772 0.005117 34.900834-0.01535 37.566622-2.977904 37.755939-38.482506 0.025583-5.111557 0.0614-10.228232-0.010233-15.339789-0.414451-29.83021-4.471973-34.3994-34.148683-34.522201-70.73802-0.29165-141.476041-0.102333-212.208944-0.10745C690.167711 339.658902 668.86188 339.658902 647.556049 339.664018zM645.616829 27.546895c-89.495748-0.005117-178.991496-0.025583-268.49236 0.005117-42.708879 0.01535-43.982931 1.366152-43.936881 45.251866 0.005117 2.558337-0.0307 5.116674 0.005117 7.669895 0.445151 30.024644 5.510658 35.023635 36.456303 35.519952 11.932084 0.189317 23.864168 0.040933 35.796252 0.040933 169.617748 0 339.235497 0.301884 508.848129-0.562834 13.76897-0.071633 37.546155-5.653925 39.326758-12.919602 5.024574-20.517863 2.773237-43.542897-0.787968-64.884545-0.803318-4.819907-18.532594-9.603997-28.510108-9.680748C831.428851 27.255244 738.520282 27.552011 645.616829 27.546895zM111.021596 740.268905c41.869745-0.01535 43.599181-1.816419 43.512197-45.3542-0.081867-40.380792-1.944336-42.053945-46.797102-42.028362-41.194344 0.025583-41.792995 0.695868-41.726478 46.669185C66.066497 739.434887 67.007965 740.284255 111.021596 740.268905zM66.010213 383.227382c-0.020467 43.819198 1.048918 44.914166 43.855014 44.924399 42.483746 0.010233 44.694149-2.20017 44.668565-44.658332-0.025583-41.501344-2.53787-43.911298-45.681667-43.834548C68.062 339.730535 66.03068 341.797672 66.010213 383.227382zM109.343327 27.541778c-42.811213 0-43.363814 0.573068-43.333113 45.067666 0.025583 40.95386 2.481587 43.420097 43.23078 43.425214 42.284195 0.010233 45.2928-2.952321 45.2928-44.540649C154.533793 29.266097 152.763424 27.541778 109.343327 27.541778z"  horiz-adv-x="1024" />

    
    <glyph glyph-name="dian" unicode="&#58924;" d="M512 384m-447.616766 0a438 438 0 1 0 895.233533 0 438 438 0 1 0-895.233533 0Z"  horiz-adv-x="1024" />

    
    <glyph glyph-name="diandeng" unicode="&#58912;" d="M732.23 742.68C672.41 801.41 592.76 833.24 507.66 832 337.13 829.65 198.4 689 198.4 518.39a312.91 312.91 0 0 1 142-262.5A35.29 35.29 0 0 0 356 226.1V169a17.92 17.92 0 0 1 17.87-18h120.21V386a80.64 80.64 0 1 0 35.84 0v-235H648.6a17.92 17.92 0 0 1 17.92 17.62l1 57.74a35.42 35.42 0 0 0 15.72 29.22A312.74 312.74 0 0 1 825.6 520c-0.43 84.89-33.6 164-93.37 222.68zM637.44 115.2H386.56a17.92 17.92 0 0 1 0-35.84h250.88a17.92 17.92 0 0 1 0 35.84zM610.56 43.52H413.44a17.92 17.92 0 0 1 0-35.84h197.12a17.92 17.92 0 1 1 0 35.84zM583.68-28.16H440.32a17.92 17.92 0 1 1 0-35.84h143.36a17.92 17.92 0 1 1 0 35.84z"  horiz-adv-x="1024" />

    
    <glyph glyph-name="dian1" unicode="&#60446;" d="M512 272a112 112 0 1 1 0 224 112 112 0 0 1 0-224z"  horiz-adv-x="1024" />

    
    <glyph glyph-name="dian2" unicode="&#59301;" d="M512 384m-160 0a160 160 0 1 1 320 0 160 160 0 1 1-320 0Z"  horiz-adv-x="1024" />

    
    <glyph glyph-name="dianji1" unicode="&#58903;" d="M512.1 832.4c-176.3 0-320.6-144.3-320.6-320.6V257c0-176.3 144.3-320.6 320.6-320.6S832.7 80.7 832.7 257V511.8c0 176.3-144.3 320.6-320.6 320.6z m192.5-128.1c25.1-25.1 44.9-54.3 58.6-86.8 14.2-33.5 21.5-69.1 21.5-105.7v-122c-9.1-5-24.1-12-46.5-18.9-36.7-11.3-100.8-24.6-202.3-26.4V387c28.6 8.3 49.7 34.7 49.7 65.9V573.1c0 31.1-21 57.5-49.4 65.8V783.3c28.2-2.5 55.5-9.3 81.7-20.4 32.4-13.8 61.5-33.5 86.7-58.6zM523.9 592.4c7.9-2.9 13.6-10.6 13.6-19.3v-120.2c0-11.1-9.4-20.6-20.6-20.6s-20.6 9.4-20.6 20.6V573.1c0 8.7 5.8 16.4 13.6 19.3h14zM261 617.5c13.8 32.4 33.5 61.6 58.6 86.8 25.1 25.1 54.3 44.9 86.8 58.6 26.2 11.1 53.6 17.9 81.7 20.4v-148.1c-23.4-10.9-39.7-34.7-39.7-62.1v-120.2c0-27.3 16.2-51 39.4-62v-46.4c-101 1.9-164.4 16-200.5 27.9-24.1 7.9-39.2 15.9-47.8 21.2V511.8c0 36.6 7.2 72.2 21.5 105.7z m502.2-466.2c-13.8-32.4-33.5-61.6-58.6-86.8-25.1-25.1-54.3-44.9-86.8-58.6-33.5-14.2-69.1-21.5-105.7-21.5-36.6 0-72.2 7.2-105.7 21.5-32.4 13.8-61.6 33.5-86.8 58.6-25.1 25.1-44.9 54.3-58.6 86.8-14.2 33.5-21.5 69.1-21.5 105.7v82.5c7.5-3.4 16.2-6.9 26.1-10.4 62.1-21.7 144.9-32.8 246.2-32.8 101.1 0 184.2 10.4 246.9 30.8 9.8 3.2 18.4 6.4 25.9 9.6V257c0.1-36.6-7.1-72.2-21.4-105.7z"  horiz-adv-x="1024" />

    
    <glyph glyph-name="icon-" unicode="&#58989;" d="M522.24-100.266667a42.666667 42.666667 0 0 0-31.573333 14.933334 2522.88 2522.88 0 0 1-196.693334 196.266666 380.16 380.16 0 1 0 456.533334 0A2318.506667 2318.506667 0 0 1 554.666667-85.333333a42.666667 42.666667 0 0 0-32.426667-14.933334z m0 810.666667A295.253333 295.253333 0 0 1 345.173333 179.2a2024.96 2024.96 0 0 0 177.066667-173.653333 1966.933333 1966.933333 0 0 0 177.066667 173.653333 295.253333 295.253333 0 0 1-177.066667 531.2zM522.24 269.653333a145.92 145.92 0 1 0 145.493333 145.92 145.92 145.92 0 0 0-145.493333-145.92z m0 248.746667a103.253333 103.253333 0 1 1 102.826667-102.826667 103.253333 103.253333 0 0 1-102.826667 102.826667z"  horiz-adv-x="1024" />

    
    <glyph glyph-name="huabanfuben" unicode="&#59026;" d="M415.365554 319.444578m-405.250547 0a405.250547 405.250547 0 1 1 810.501094 0 405.250547 405.250547 0 1 1-810.501094 0ZM868.301136 581.71227V772.380159a63.580047 63.580047 0 0 1-63.580047 63.580047h-397.375291a63.580047 63.580047 0 0 1-63.580046-63.580047v-79.475058H121.307839A63.580047 63.580047 0 0 1 57.800042 629.325055V343.287095a63.580047 63.580047 0 0 1 63.580047-63.580046h63.580046v-103.751076a15.895012 15.895012 0 0 1 27.31052-11.054258L323.102237 279.707049h116.105835v-47.685035a63.580047 63.580047 0 0 1 63.580046-63.580047h243.193678l110.903832-114.733084a15.895012 15.895012 0 0 1 27.31052 11.054258V168.441967H932.025683a63.580047 63.580047 0 0 1 63.580046 63.580047V518.132223a63.580047 63.580047 0 0 1-63.580046 63.580047zM121.307839 692.905101h381.480279a63.580047 63.580047 0 0 0 63.580047-63.580046V343.287095a63.580047 63.580047 0 0 0-63.580047-63.580046H323.102237l-110.903832-114.733084a15.895012 15.895012 0 0 0-27.31052 11.054258V279.707049h-63.580046A63.580047 63.580047 0 0 0 57.800042 343.287095V629.325055a63.580047 63.580047 0 0 0 63.507797 63.580046zM200.855147 144.165949a31.862273 31.862273 0 0 0-31.862273 31.790024V263.812037h-47.685035a79.475058 79.475058 0 0 0-79.475058 79.475058V629.397305a79.475058 79.475058 0 0 0 79.475058 79.475058h381.480279a79.475058 79.475058 0 0 0 79.475058-79.475058v-286.11021a79.475058 79.475058 0 0 0-79.475058-79.475058H329.893742L223.975164 153.919706a31.645523 31.645523 0 0 0-23.120017-9.753757z m-79.475058 532.844141a47.757285 47.757285 0 0 1-47.685035-47.685035V343.287095a47.757285 47.757285 0 0 1 47.685035-47.685035h79.475058v-119.646087l115.600085 119.646087h186.405136a47.757285 47.757285 0 0 1 47.685035 47.685035V629.397305a47.757285 47.757285 0 0 1-47.685035 47.685035zM518.68313 422.762153h-111.265082a79.475058 79.475058 0 0 0-79.475058 79.475059V645.220066h31.790023V502.237212a47.757285 47.757285 0 0 1 47.685035-47.685035h111.265082zM884.196148 581.71227H852.550624V772.380159a47.757285 47.757285 0 0 1-47.685034 47.685035h-397.375292a47.757285 47.757285 0 0 1-47.685034-47.685035v-79.475058h-31.790024v79.475058a79.475058 79.475058 0 0 0 79.475058 79.475059h397.375292a79.475058 79.475058 0 0 0 79.475058-79.475059zM757.108305 305.355817a31.573273 31.573273 0 0 0-23.625768 10.693008L638.690468 422.762153h-72.250053v31.790024h86.700063l104.329077-117.334086 0.50575 117.334086h46.962535a47.757285 47.757285 0 0 1 47.685034 47.685035v31.790023h31.790024v-31.790023a79.475058 79.475058 0 0 0-79.475058-79.475059h-15.317012l-0.36125-85.688562a31.573273 31.573273 0 0 0-20.591265-29.622522 31.934523 31.934523 0 0 0-11.560008-2.095252zM868.228886 32.900868a31.645523 31.645523 0 0 0-22.831017 9.753757l-106.207578 109.89233H502.788118a79.475058 79.475058 0 0 0-79.475058 79.475059v47.685035H455.175333v-47.685035a47.757285 47.757285 0 0 1 47.685035-47.685035h249.985183l115.600085-119.646088V184.336979h63.580047a47.757285 47.757285 0 0 1 47.685035 47.685035V518.132223a47.757285 47.757285 0 0 1-47.685035 47.685035H566.368165v31.790023H932.025683a79.475058 79.475058 0 0 0 79.475058-79.475058v-286.110209a79.475058 79.475058 0 0 0-79.475058-79.475059h-31.790024v-87.856064a31.862273 31.862273 0 0 0-31.862273-31.790023zM423.31306 438.657165h31.790023v-111.265081h-31.790023zM455.175333 486.3422h-31.790023v31.790023a79.475058 79.475058 0 0 0 79.475058 79.475058h15.895012v-31.790023h-15.895012a47.757285 47.757285 0 0 1-47.685035-47.685035z"  horiz-adv-x="1024" />

    
    <glyph glyph-name="chat" unicode="&#58887;" d="M768 512c-35.328 0-64-28.672-64-64s28.672-64 64-64c35.328 0 64 28.672 64 64 0 35.328-28.672 64-64 64v0zM512 64c-37.376 0-73.472 4.352-108.16 11.744l-150.656-90.56 2.016 148.448c-115.488 69.44-191.2 184.256-191.2 314.368 0 212.064 200.576 384 448 384 247.424 0 448-171.936 448-384 0-212.096-200.576-384-448-384v0zM512 896c-282.752 0-512-200.608-512-448 0-141.408 75.040-267.328 192-349.408v-226.592l224.288 136.096c31.040-5.12 62.976-8.096 95.712-8.096 282.752 0 512 200.576 512 448 0 247.392-229.248 448-512 448v0zM256 512c-35.328 0-64-28.672-64-64s28.672-64 64-64c35.328 0 64 28.672 64 64 0 35.328-28.672 64-64 64v0zM512 512c-35.328 0-64-28.672-64-64s28.672-64 64-64c35.328 0 64 28.672 64 64 0 35.328-28.672 64-64 64v0z"  horiz-adv-x="1024" />

    
    <glyph glyph-name="chat01" unicode="&#58958;" d="M497.050 551.303c26.903 0 47.081 20.177 47.081 47.081 0 25.221-20.177 47.081-47.081 47.081-25.221 0-47.079-21.858-47.079-47.081 0-26.903 21.858-47.081 47.079-47.081zM270.055 645.464c-26.903 0-47.081-21.858-47.081-47.081 0-26.903 20.177-47.081 47.081-47.081 25.221 0 47.079 20.177 47.079 47.081-0 25.223-21.858 47.081-47.079 47.081zM991.396 166.253c21.858 38.672 33.628 80.71 33.628 126.108 0 79.028-36.991 151.331-99.205 201.773-45.398 38.672-102.568 65.577-168.145 75.665-16.814 63.896-53.807 121.063-105.931 164.782-68.94 58.851-164.782 94.161-267.35 94.161-104.249 0-200.092-35.31-269.031-94.161-70.621-60.531-114.338-142.922-114.338-235.401 0-52.126 13.451-102.568 38.672-146.287 21.858-38.672 52.126-70.621 87.435-99.205l-23.54-82.391-23.54-79.028 190.003 90.798c16.814-5.044 31.947-8.407 48.763-10.088 21.858-3.363 43.717-5.044 65.577-5.044 6.726 0 13.451 0 18.495 0 16.814-28.584 38.672-55.489 63.896-77.347 38.672-33.628 87.435-57.17 141.242-70.621 1.681 0 3.363-1.681 5.044-1.681 26.903-6.726 55.489-10.088 84.072-10.088 18.495 0 36.991 1.681 55.489 5.044 13.451 1.681 26.903 5.044 40.354 8.407l94.161-45.398 75.665-36.991-23.54 79.028-18.495 65.577c28.58 23.54 52.12 52.124 70.617 82.389zM386.075 204.927h-1.681c-40.354 0-80.71 6.726-117.701 16.814l-127.789-60.533 30.265 107.612c-80.71 53.807-131.152 136.198-131.152 230.357 0 161.419 154.694 292.571 346.378 292.571 159.738 0 294.253-92.479 332.927-216.906-6.726 0-13.451 0-20.177 0-89.117 0-169.826-30.265-230.357-80.71-58.851-50.442-95.842-122.745-95.842-201.773-0.004-30.265 5.040-60.531 15.129-87.433zM877.056 98.994l26.903-90.798-107.612 52.126c-31.947-8.407-63.896-15.133-99.205-15.133-23.54 0-47.081 3.363-70.621 8.407-5.044 0-11.77 1.681-16.814 3.363-70.621 20.177-131.152 60.533-166.463 116.019-1.681 1.681-1.681 3.363-3.363 6.726v1.681c-1.681 0-1.681 1.681-1.681 1.681l-1.681 1.681c0 1.681 0 1.681-1.681 3.363v1.681l-1.681 1.681c0 1.681-1.681 1.681-1.681 3.363v1.681c-1.681 0-1.681 1.681-1.681 3.363h-1.681c0 1.681 0 3.363-1.681 3.363v1.681c-11.77 26.903-18.495 57.17-18.495 87.435 0 136.198 127.789 245.492 289.208 245.492 11.77 0 25.221 0 36.991-1.681 1.681 0 5.044 0 6.726 0h1.681c1.681-1.681 3.363-1.681 5.044-1.681h1.681c1.681 0 3.363 0 5.044 0 1.681-1.681 1.681-1.681 3.363-1.681s1.681 0 3.363 0c1.681 0 1.681 0 3.363-1.681 127.789-25.221 223.631-122.745 223.631-238.766 0.004-79.026-43.715-147.966-110.973-193.366zM609.708 401.656c-20.177 0-35.31-16.814-35.31-36.991 0-20.177 15.133-35.31 35.31-35.31 20.177 0 36.991 15.133 36.991 35.31 0 20.177-16.814 36.991-36.991 36.991zM796.348 401.656c-20.177 0-35.31-16.814-35.31-36.991 0-20.177 15.133-35.31 35.31-35.31s36.991 15.133 36.991 35.31c-0 20.177-16.814 36.991-36.991 36.991z"  horiz-adv-x="1026" />

    
    <glyph glyph-name="chat1" unicode="&#59086;" d="M1001 395.5c0-234.6-219.2-424.8-489.7-424.8-70.2 0-136.9 12.8-197.3 35.9-25.1 9.6-129.6-72.9-152.3-60-25.3 14.5 31.5 124.8 9.7 143C79.1 166.9 21.7 275.4 21.7 395.5c0 234.6 219.2 424.8 489.7 424.8S1001 630.1 1001 395.5zM168-68.3c-4.8 0-9.1 1-12.9 3.2-16.4 9.4-13.6 32.5-12.7 40.1 1.7 14 6.2 31 10.5 47.4 3.5 13.4 7.2 27.3 9 38.6 2.2 13.2 0.9 17.7 0.6 18.7-48.2 40.3-86.1 87.7-112.6 140.8-27.7 55.3-41.7 114.2-41.7 175 0 59.4 13.4 117 39.8 171.3 25.5 52.2 61.9 99.1 108.2 139.3 46.2 40.1 100 71.6 159.8 93.5 61.9 22.7 127.6 34.2 195.3 34.2s133.4-11.5 195.3-34.2c59.9-22 113.6-53.4 159.8-93.5 46.4-40.2 82.8-87.1 108.2-139.3 26.4-54.2 39.8-111.9 39.8-171.3 0-59.4-13.4-117-39.8-171.3-25.5-52.2-61.9-99.1-108.2-139.3-46.2-40.1-100-71.6-159.8-93.5-61.9-22.7-127.6-34.2-195.3-34.2-70.2 0-138 12.3-201.8 36.7-1 0.1-6.3 0.1-22.4-7.3-12.3-5.7-27.2-13.9-41.6-21.9-36-20.1-60.3-33-77.5-33zM511.3 806.8c-64.5 0-127.1-11-185.9-32.6-56.8-20.8-107.7-50.6-151.5-88.6-43.6-37.7-77.8-81.7-101.6-130.6-24.6-50.5-37.1-104.2-37.1-159.4 0-56.6 13.1-111.4 38.9-163C99 182.6 134.7 138 180.2 100c17.2-14.4 8.7-46.9-1.2-84.5-3.6-13.5-7.2-27.6-9.1-39-1.7-10.6-1.3-15.7-0.8-17.8 2.6 0.2 8.7 1.5 21.3 7.3 12.5 5.7 27.6 14.1 42.1 22.2 43.6 24.2 69.1 37.6 86.5 30.9 60.7-23.2 125.5-35 192.4-35 64.5 0 127.1 11 185.9 32.6 56.8 20.8 107.7 50.6 151.5 88.6 43.6 37.8 77.8 81.8 101.7 130.8 24.6 50.5 37.1 104.2 37.1 159.4 0 55.3-12.5 108.9-37.1 159.4-23.9 48.9-58.1 92.9-101.7 130.8-43.7 37.9-94.7 67.7-151.5 88.6-58.9 21.6-121.5 32.5-186 32.5zM717.4 490.9m-46.6 0a46.6 46.6 0 1 1 93.2 0 46.6 46.6 0 1 1-93.2 0ZM345.7 454c-7.5 0-13.5 6-13.5 13.5 0 18.3-13.5 33.2-30 33.2s-30-14.9-30-33.2c0-7.5-6-13.5-13.5-13.5s-13.5 6-13.5 13.5c0 33.2 25.6 60.2 57 60.2s57-27 57-60.2c0-7.4-6.1-13.5-13.5-13.5zM396.2 363.3c0-60.1 51.8-109.2 115.2-109.2 63.3 0 115.2 49.1 115.2 109.2v27.9H396.2v-27.9zM511.3 240.6c-70.9 0-128.7 55.1-128.7 122.7v41.4H640v-41.4c0-67.7-57.7-122.7-128.7-122.7zM409.7 377.7v-14.4c0-52.8 45.6-95.7 101.7-95.7s101.7 42.9 101.7 95.7v14.4H409.7zM443.2 307.4a68.1 27.1 0 1 1 136.2 0 68.1 27.1 0 1 1-136.2 0ZM175.9 334.2m-42.5 0a42.5 42.5 0 1 1 85 0 42.5 42.5 0 1 1-85 0ZM853.4 334.2m-42.5 0a42.5 42.5 0 1 1 85 0 42.5 42.5 0 1 1-85 0Z"  horiz-adv-x="1024" />

    
    <glyph glyph-name="chat2" unicode="&#59209;" d="M1140.864 447.264a16 16 0 0 1-9.696-30.496C1256.224 376.928 1312 317.504 1312 224c0-83.168-75.872-147.712-121.056-178.816A16 16 0 0 1 1184 32v-122.336a254.496 254.496 0 0 0-100.032 68.96 16.16 16.16 0 0 1-14.976 5.088c-9.12-1.76-18.432-4.256-27.872-6.784-16.32-4.384-33.152-8.928-49.12-8.928-82.176 0-139.712 17.664-198.528 60.896a16 16 0 0 1-18.976-25.792C839.36-44.576 902.368-64 992-64c20.192 0 39.136 5.088 57.44 10.016 5.696 1.568 11.36 3.104 16.96 4.416 59.808-63.168 127.456-77.536 130.4-78.112a15.84 15.84 0 0 1 13.312 3.296A15.936 15.936 0 0 1 1216-112v135.648c82.624 58.912 128 129.824 128 200.352 0 108.192-64.544 179.136-203.136 223.264zM1056 464C1056 710.272 831.424 896 533.664 896 234.4 896 0 706.208 0 463.936c0-145.248 102.752-249.312 192-312.288v-212.352a16.064 16.064 0 0 1 22.56-14.592c4.672 2.08 113.888 51.712 207.328 153.888 40.48-7.52 86.272-14.752 127.808-14.752C852.512 63.84 1056 224.672 1056 464zM549.664 95.84c-41.92 0-89.568 8.032-130.656 15.872a16.224 16.224 0 0 1-14.976-5.088C338.432 32.64 261.344-14.368 224-34.624V160a16 16 0 0 1-6.944 13.184C132.64 231.264 32 328.8 32 463.936 32 688.288 252.352 864 533.664 864 813.216 864 1024 692.032 1024 464c0-220.224-190.624-368.16-474.336-368.16zM528 528c-35.296 0-64-28.704-64-64s28.704-64 64-64 64 28.704 64 64-28.704 64-64 64z m0-96a32.032 32.032 0 0 0 0 64 32.032 32.032 0 0 0 0-64zM752 528c-35.296 0-64-28.704-64-64s28.704-64 64-64 64 28.704 64 64-28.704 64-64 64z m0-96a32.032 32.032 0 0 0 0 64 32.032 32.032 0 0 0 0-64zM304 524.96c-35.296 0-64-28.704-64-64s28.704-64 64-64 64 28.704 64 64-28.704 64-64 64z m0-96a32.032 32.032 0 0 0 0 64 32.032 32.032 0 0 0 0-64z"  horiz-adv-x="1344" />

    
    <glyph glyph-name="chat3" unicode="&#59107;" d="M512 817.230769C250.092308 817.230769 41.353846 624.246154 41.353846 385.969231c0-74.830769 21.661538-145.723077 57.107692-208.738462 5.907692-9.846154 7.876923-21.661538 3.938462-33.476923l-61.046154-167.384615c-5.907692-15.753846 9.846154-29.538462 25.6-25.6l169.353846 64.984615c9.846154 3.938462 21.661538 1.969231 33.476923-3.938461 70.892308-39.384615 155.569231-63.015385 246.153847-63.015385C773.907692-49.230769 984.615385 141.784615 984.615385 382.030769 982.646154 624.246154 771.938462 817.230769 512 817.230769zM275.692308 305.230769c-43.323077 0-78.769231 35.446154-78.769231 78.769231s35.446154 78.769231 78.769231 78.769231 78.769231-35.446154 78.76923-78.769231-35.446154-78.769231-78.76923-78.769231z m236.307692 0c-43.323077 0-78.769231 35.446154-78.769231 78.769231s35.446154 78.769231 78.769231 78.769231 78.769231-35.446154 78.769231-78.769231-35.446154-78.769231-78.769231-78.769231z m236.307692 0c-43.323077 0-78.769231 35.446154-78.76923 78.769231s35.446154 78.769231 78.76923 78.769231 78.769231-35.446154 78.769231-78.769231-35.446154-78.769231-78.769231-78.769231z"  horiz-adv-x="1024" />

    
    <glyph glyph-name="Chat" unicode="&#59140;" d="M838.4 202.24A366.528 366.528 0 0 1 896 400C896 602.912 730.944 768 528 768 325.088 768 160 602.912 160 400S325.088 32 528 32a366.08 366.08 0 0 1 143.552 29.024c4.928 2.112 10.24 2.848 15.616 2.368l157.12-15.584-10.784 134.656a31.904 31.904 0 0 0 4.896 19.776zM960 400a430.4 430.4 0 0 0-61.888-222.912l12.992-162.336a31.936 31.936 0 0 0-35.04-34.432l-187.232 18.592A429.92 429.92 0 0 0 528-32C289.792-32 96 161.76 96 400 96 638.208 289.792 832 528 832S960 638.208 960 400z m-257.216 128a32 32 0 1 0 0-64H352a32 32 0 1 0 0 64h350.784z m-77.952-160a32 32 0 1 0 0-64H416a32 32 0 1 0 0 64h208.832z"  horiz-adv-x="1024" />

    
    <glyph glyph-name="chat4" unicode="&#58926;" d="M512 896c282.7776 0 512-229.12 512-511.744a509.6448 509.6448 0 0 0-47.7184-216.0128l44.9536-214.9376c11.5712-55.3984-23.7568-90.7776-79.104-79.0528l-214.7328 45.568a510.2592 510.2592 0 0 0-215.3984-47.36c-282.7776 0-512 229.12-512 511.7952C0 666.88 229.2224 896 512 896z m0-102.4a409.6 409.6 0 1 1 0-819.2c60.416 0 118.784 13.0048 172.2368 37.888l31.0272 14.336 194.6112-41.6256-40.7552 195.328 14.336 30.8736A407.6544 407.6544 0 0 1 921.6 384a409.6 409.6 0 0 1-409.6 409.6z m0-332.8a76.8 76.8 0 1 0 0-153.6 76.8 76.8 0 0 0 0 153.6z m-204.8 0a76.8 76.8 0 1 0 0-153.6 76.8 76.8 0 0 0 0 153.6z m409.6 0a76.8 76.8 0 1 0 0-153.6 76.8 76.8 0 0 0 0 153.6z"  horiz-adv-x="1024" />

    
    <glyph glyph-name="iconfontshanchu" unicode="&#58911;" d="M677.35552 691.2l0 61.44c0 33.91488-29.61408 61.44-66.1504 61.44l-198.49216 0c-36.57728 0-66.19136-27.52512-66.19136-61.44l0-61.44-264.64256 0 0-61.44 99.24608 0 0-614.4c0-33.95584 29.65504-61.44 66.1504-61.44l529.32608 0c36.57728 0 66.19136 27.48416 66.19136 61.44l0 614.4 99.24608 0 0 61.44L677.35552 691.2 677.35552 691.2zM412.71296 752.64l198.49216 0 0-61.44-198.49216 0L412.71296 752.64 412.71296 752.64zM776.6016 15.36 247.27552 15.36l0 614.4 529.32608 0L776.6016 15.36 776.6016 15.36zM346.5216 537.6l66.19136 0 0-430.08-66.19136 0L346.5216 537.6 346.5216 537.6zM478.86336 537.6l66.1504 0 0-430.08-66.1504 0L478.86336 537.6 478.86336 537.6zM611.20512 537.6l66.1504 0 0-430.08-66.1504 0L611.20512 537.6 611.20512 537.6zM611.20512 537.6"  horiz-adv-x="1024" />

    
    <glyph glyph-name="shanchu" unicode="&#59131;" d="M544 832C279.04 832 64 616.96 64 352S279.04-128 544-128 1024 87.04 1024 352 808.96 832 544 832zM544-64C314.24-64 128 122.24 128 352S314.24 768 544 768C773.76 768 960 581.76 960 352S773.76-64 544-64zM588.16 355.2l168.32 166.4c12.8 12.8 12.8 33.28 0 45.44-12.8 12.8-33.28 12.8-46.08 0L542.08 401.92 376.96 567.68c-12.8 12.8-33.28 12.8-45.44 0-12.8-12.8-12.8-33.28 0-45.44l164.48-165.76-174.72-172.8c-12.8-12.8-12.8-33.28 0-45.44 12.8-12.8 33.28-12.8 46.08 0l174.08 172.16 171.52-172.16c12.8-12.8 33.28-12.8 45.44 0 12.8 12.8 12.8 33.28 0 45.44L588.16 355.2z"  horiz-adv-x="1024" />

    
    <glyph glyph-name="shanchu1" unicode="&#58974;" d="M742.4 608c-6.4 6.4-12.8 6.4-19.2 0L518.4 403.2 313.6 608c-6.4 6.4-12.8 6.4-19.2 0-6.4-6.4-6.4-12.8 0-19.2L499.2 384l-204.8-204.8c-6.4-6.4-6.4-12.8 0-19.2 0 0 6.4-6.4 12.8-6.4 6.4 0 6.4 0 12.8 6.4l204.8 204.8 204.8-204.8c0 0 6.4-6.4 12.8-6.4 6.4 0 6.4 0 12.8 6.4 6.4 6.4 6.4 12.8 0 19.2L537.6 384l204.8 204.8C748.8 595.2 748.8 601.6 742.4 608zM512 896C230.4 896 0 665.6 0 384c0-281.6 230.4-512 512-512 281.6 0 512 230.4 512 512C1024 665.6 793.6 896 512 896zM512-96c-262.4 0-480 217.6-480 480 0 262.4 217.6 480 480 480 262.4 0 480-217.6 480-480C992 121.6 774.4-96 512-96z"  horiz-adv-x="1024" />

    
    <glyph glyph-name="shanchu2" unicode="&#58918;" d="M512 896c-283.105882 0-512-228.894118-512-512s228.894118-512 512-512 512 228.894118 512 512S795.105882 896 512 896z m222.870588-644.517647c24.094118-24.094118 24.094118-66.258824 0-90.352941-24.094118-24.094118-66.258824-24.094118-90.352941 0l-132.517647 132.517647-132.517647-138.541177c-24.094118-24.094118-66.258824-24.094118-90.352941 0-12.047059 18.070588-18.070588 30.117647-18.070588 48.188236s6.023529 36.141176 18.070588 48.188235l132.517647 132.517647-132.517647 126.494118c-12.047059 18.070588-18.070588 30.117647-18.070588 48.188235 0 18.070588 6.023529 36.141176 18.070588 48.188235 24.094118 24.094118 66.258824 24.094118 90.352941 0l132.517647-132.517647 132.517647 132.517647c24.094118 24.094118 66.258824 24.094118 90.352941 0 24.094118-24.094118 24.094118-66.258824 0-90.352941l-132.517647-132.517647 132.517647-132.517647z"  horiz-adv-x="1024" />

    
    <glyph glyph-name="icon--" unicode="&#59155;" d="M637.44 483.84c-10.24 10.24-25.6 10.24-35.84 0L512 394.24l-89.6 89.6c-10.24 10.24-25.6 10.24-35.84 0-10.24-10.24-10.24-25.6 0-35.84l89.6-89.6-89.6-89.6c-10.24-10.24-10.24-25.6 0-35.84 10.24-10.24 25.6-10.24 35.84 0l89.6 89.6 89.6-89.6c10.24-10.24 25.6-10.24 35.84 0s10.24 25.6 0 35.84L547.84 358.4l89.6 89.6c10.24 10.24 10.24 28.16 0 35.84zM819.2 768H204.8C148.48 768 102.4 721.92 102.4 665.6v-614.4c0-56.32 46.08-102.4 102.4-102.4h614.4c56.32 0 102.4 46.08 102.4 102.4V665.6c0 56.32-46.08 102.4-102.4 102.4z m51.2-716.8c0-28.16-23.04-51.2-51.2-51.2H204.8c-28.16 0-51.2 23.04-51.2 51.2V665.6c0 28.16 23.04 51.2 51.2 51.2h614.4c28.16 0 51.2-23.04 51.2-51.2v-614.4z"  horiz-adv-x="1024" />

    
    <glyph glyph-name="shanchu3" unicode="&#58954;" d="M880 656H704v64c0 52.8-43.2 96-96 96H416c-52.8 0-96-43.2-96-96v-64H144c-17.6 0-32-14.4-32-32s14.4-32 32-32h48v-512c0-70.4 57.6-128 128-128h384c70.4 0 128 57.6 128 128V592h48c17.6 0 32 14.4 32 32s-14.4 32-32 32z m-496 64c0 17.6 14.4 32 32 32h192c17.6 0 32-14.4 32-32v-64H384v64z m384-640c0-35.2-28.8-64-64-64H320c-35.2 0-64 28.8-64 64V592h512v-512zM416 464c-17.6 0-32-14.4-32-32v-256c0-17.6 14.4-32 32-32s32 14.4 32 32V432c0 17.6-14.4 32-32 32zM608 464c-17.6 0-32-14.4-32-32v-256c0-17.6 14.4-32 32-32s32 14.4 32 32V432c0 17.6-14.4 32-32 32z"  horiz-adv-x="1024" />

    
    <glyph glyph-name="shanchu4" unicode="&#58888;" d="M704 512h-64v-384h64V512z m-320 0h-64v-384h64V512z m288 256V800c0 54.4-41.6 96-96 96h-128c-54.4 0-96-41.6-96-96v-32H0v-64h128v-704c0-70.4 57.6-128 128-128h512c70.4 0 128 57.6 128 128V704h128V768H672z m-256 32c0 19.2 12.8 32 32 32h128c19.2 0 32-12.8 32-32v-32h-192V800z m416-800c0-35.2-28.8-64-64-64H256c-35.2 0-64 28.8-64 64V704h640v-704z m-288 512h-64v-384h64V512z"  horiz-adv-x="1024" />

    
    <glyph glyph-name="teacher" unicode="&#58886;" d="M528.299836 153.870992l0.981918-21.464723-12.683573-20.979375 38.897973-169.908252-54.953732-26.705359-54.953732 26.705359 38.892362 169.908252-12.683573 20.979375 0.976307 21.464723C496.985074 155.2064 504.085742 155.2064 528.299836 153.870992L528.299836 153.870992zM489.847934 744.418805l538.478115 0c16.810433 0 32.111518-6.873425 43.198773-17.960679 11.087255-11.045173 17.963485-26.346258 17.963485-43.198773l0-336.275989c0-16.768351-6.87623-32.06663-17.963485-43.159496l-0.047693-0.039277 0-0.047693c-11.134948-11.047978-26.38834-17.924208-43.153885-17.924208l-238.044932 0-84.223299-66.170038-30.024241-23.594082 5.76526 37.700033 7.005282 46.035112 29.895189-4.480351-1.240022-8.295803 138.06606 108.485085 18.715353-23.72594-45.415101-35.705337 199.486422 0c8.517436 0 16.232504 3.456351 21.821019 9.047671l0.047693 0.047693c5.549238 5.543627 9.008395 13.306389 9.008395 21.821019L1059.186323 683.256548c0 8.472548-3.459156 16.232504-9.056088 21.821019-5.633403 5.588515-13.351277 9.092559-21.821019 9.092559L489.847934 714.170126c-8.51463 0-16.277392-3.459156-21.865907-9.047671-5.588515-5.633403-9.047671-13.348471-9.047671-21.865907l0-21.997764-30.248679 0L428.685677 683.256548c0 16.810433 6.873425 32.06663 17.918597 43.153885l0.089775 0.044888C457.781304 737.542575 473.037501 744.418805 489.847934 744.418805L489.847934 744.418805zM676.039189 437.412384c10.374663 138.110948-9.092559 217.635068-174.660734 195.457753-56.190948-7.496241-117.221348 9.002784-152.037348-16.499025-43.776701-41.293852-46.879562-103.252866-34.995551-175.945644-2.623123-1.419573-5.277107-3.013085-7.891814-4.833841l-7.802038-5.277107-0.137468-9.359079c-0.401184-24.216899 2.623123-44.663233 9.140252-60.317808 5.9392-14.235003 14.678268-24.839715 26.385534-31.224986 13.9264-47.45749 33.935079-83.070247 58.95154-108.706718 27.274871-27.945381 60.096175-43.818784 97.212668-50.077808l3.33291-0.530236 3.327299 0.667704c41.114301 8.691375 73.935605 25.27737 100.107923 52.953425 24.256175 25.639277 42.357129 60.26731 55.663518 106.490389 11.266805 6.564822 19.694466 17.253699 25.414838 31.359649 6.253414 15.567605 9.134641 35.657644 8.736263 59.386389l-0.134663 9.359079-7.804844 5.277107C677.899222 436.259332 676.970608 436.834455 676.039189 437.412384L676.039189 437.412384zM273.629633 170.7712l-7.361578 0.044888-5.639014-4.878729c-39.652647-34.594367-62.890433-85.02286-76.412844-136.475353-13.037063-49.892647-16.94229-100.854181-17.702575-138.422356l-0.401184-19.918904 19.871211 0L802.17074-128.879255l17.475332 0 1.904921 17.475332c4.878729 45.238356-2.83634 102.545885-19.697271 155.058849-16.055759 50.161973-40.749589 96.730126-71.045962 125.343211l-5.942005 5.633403-8.026477-0.263715-94.603573-3.237523 0-38.984942 87.463627 2.976614c22.749633-24.306674 41.86617-62.130148 55.082784-103.390334 13.13806-40.889863 20.179814-84.621677 19.161425-121.519342-476.693041 0-90.072723 0-577.816548 0 1.593512 32.285458 5.807342 71.315288 15.834126 109.467003 11.087255 42.354323 29.314455 83.47143 59.03851 112.067682l79.299682-0.706981 0 38.94286L273.629633 170.7712zM873.662773 489.748603 873.662773 466.729644 999.760658 466.729644 999.760658 489.748603ZM740.570827 489.748603 740.570827 466.729644 853.66251 466.729644 853.66251 489.748603ZM936.199715 567.676405 936.199715 544.657447 999.760658 544.657447 999.760658 567.676405ZM885.156822 567.676405 885.156822 544.657447 910.700712 544.657447 910.700712 567.676405ZM811.086553 567.676405 811.086553 544.657447 862.179945 544.657447 862.179945 567.676405ZM740.570827 567.676405 740.570827 544.657447 791.574444 544.657447 791.574444 567.676405ZM740.570827 639.749173 740.570827 616.730214 999.763463 616.730214 999.763463 639.749173ZM335.100493 403.928986c0.799562-11.752153 2.794258-21.644274 6.034586-29.364953 3.234718-7.846926 7.670181-12.905205 13.303584-14.633381l9.577907-2.973808 2.620318-9.667682c12.332888-45.459989 30.069129-78.545008 52.296942-101.34514 20.712855-21.209425 45.63954-33.61806 73.935605-38.984942 32.1536 7.313885 57.700296 20.443529 77.835222 41.686619 21.332866 22.530805 37.253962 54.687211 49.146389 99.041841l2.48846 9.224416 9.047671 3.195441c5.501545 1.907726 9.847233 7.095058 13.039868 14.944789 3.060778 7.670181 5.007781 17.340668 5.804537 28.787025-5.279912-0.047693-10.643989-0.179551-16.765545-0.931419l-2.437962 8.203222-5.190137-0.311408-2.979419 15.747156c-2.30891 12.285195-5.857841 23.681052-10.461633 34.151101-13.842236-5.855036-29.364953 4.923616-43.375518 12.994981l-7.095058-22.264285-11.446356 1.506542 1.509348 13.57291-12.063562-19.383058-10.733764 2.129359 10.559825 28.739332 0 0c-59.122674-52.465271-128.269326-49.09589-166.811003-19.781436-1.240022-2.971003-2.395879-6.031781-3.45074-9.134641-2.6624-10.646795-5.639014-24.483419-8.295803-35.040438l-0.715397-3.857534-0.266521 0.044888c-0.575123-2.129359-1.108164-3.989392-1.641205-5.633403C353.731682 407.786521 343.884449 405.261589 335.100493 403.928986L335.100493 403.928986z"  horiz-adv-x="1263" />

    
    <glyph glyph-name="jiaolian1" unicode="&#59037;" d="M956.671995-110.527988 947.519995-127.999988l-23.552 0L92.672005-127.999988 65.856005-127.999988l0.512 26.624c1.024 50.239999 6.272 118.335999 23.872 185.087998 18.24 68.735999 49.599999 136.191998 103.103999 182.463998L201.024004 272.640007l9.92-0.064 116.927999 1.152L327.872002 219.520008l-107.007999 0.896c-40.064-38.208-64.703999-93.183999-79.679999-149.823998-13.568-51.007999-19.2-103.167999-21.376-146.367998l784.447991 0.128c1.344 49.343999-13.056 107.647999-30.784 162.303998-17.856 55.167999-43.327999 102.143999-73.983999 134.591998l-122.239999 0L677.247998 273.728007l139.711998 0 10.752-3.52c40.896-38.208 74.175999-100.479999 95.871999-167.551998C946.303995 32.44801 963.263995-50.047989 956.671995-110.527988L956.671995-110.527988zM520-40.639989l-69.887999 52.351999L495.36 193.280008l-17.088 28.032 1.344 28.672c32.64 1.792 42.24 1.792 74.879999 0l1.344-28.672L538.688 193.280008l51.199999-181.503998L520-40.639989 520-40.639989zM722.239998 485.760005c-17.92-61.823999-42.368-108.095999-75.135999-142.399998C611.839999 306.368007 567.551999 284.224007 512.064 272.576007l-4.48-0.896-4.48 0.704C452.992001 280.768007 408.768001 302.016007 371.968002 339.392007 338.176002 373.632006 311.232002 421.248006 292.416003 484.672005 276.672003 493.184005 264.832003 507.392005 256.832003 526.400004 248.064003 547.328004 243.968003 574.656004 244.480003 607.040003l0.192 12.48 10.496 7.04c3.52 2.432 7.104 4.544 10.624 6.464C249.856003 730.304002 254.016003 813.120001 313.088002 868.288 360.064002 902.4 442.560001 879.104 518.144 890.368c215.615997 32.256 214.143997-76.671999 235.647997-261.311997 1.28-0.768 2.496-1.536 3.776-2.432l10.496-7.04 0.192-12.48c0.512-31.744-3.328-58.559999-11.776-79.359999C748.799997 508.800005 737.407997 494.528005 722.239998 485.760005L722.239998 485.760005zM696.383998 582.912004 693.119998 593.920004l-7.04-0.448-4.032 21.056c-3.136 16.448-7.872 101.567999-14.144 115.519999C649.279998 722.240002 628.351999 736.640002 609.407999 747.456002l-9.6-29.76L584.447999 719.680002l2.048 18.112L570.175999 711.936002 555.711999 714.816002l14.272 38.4C493.696 700.544002 362.240002 703.232002 344.896002 726.784002 342.208002 723.456002 341.696002 718.720002 340.224002 714.560002 336.640002 700.352002 332.608002 611.968003 329.088002 597.888003L328.128002 592.704004 327.744002 592.768004C326.976002 589.888004 326.272002 587.392004 325.504002 585.216004 318.976002 589.504004 305.728002 586.112004 293.824003 584.320004 294.976003 568.640004 297.600003 555.392004 302.016002 545.088004c4.352-10.496 10.368-17.28 17.92-19.584l12.928-3.968 3.52-12.928C353.024002 447.808005 376.960002 403.584006 406.976001 373.120006c27.968-28.352 61.567999-44.991999 99.711999-52.095999 43.391999 9.792 77.823999 27.328 105.023999 55.743999 28.8 30.144 50.239999 73.087999 66.303999 132.415998l3.328 12.352 12.224 4.288c7.424 2.56 13.312 9.472 17.6 19.968 4.16 10.24 6.784 23.168 7.872 38.464C711.871998 584.128004 704.639998 583.936004 696.383998 582.912004L696.383998 582.912004z"  horiz-adv-x="1024" />

    
    <glyph glyph-name="xuesheng" unicode="&#58991;" d="M251.345455 411.927273s-16.290909-16.290909-37.236364-16.290909-37.236364 16.290909-37.236364 16.290909c0 60.509091 18.618182 134.981818 25.6 160.581818-6.981818 4.654545-9.309091 9.309091-9.309091 18.618182s6.981818 18.618182 16.290909 20.945454v41.890909l11.636364-6.981818v-34.909091c9.309091-2.327273 16.290909-11.636364 16.290909-20.945454 0-6.981818-4.654545-13.963636-9.309091-18.618182 4.654545-16.290909 13.963636-51.2 18.618182-93.090909 2.327273-20.945455 4.654545-44.218182 4.654546-67.490909zM281.6 425.890909v-25.6c2.327273-23.272727 9.309091-46.545455 25.6-67.490909 9.309091-11.636364 13.963636-11.636364 27.927273-6.981818 4.654545 0 11.636364-20.945455 13.963636-25.6 16.290909-37.236364 44.218182-81.454545 95.418182-100.072727 34.909091-13.963636 74.472727-16.290909 109.381818-6.981819 37.236364 11.636364 67.490909 37.236364 90.763636 69.818182 20.945455 27.927273 27.927273 46.545455 32.581819 53.527273 2.327273 2.327273 2.327273 6.981818 4.654545 6.981818s6.981818-2.327273 9.309091-2.327273c6.981818 0 11.636364 4.654545 16.290909 9.309091 13.963636 18.618182 23.272727 41.890909 25.6 67.490909v25.6c0 13.963636-9.309091 25.6-25.6 25.6h-2.327273l-2.327272 4.654546s0 11.636364 2.327272 16.290909c0 18.618182 2.327273 39.563636 4.654546 58.181818 0 6.981818 2.327273 16.290909 2.327273 23.272727l-48.872728 13.963637c-2.327273 0-23.272727 4.654545-23.272727 4.654545-11.636364 2.327273-79.127273 6.981818-144.290909 9.309091-51.2 0-100.072727-4.654545-111.709091-6.981818-4.654545 0-11.636364-2.327273-13.963636-2.327273 0 0-37.236364-6.981818-51.2-13.963636l-13.963637-4.654546c0-18.618182 2.327273-37.236364 2.327273-55.854545 0-13.963636 2.327273-30.254545 2.327273-44.218182h-2.327273c-16.290909 0-23.272727-13.963636-25.6-25.6z m76.8 39.563636c41.890909 0 79.127273 2.327273 111.709091 9.309091 11.636364 2.327273 25.6 4.654545 39.563636 6.981819 41.890909 9.309091 74.472727 25.6 102.4 46.545454 13.963636-16.290909 32.581818-30.254545 60.509091-41.890909h2.327273v-11.636364c-2.327273-37.236364-6.981818-86.109091-13.963636-111.709091-6.981818-30.254545-58.181818-151.272727-158.254546-148.945454-16.290909 0-32.581818 4.654545-46.545454 9.309091-51.2 16.290909-79.127273 65.163636-100.072728 130.327273-9.309091 27.927273-13.963636 60.509091-13.963636 97.745454 0 6.981818 0 16.290909-2.327273 23.272727 6.981818-9.309091 13.963636-9.309091 18.618182-9.309091zM702.836364 640c0 13.963636 0 6.981818-2.327273 20.945455-2.327273 6.981818-2.327273 11.636364-9.309091 13.963636-6.981818 4.654545-13.963636 9.309091-20.945455 11.636364-18.618182 9.309091-37.236364 16.290909-58.181818 18.618181-44.218182 9.309091-88.436364 11.636364-132.654545 9.309091-18.618182 0-37.236364-2.327273-55.854546-4.654545-30.254545-4.654545-60.509091-11.636364-88.436363-27.927273-9.309091-2.327273-16.290909-6.981818-18.618182-18.618182-6.981818-27.927273-6.981818-53.527273-6.981818-81.454545v-2.327273c16.290909 6.981818 34.909091 11.636364 53.527272 13.963636 11.636364 2.327273 25.6 4.654545 39.563637 4.654546 9.309091 2.327273 46.545455 4.654545 81.454545 4.654545 32.581818 0 65.163636 0 100.072728-2.327272 23.272727-2.327273 48.872727-4.654545 72.145454-9.309091 4.654545 0 11.636364-2.327273 16.290909-4.654546l32.581818-9.309091c0 16.290909 0 48.872727-2.327272 62.836364zM293.236364 667.927273c4.654545 20.945455 18.618182 27.927273 30.254545 34.909091 27.927273 16.290909 58.181818 25.6 97.745455 30.254545 16.290909 2.327273 76.8 4.654545 86.109091 4.654546 39.563636 0 74.472727-2.327273 109.381818-9.309091 23.272727-4.654545 44.218182-11.636364 62.836363-20.945455 6.981818-4.654545 23.272727-13.963636 23.272728-13.963636 11.636364-6.981818 16.290909-18.618182 18.618181-27.927273 2.327273-11.636364 2.327273-23.272727 2.327273-32.581818v-9.309091s81.454545 46.545455 121.018182 69.818182c-6.981818 4.654545-9.309091 6.981818-13.963636 9.309091-102.4 58.181818-204.8 116.363636-309.527273 174.545454-11.636364 6.981818-18.618182 6.981818-30.254546 0-100.072727-58.181818-202.472727-114.036364-302.545454-172.218182-6.981818-4.654545-11.636364-6.981818-20.945455-13.963636 18.618182-9.309091 118.690909-69.818182 118.690909-69.818182 2.327273 18.618182 4.654545 32.581818 6.981819 46.545455zM833.163636 86.109091c-51.2 32.581818-174.545455 76.8-176.872727 76.8 0 0-30.254545-62.836364-41.890909-88.436364-9.309091-16.290909-23.272727-18.618182-32.581818-2.327272-9.309091 13.963636-32.581818 46.545455-34.909091 51.2-6.981818 9.309091-13.963636 11.636364-23.272727 2.327272-2.327273-2.327273-11.636364-11.636364-16.290909-11.636363-4.654545 0-13.963636 9.309091-16.29091 11.636363-9.309091 9.309091-13.963636 9.309091-23.272727-2.327272s-23.272727-34.909091-32.581818-44.218182c-18.618182-23.272727-34.909091-18.618182-44.218182 0-11.636364 30.254545-34.909091 86.109091-34.909091 86.109091-2.327273 0-125.672727-44.218182-176.872727-76.8-116.363636-72.145455-114.036364-197.818182-114.036364-197.818182h891.345455c2.327273-4.654545 16.290909 102.4-123.345455 195.490909zM958.836364-128c-2.327273 0-2.327273 0 0 0H65.163636c-9.309091 0-16.290909 6.981818-16.290909 13.963636 0 2.327273 0 34.909091 13.963637 76.8 13.963636 39.563636 41.890909 93.090909 107.054545 134.981819 51.2 34.909091 179.2 79.127273 181.527273 79.127272 6.981818 2.327273 13.963636-2.327273 16.290909-6.981818 0-2.327273 0-2.327273 6.981818-13.963636 6.981818-18.618182 20.945455-51.2 30.254546-72.145455 2.327273-4.654545 4.654545-6.981818 4.654545-6.981818s4.654545 2.327273 11.636364 9.309091c4.654545 6.981818 13.963636 20.945455 23.272727 30.254545 4.654545 4.654545 6.981818 9.309091 9.309091 13.963637 4.654545 6.981818 11.636364 13.963636 23.272727 13.963636s18.618182-6.981818 23.272727-11.636364l4.654546-4.654545c2.327273 2.327273 4.654545 2.327273 4.654545 4.654545 6.981818 6.981818 16.290909 11.636364 23.272728 11.636364 9.309091 0 16.290909-4.654545 23.272727-13.963636 2.327273-2.327273 9.309091-11.636364 16.290909-23.272728 6.981818-9.309091 13.963636-20.945455 18.618182-27.927272l4.654545-4.654546s2.327273 2.327273 2.327273 4.654546c4.654545 9.309091 41.890909 88.436364 44.218182 88.436363 2.327273 4.654545 9.309091 9.309091 16.290909 6.981819 4.654545 0 130.327273-44.218182 181.527273-79.127273 32.581818-20.945455 60.509091-46.545455 81.454545-72.145455 16.290909-20.945455 30.254545-44.218182 39.563636-67.490909 6.981818-16.290909 9.309091-34.909091 11.636364-51.2 0-2.327273 2.327273-18.618182 0-25.6-2.327273-2.327273-9.309091-6.981818-13.963636-6.981818zM81.454545-97.745455h861.09091c-2.327273 30.254545-18.618182 102.4-118.69091 169.89091-39.563636 25.6-128 60.509091-160.581818 72.145454-9.309091-18.618182-27.927273-55.854545-37.236363-76.8-4.654545-6.981818-11.636364-20.945455-27.927273-23.272727-6.981818 0-20.945455 0-32.581818 16.290909-4.654545 6.981818-11.636364 16.290909-18.618182 27.927273-6.981818 11.636364-13.963636 18.618182-16.290909 23.272727l-6.981818-6.981818c-6.981818-6.981818-11.636364-9.309091-18.618182-9.309091-4.654545 0-11.636364 2.327273-18.618182 9.309091-2.327273 2.327273-6.981818 4.654545-6.981818 6.981818-2.327273-4.654545-6.981818-9.309091-9.309091-13.963636-6.981818-11.636364-16.290909-23.272727-23.272727-32.581819-16.290909-20.945455-30.254545-23.272727-39.563637-20.945454-11.636364 2.327273-23.272727 9.309091-27.927272 25.6-9.309091 20.945455-20.945455 53.527273-30.254546 72.145454-34.909091-11.636364-121.018182-44.218182-160.581818-72.145454-86.109091-51.2-102.4-132.654545-107.054546-167.563637z m642.327273 705.163637c-2.327273 0-4.654545 0-6.981818 2.327273-4.654545 2.327273-6.981818 6.981818-6.981818 13.963636v9.309091c0 9.309091 0 18.618182-2.327273 30.254545-2.327273 9.309091-4.654545 13.963636-11.636364 18.618182-6.981818 4.654545-16.290909 11.636364-20.945454 13.963636-18.618182 9.309091-37.236364 16.290909-58.181818 20.945455-32.581818 6.981818-67.490909 9.309091-104.727273 9.309091-9.309091 0-67.490909-2.327273-83.781818-4.654546-37.236364-4.654545-65.163636-13.963636-90.763637-27.927272-11.636364-6.981818-18.618182-11.636364-23.272727-25.6-2.327273-11.636364-4.654545-25.6-4.654545-41.890909 0-4.654545-2.327273-9.309091-6.981818-13.963637-4.654545-2.327273-11.636364-2.327273-16.29091 0 0 0-102.4 58.181818-118.690909 69.818182-11.636364 0-13.963636 4.654545-13.963636 9.309091s2.327273 11.636364 6.981818 13.963636c2.327273 2.327273 4.654545 2.327273 6.981818 4.654546 4.654545 2.327273 9.309091 6.981818 13.963637 9.309091 20.945455 11.636364 44.218182 23.272727 65.163636 37.236363C325.818182 800.581818 404.945455 847.127273 486.4 891.345455c16.290909 9.309091 30.254545 9.309091 44.218182 0 69.818182-39.563636 141.963636-81.454545 211.781818-121.018182 32.581818-18.618182 62.836364-37.236364 95.418182-55.854546 4.654545-2.327273 9.309091-4.654545 13.963636-9.309091l2.327273-2.327272c4.654545-2.327273 6.981818-6.981818 6.981818-11.636364s-2.327273-9.309091-6.981818-11.636364c-37.236364-20.945455-121.018182-69.818182-121.018182-69.818181-4.654545-2.327273-6.981818-2.327273-9.309091-2.327273z m-216.436363 146.618182c39.563636 0 76.8-4.654545 111.70909-11.636364 25.6-4.654545 46.545455-11.636364 67.49091-23.272727 6.981818-4.654545 23.272727-13.963636 25.6-13.963637 16.290909-11.636364 20.945455-25.6 25.6-37.236363 2.327273-6.981818 2.327273-13.963636 2.327272-20.945455 20.945455 11.636364 51.2 30.254545 76.8 44.218182-30.254545 16.290909-58.181818 32.581818-88.436363 48.872727-69.818182 39.563636-141.963636 79.127273-211.781819 121.018182-6.981818 4.654545-9.309091 4.654545-13.963636 0-83.781818-44.218182-162.909091-88.436364-242.036364-132.654545L197.818182 693.527273c23.272727-13.963636 55.854545-32.581818 76.8-44.218182 0 9.309091 2.327273 16.290909 4.654545 23.272727 6.981818 27.927273 25.6 37.236364 37.236364 44.218182 27.927273 16.290909 60.509091 25.6 102.4 32.581818 18.618182 2.327273 79.127273 4.654545 88.436364 4.654546zM435.2 423.563636m-13.963636 0a13.963636 13.963636 0 1 1 27.927272 0 13.963636 13.963636 0 1 1-27.927272 0ZM579.490909 423.563636m-13.963636 0a13.963636 13.963636 0 1 1 27.927272 0 13.963636 13.963636 0 1 1-27.927272 0ZM551.563636 286.254545s-20.945455-13.963636-44.218181-13.963636-44.218182 13.963636-44.218182 13.963636 20.945455-6.981818 44.218182-6.981818 44.218182 6.981818 44.218181 6.981818zM421.236364 781.963636c-4.654545 6.981818-2.327273 16.290909 4.654545 18.618182l58.181818 32.581818c6.981818 4.654545 16.290909 2.327273 18.618182-4.654545 4.654545-6.981818 2.327273-16.290909-4.654545-18.618182L442.181818 774.981818c-6.981818-2.327273-16.290909 0-20.945454 6.981818zM393.309091 765.672727m-13.963636 0a13.963636 13.963636 0 1 1 27.927272 0 13.963636 13.963636 0 1 1-27.927272 0Z"  horiz-adv-x="1024" />

    
    <glyph glyph-name="xuesheng1" unicode="&#58909;" d="M500 237.3c-3.9 0-7.7 1-11.2 3L76.5 480.4c-6.9 4-11.1 11.5-11 19.5 0.1 8 4.5 15.3 11.5 19.2l436.4 240.1c6.8 3.8 15.1 3.7 21.9-0.3l412.4-240c6.9-4 11.1-11.5 11-19.5-0.1-8-4.5-15.3-11.5-19.2L510.7 240.1c-3.3-1.9-7-2.8-10.7-2.8zM132.8 499l367.6-214 390.9 215.1-367.6 214L132.8 499zM869.038 471.264l44.5 0.424 2.404-252.3-44.5-0.424zM515.3 6.1C350.8 6.1 217 139.9 217 304.4V408.5h44.5v-104.1c0-140 113.9-253.8 253.8-253.8s253.8 113.9 253.8 253.8V425.5h44.5v-121.1c0-164.5-133.8-298.3-298.3-298.3z"  horiz-adv-x="1024" />

    
    <glyph glyph-name="laoshi" unicode="&#58910;" d="M311.6 303.2c-80.4 0-145.7 65.4-145.7 145.7s65.4 145.7 145.7 145.7S457.3 529.3 457.3 449s-65.4-145.8-145.7-145.8z m0 243.6c-53.9 0-97.8-43.9-97.8-97.8s43.9-97.8 97.8-97.8 97.8 43.9 97.8 97.8-43.9 97.8-97.8 97.8zM556.5-6.6h-47.9V137.7c0 56.4-45.9 102.3-102.3 102.3H216.8c-56.4 0-102.3-45.9-102.3-102.3v-144.3H66.6V137.7C66.6 220.6 134 288 216.8 288h189.4c82.8 0 150.2-67.4 150.2-150.2v-144.4zM957.4 97.3H657.8v47.9h251.7V736.5H272.4v-107.9h-47.9V784.4h732.9zM510.715 3.264l184.668 411.903 43.709-19.596-184.668-411.903z"  horiz-adv-x="1024" />

    
    <glyph glyph-name="wodexuesheng" unicode="&#59005;" d="M512.072321 831.950803L64.09528 657.55974 512.072321 483.168678l450.088933 174.391062L512.008325 831.950803z m23.03882 59.644943l450.152929-174.391063a63.99672 63.99672 0 0 0 0-119.353883L535.111141 423.459738a63.99672 63.99672 0 0 0-46.333626 0L40.864471 597.978794a63.99672 63.99672 0 0 0 0 119.289886l447.977041 174.391062a63.99672 63.99672 0 0 0 46.269629 0zM760.763576 232.109544h63.99672v-73.724221c-106.106562-83.771707-212.533108-94.267169-319.343634-94.267169-106.874523 0-213.749045 10.495462-320.623568 94.267169V550.429231l63.996721-30.462439v-329.071135c70.844369-47.741553 143.672637-62.716786 256.626847-62.716786 112.634227 0 185.142511 14.911236 255.346914 62.588792v41.341881z m-255.346914-103.99467c112.634227 0 185.142511 14.975233 255.346914 62.652789v41.341881h63.99672v-73.724221c-106.106562-83.771707-212.533108-94.267169-319.343634-94.267169-106.874523 0-213.749045 10.495462-320.623568 94.267169V549.533276l63.996721-29.438491v-329.199128c70.844369-47.741553 143.672637-62.716786 256.626847-62.716786zM532.999249 604.058482a31.99836 31.99836 0 0 0 22.142865 60.028924L832.055922 562.076634V440.290875a31.99836 31.99836 0 1 0-63.99672 0V517.47092L532.999249 604.122479zM792.441952 172.784585h15.23122l0.57597 4.351777a38.526026 38.526026 0 0 0-8.19158 5.759705 38.526026 38.526026 0 0 0-8.19158-5.759705l0.639967-4.351777z m-15.99918-233.396039h47.293577l-23.678787 176.630948-23.678786-176.630948z m-2.367878 297.392759h51.965336a25.598688 25.598688 0 0 0 25.406698-22.206862l41.533872-310.192103a25.598688 25.598688 0 0 0-25.406698-28.990514h-135.03308a25.598688 25.598688 0 0 0-25.406698 28.990514l41.597869 310.192103a25.598688 25.598688 0 0 0 25.342701 22.206862zM800.057562 201.391119c-58.237015 0-101.754785 56.317114-101.754785 122.361729s43.51777 122.361729 101.754785 122.361729 101.754785-56.317114 101.754785-122.361729-43.51777-122.361729-101.754785-122.361729z m0 63.99672c18.815036 0 37.758065 24.574741 37.758065 58.365009 0 33.726272-18.943029 58.365009-37.758065 58.365008s-37.758065-24.638737-37.758065-58.365008c0-33.790268 18.943029-58.365009 37.758065-58.365009z"  horiz-adv-x="1026" />

    
    <glyph glyph-name="yewutubiao_xueshengchaxun" unicode="&#59130;" d="M517.12 890.24a22.4 22.4 0 0 1-28.8 0L128 697.6a35.2 35.2 0 0 1-12.8-27.52 38.4 38.4 0 0 1 17.28-30.08l142.08-92.16a17.28 17.28 0 0 1 7.68-4.48h10.24l-4.48-9.6a261.12 261.12 0 0 1-21.76-103.04A240 240 0 0 1 512 185.6a227.2 227.2 0 0 1 97.92 21.76h7.68a333.44 333.44 0 0 0 220.8-267.52v-10.88H181.12v10.88A335.36 335.36 0 0 0 320 170.24a32.64 32.64 0 0 1 8.96 43.52 23.68 23.68 0 0 1-19.2 11.52 50.56 50.56 0 0 1-24.96-4.48 384 384 0 0 1-169.6-320V-128H896v28.8a392.96 392.96 0 0 1-208.64 345.6l-11.52 5.76 8.96 8.96a256 256 0 0 1 68.48 173.44 249.6 249.6 0 0 1-22.4 103.68l-3.84 7.68L873.6 640a37.76 37.76 0 0 1 12.8 27.52 35.84 35.84 0 0 1-13.44 27.52zM512 242.56a187.52 187.52 0 0 0-185.6 184.96A188.16 188.16 0 0 0 512 613.12a185.6 185.6 0 0 0 0-370.56z m181.12 353.92l-5.12 5.76A245.12 245.12 0 0 1 512 677.12a239.36 239.36 0 0 1-183.04-82.56L320 586.24l-7.68 8.32a8.32 8.32 0 0 1-4.48 3.84l-100.48 64L512 819.84l291.84-156.8zM858.88 704a30.08 30.08 0 0 1-28.16-27.52v-267.52h-3.2a44.16 44.16 0 0 1-17.28-35.84 48.64 48.64 0 1 1 96.64 0 44.16 44.16 0 0 1-17.28 35.84h-3.2V675.2a30.08 30.08 0 0 1-27.52 28.8z"  horiz-adv-x="1024" />

    
    <glyph glyph-name="zhiwuguanli" unicode="&#59000;" d="M374 498c18.2-18.2 39.3-32.4 62.9-42.4 24.5-10.3 50.4-15.6 77.1-15.6s52.6 5.2 77.1 15.6c23.6 10 44.8 24.2 62.9 42.4 18.2 18.2 32.4 39.3 42.4 62.9 10.3 24.5 15.6 50.4 15.6 77.1s-5.2 52.6-15.6 77.1c-10 23.6-24.2 44.8-42.4 62.9-18.2 18.2-39.3 32.4-62.9 42.4C566.6 830.8 540.7 836 514 836s-52.6-5.2-77.1-15.6c-23.6-10-44.8-24.2-62.9-42.4-18.2-18.2-32.4-39.3-42.4-62.9-10.4-24.5-15.6-50.4-15.6-77.1s5.2-52.6 15.6-77.1c10-23.6 24.2-44.7 42.4-62.9z m140 266c69.6 0 126-56.4 126-126s-56.4-126-126-126-126 56.4-126 126 56.4 126 126 126zM326.3 428.9c-2 6.6-7.9 11.1-14.5 11.1H220c-33.6 0-61-28.8-61-64v-369c0-35.2 27.5-64 61-64h234.6c10.4 0 17.7 10.6 14.5 20.9l-142.8 465zM231 15V368h38.7l108.4-353H231zM800 440H687.4c-6.6 0-12.5-4.5-14.5-11.1l-141.4-465c-3.1-10.3 4.2-20.9 14.5-20.9h254c33.6 0 61 28.8 61 64V376c0 35.2-27.5 64-61 64z m-11-425H622.2l107.4 353H789v-353zM601 341.5l-83.8 73c-3 2.6-7.4 2.6-10.4 0.1l-85.7-73.1c-2.5-2.1-3.4-5.5-2.4-8.5l84.8-264.2c2.4-7.4 12.9-7.4 15.2 0L603.4 333c1 3 0 6.4-2.4 8.5z"  horiz-adv-x="1024" />

    
    <glyph glyph-name="xuejiyidongguanli" unicode="&#59002;" d="M945.8 498.1l-3.9 3.9-401 210.5c-8.3 6.1-18.3 9.5-28.9 9.5-10.5 0-20.6-3.3-28.9-9.5L82.2 502l-3.9-3.9c-9.2-9.2-14.2-21.4-14.2-34.4s5.1-25.2 14.2-34.4l5.5-5.5 8.7-3.4v-170c0-15.9 13-28.9 28.9-28.9s28.9 12.9 28.9 28.9V398.3l79.6-30.7v-274.5c0-26 21.8-47.2 48.6-47.2h474.3c26.8 0 48.6 21.2 48.6 47.2V369.5v0.9l139 53.6 5.5 5.5c9.2 9.2 14.2 21.4 14.2 34.4-0.1 12.8-5.2 25-14.3 34.2zM728.4 118.9H302.7V339.5L485.5 269c7.8-5.1 17-7.8 26.5-7.8 9.6 0 18.7 2.7 26.5 7.8l189.8 73.2v-223.3zM512 336.9L173.3 467.5 512 645.3l338.7-177.8L512 336.9z"  horiz-adv-x="1024" />

    
    <glyph glyph-name="zan" unicode="&#58883;" d="M511.999-83.371c-251.497 0-455.39 203.885-455.39 455.371s203.893 455.371 455.39 455.371 455.39-203.885 455.39-455.371-203.893-455.371-455.39-455.371zM511.999 787.773c-229.629 0-415.79-186.155-415.79-415.773 0-229.62 186.162-415.774 415.79-415.774s415.791 186.155 415.791 415.774c0 229.619-186.162 415.773-415.791 415.773zM827.207 433.021l-69.066-220.629c-8.237-42.768-50.6-77.764-94.164-77.764l-350.205 0c-43.563 0-79.198 35.635-79.198 79.196l0 217.785c0 43.561 35.635 79.196 79.198 79.196l95.769 0 124.617 188.127c5.259 9.532 17.498 13.36 27.263 8.488l56.15-29.312c9.744-4.872 15.662-17.517 13.167-28.132l-20.167-139.171 152.403 0c43.563-0.001 72.469-34.998 64.232-77.785zM560.029 663.839l-107.554-153.18 119.271 0.204 17.807 136.986-29.525 15.99zM783.992 462.718c-4.505 5.491-11.968 8.487-21.018 8.487l-199.775-1.023 8.198 40.408-118.796 0-26.258-39.385-112.571 0c-21.83 0-39.598-17.769-39.598-39.598l0-217.786c0-21.849 17.769-39.597 39.598-39.597l73.29 0 0 296.769 39.599 0 0-296.768 237.315 0c24.768 0 50.582 21.326 55.28 45.649l69.067 220.648c1.721 8.855 0.174 16.743-4.332 22.196zM472.26 538.97l-23.196-33.769 120.074-4.776 6.481 39.227z"  horiz-adv-x="1024" />

    
    <glyph glyph-name="pinglun" unicode="&#58920;" d="M512 830.464C230.4 830.464 1.024 638.976 1.024 403.456c0-99.328 39.936-190.464 108.544-263.168l0 0c0 0-5.12-180.224-43.008-203.776 0 0 138.24 0 226.304 79.872 66.56-26.624 140.288-40.96 219.136-40.96 281.6 0 510.976 191.488 510.976 427.008C1022.976 638.976 793.6 830.464 512 830.464zM512 17.408c-71.68 0-140.288 13.312-203.776 37.888-5.12 2.048-10.24 3.072-15.36 3.072-10.24 0-19.456-4.096-27.648-10.24-38.912-35.84-91.136-53.248-132.096-61.44 4.096 16.384 7.168 34.816 9.216 56.32 5.12 40.96 7.168 78.848 7.168 92.16 2.048 12.288-2.048 24.576-10.24 33.792-63.488 67.584-97.28 149.504-97.28 234.496 0 212.992 210.944 386.048 470.016 386.048s470.016-173.056 470.016-386.048C982.016 190.464 771.072 17.408 512 17.408zM321.536 384m-55.296 0a5.4 5.4 0 1 0 110.592 0 5.4 5.4 0 1 0-110.592 0ZM527.36 384m-55.296 0a5.4 5.4 0 1 0 110.592 0 5.4 5.4 0 1 0-110.592 0ZM733.184 384m-55.296 0a5.4 5.4 0 1 0 110.592 0 5.4 5.4 0 1 0-110.592 0Z"  horiz-adv-x="1024" />

    
    <glyph glyph-name="shoucang" unicode="&#58932;" d="M928.891803 480.240694c-4.862772 14.704022-18.294016 25.021413-35.998232 27.56697L655.722604 541.920791 549.658066 754.570036c-7.909044 15.885669-21.976165 25.384918-37.634515 25.384918s-29.737759-9.499249-37.634515-25.362391L368.313235 541.920791 131.141244 507.807664c-17.726743-2.545557-31.180514-12.862948-36.009496-27.589497-4.841269-14.726549-0.057342-30.908142 12.738025-43.247848L279.510565 271.421048l-40.52105-233.762214c-2.420634-13.95551 0.670692-26.818458 8.693395-36.226574 7.260879-8.545945 18.055434-13.409741 29.6241-13.409741 7.499461 0 15.090054 1.95371 22.578252 5.864202L512.023551 104.245734l212.127027-110.359013c19.022049-9.907808 40.226151-6.500079 52.202352 7.545539 8.043182 9.408117 11.089454 22.271065 8.682131 36.226574l-40.498523 233.762214L916.165041 436.970319C928.982935 449.356103 933.710544 465.514144 928.891803 480.240694zM690.719406 303.419704c-7.13698-6.909662-10.409547-16.81747-8.726162-26.591139l36.77132-212.263213-192.607334 100.221839c-8.861324 4.635453-19.408081 4.635453-28.270429 0l-192.627814-100.221839 36.793847 212.263213c1.692601 9.77367-1.568702 19.681477-8.726162 26.591139l-155.846254 150.32303 215.365803 30.975723c9.885281 1.431492 18.431226 7.568066 22.862912 16.431438l96.314419 193.104978 96.315443-193.104978c4.430662-8.863372 12.976607-14.998922 22.861888-16.431438l215.37809-30.975723L690.719406 303.419704z"  horiz-adv-x="1024" />

    
    <glyph glyph-name="pinglun1" unicode="&#58927;" d="M850.879104 799.58409l-676.303067 0c-60.681034 0-110.049418-49.367361-110.049418-110.049418l0-446.200388c0-60.681034 49.367361-110.049418 110.049418-110.049418l90.307795 0L396.936381-35.129846c3.793396-4.838192 9.598612-7.66354 15.746636-7.66354s11.952216 2.825348 15.746636 7.66354l132.052548 168.414711 290.396903 0c60.681034 0 110.049418 49.367361 110.049418 110.049418L960.928522 689.534671C960.928522 750.215706 911.561162 799.58409 850.879104 799.58409zM920.91111 243.334283c0-38.614459-31.416524-70.030983-70.030983-70.030983L550.744419 173.3033c-6.147 0-11.952216-2.825348-15.745612-7.66354L412.683017 9.643893l-122.31579 155.995867c-3.792373 4.838192-9.597589 7.66354-15.745612 7.66354l-100.045577 0c-38.614459 0-70.030983 31.416524-70.030983 70.030983L104.545054 689.534671c0 38.614459 31.416524 70.030983 70.030983 70.030983l676.303067 0c38.614459 0 70.030983-31.416524 70.030983-70.030983L920.910087 243.334283zM272.621051 551.473269c-44.132126 0-80.035848-35.903721-80.035848-80.035848 0-44.132126 35.903721-80.036871 80.035848-80.036871s80.035848 35.904745 80.035848 80.036871C352.655875 515.569548 316.752154 551.473269 272.621051 551.473269zM272.621051 431.417963c-22.065552 0-40.017412 17.951861-40.017412 40.018436 0 22.065552 17.952884 40.017412 40.017412 40.017412 22.065552 0 40.017412-17.951861 40.017412-40.017412C312.638463 449.370847 294.686602 431.417963 272.621051 431.417963zM512.727571 551.473269c-44.132126 0-80.035848-35.903721-80.035848-80.035848 0-44.132126 35.903721-80.036871 80.035848-80.036871 44.132126 0 80.035848 35.904745 80.035848 80.036871C592.763418 515.569548 556.859697 551.473269 512.727571 551.473269zM512.727571 431.417963c-22.065552 0-40.017412 17.951861-40.017412 40.018436 0 22.065552 17.951861 40.017412 40.017412 40.017412 22.065552 0 40.017412-17.951861 40.017412-40.017412C552.746006 449.370847 534.793122 431.417963 512.727571 431.417963zM752.836137 551.473269c-44.131103 0-80.035848-35.903721-80.035848-80.035848 0-44.132126 35.904745-80.036871 80.035848-80.036871s80.035848 35.904745 80.035848 80.036871C832.871985 515.569548 796.96724 551.473269 752.836137 551.473269zM752.836137 431.417963c-22.066575 0-40.017412 17.951861-40.017412 40.018436 0 22.065552 17.951861 40.017412 40.017412 40.017412s40.017412-17.951861 40.017412-40.017412C792.853549 449.370847 774.902712 431.417963 752.836137 431.417963z"  horiz-adv-x="1024" />

    
    <glyph glyph-name="zan1" unicode="&#58884;" d="M729.074456-65.131137 414.095691-65.131137c-20.687158 0-37.453007 17.068747-37.453007 38.10383 0 21.064758 16.738219 38.10383 37.453007 38.10383l314.978764 0c2.27174 0 5.650697 0.496304 9.219989 2.921539 3.382027 2.316765 5.111414 5.431709 5.815449 7.609305l135.962601 314.645167c8.654101 19.658735 6.788613 42.11519-4.676509 60.063981-11.520381 17.963117-30.962176 28.688389-52.001351 28.688389l-197.778482 0.054235c-16.57756 0-31.045063 10.988262-35.803437 27.103288-4.650927 16.08842 1.460258 33.459043 15.250332 42.694381 32.125675 21.588691 63.331397 140.283 37.642319 219.082694-14.439874 44.582381-37.642319 43.259246-47.674812 42.694381l-10.9504-0.096191c-14.656815 0-28.447912-5.804193-38.886659-16.363689-10.330276-10.588149-16.008602-24.6494-16.008602-39.647999l0-51.971675c0-60.561307-23.229051-117.509321-65.196885-160.28659-37.181831-37.993313-85.288478-60.835553-137.045259-65.49569l0-413.845493c0-19.798928-7.517207-38.325887-21.255093-52.27662-13.764492-14.034645-32.070416-21.782096-51.324946-21.782096L133.70263-65.13216c-18.685571 0-36.235272 7.444553-49.323359 20.871353-13.168927 13.425777-20.335141 31.293727-20.335141 50.207495L64.04413 420.180014c0 20.719904 7.895831 40.336684 22.309098 55.019081 14.520715 14.710027 33.640168 22.760376 54.029544 22.760376l166.493965 0c39.4812 0 76.472696 15.70161 104.434537 44.128033 27.744901 28.454052 43.185568 66.228377 43.185568 106.467847l0 51.971675c0 35.387975 13.43908 68.585051 37.965683 93.453439 24.580838 24.994254 57.056484 38.737256 91.670839 38.737256l8.760524 0c55.543014 3.226484 99.999528-31.196513 120.768551-94.77555 21.469987-66.186422 15.440667-166.007895-15.198144-236.770542l124.956943 0c46.37726-0.081864 89.265046-23.711028 114.520243-63.290465 25.339108-39.647999 29.313629-89.110527 10.600429-132.286885L813.227064-7.645888c-6.166443-15.909341-17.631566-30.631648-32.829709-41.301661C765.092787-59.560258 747.353774-65.131137 729.074456-65.131137zM138.733203 11.048893l113.465215 0L252.198417 421.876656 140.382772 421.876656 138.733203 11.048893z"  horiz-adv-x="1024" />

    
    <glyph glyph-name="pinglun2" unicode="&#58885;" d="M511.999488 48.117137c-28.734592 0-56.729303 2.604314-83.969807 7.099698L231.232673-64.185602 231.232673 134.59265C128.618486 206.644663 62.772174 317.110567 62.772174 441.174164c0 217.07906 201.129864 393.058051 449.228338 393.058051 248.084146 0 449.228338-175.980014 449.228338-393.058051C961.227826 224.082824 760.083635 48.117137 511.999488 48.117137zM511.999488 778.08238c-217.086932 0-393.074156-150.851707-393.074156-336.907193 0-114.166179 66.421434-214.898395 167.761552-275.820929l-1.768346-130.234133 132.171551 79.455633c30.4487-6.497994 62.117231-10.308787 94.910422-10.308787 217.101258 0 393.073132 150.825101 393.073132 336.907193C905.073644 627.230674 729.10177 778.08238 511.999488 778.08238zM736.614169 385.023306c-31.011542 0-56.154182 25.128307-56.154182 56.150858 0 31.010271 25.14264 56.151881 56.154182 56.151881s56.154182-25.14161 56.154182-56.151881C792.768351 410.151613 767.624687 385.023306 736.614169 385.023306zM511.999488 385.023306c-31.010518 0-56.153158 25.128307-56.153158 56.150858 0 31.010271 25.14264 56.151881 56.153158 56.151881 31.011542 0 56.154182-25.14161 56.154182-56.151881C568.15367 410.151613 543.01103 385.023306 511.999488 385.023306zM287.385831 385.023306c-31.010518 0-56.153158 25.128307-56.153158 56.150858 0 31.010271 25.14264 56.151881 56.153158 56.151881s56.153158-25.14161 56.153158-56.151881C343.53899 410.151613 318.39635 385.023306 287.385831 385.023306z"  horiz-adv-x="1024" />

    
    <glyph glyph-name="shoucang1" unicode="&#58935;" d="M722.10963 30.90963 722.10963 30.90963c-7.300741 0-14.506667 1.801481-20.859259 5.30963l-0.18963 0.094815-169.339259 93.866667c-2.844444 1.611852-6.352593 1.611852-9.197037 0l-169.623704-93.297778c-6.352593-3.508148-13.558519-5.30963-20.859259-5.30963-9.007407 0-17.635556 2.74963-24.936296 7.964444-13.368889 9.481481-20.385185 26.074074-17.73037 42.287407l33.185185 201.860741c0.474074 2.939259-0.474074 5.973333-2.56 8.154074L181.096296 434.820741c-11.377778 11.662222-15.17037 28.539259-9.955556 43.994074 5.214815 15.454815 18.394074 26.453333 34.512593 28.918519l190.388148 28.728889c3.128889 0.474074 5.783704 2.465185 7.205926 5.30963l85.997037 181.94963c7.111111 15.075556 22.471111 24.746667 39.063704 24.746667l0.094815 0c16.687407 0 32.047407-9.860741 39.063704-24.936296l85.238519-182.423704c1.327407-2.844444 3.982222-4.835556 7.111111-5.404444l190.008889-29.297778c16.023704-2.465185 29.297778-13.558519 34.417778-29.013333 5.12-15.454815 1.232593-32.237037-10.05037-43.899259L734.814815 291.081481c-2.085926-2.180741-3.034074-5.214815-2.56-8.154074l31.478519-195.602963c0 0 0 0 0 0 1.991111-6.162963 2.465185-12.61037 1.611852-19.247407C762.500741 46.648889 743.727407 30.90963 722.10963 30.90963zM719.36 69.499259c0.853333-0.474074 1.801481-0.663704 2.654815-0.663704l0.474074 0c2.654815 0 4.93037 1.896296 5.214815 4.456296 0.094815 1.042963 0 1.991111-0.284444 2.74963l-0.663704 1.801481-35.081481 217.979259c-0.474074 2.939259 0.474074 5.973333 2.56 8.154074l152.746667 156.065185c1.327407 1.422222 1.801481 3.508148 1.232593 5.404444-0.663704 1.896296-2.275556 3.223704-4.266667 3.508148l-210.10963 32.426667c-3.128889 0.474074-5.783704 2.465185-7.111111 5.404444l-93.771852 200.722963c-0.853333 1.896296-2.74963 3.034074-4.835556 3.034074-2.085926 0-3.887407-1.232593-4.835556-3.034074L428.847407 507.259259c-1.327407-2.844444-4.077037-4.835556-7.205926-5.30963l-210.394074-31.668148c-1.991111-0.284444-3.602963-1.706667-4.266667-3.602963-0.663704-1.896296-0.18963-3.982222 1.232593-5.404444l152.367407-156.728889c2.085926-2.180741 3.034074-5.214815 2.56-8.154074l-36.314074-220.728889c-0.284444-1.991111 0.474074-3.982222 2.180741-5.214815 1.137778-0.853333 2.275556-0.948148 3.034074-0.948148 0.853333 0 1.801481 0.18963 2.56 0.663704L522.619259 173.511111c2.844444 1.611852 6.352593 1.611852 9.197037 0L719.36 69.499259z"  horiz-adv-x="1024" />

    
    <glyph glyph-name="shoucang2" unicode="&#58890;" d="M744.64-65.856a93.44 93.44 0 0 0-44.032 11.072l-188.288 101.376-188.224-101.312a94.4 94.4 0 0 0-96.832 5.184 90.048 90.048 0 0 0-38.016 88.704l36.864 220.224-159.104 158.848A88.448 88.448 0 0 0 45.44 510.336a91.136 91.136 0 0 0 73.344 60.416l216.384 32.128 94.016 195.2a92.672 92.672 0 0 0 166.208 0l94.016-195.2 216.384-32.128c34.112-5.056 62.272-28.16 73.344-60.352 11.136-32.512 2.88-67.84-21.568-92.16l-159.168-158.848 36.928-220.288a90.112 90.112 0 0 0-37.952-88.64 92.992 92.992 0 0 0-52.736-16.32z m-232.384 171.776a28.16 28.16 0 0 0 13.184-3.328l201.408-108.416a38.208 38.208 0 0 1 38.976 2.112 33.792 33.792 0 0 1 14.592 33.536l-39.232 234.496a27.84 27.84 0 0 0 7.744 24.32l169.344 169.024a33.408 33.408 0 0 1 8.256 34.688 35.84 35.84 0 0 1-28.864 23.424l-230.976 34.368a27.648 27.648 0 0 0-20.992 15.424l-100.48 208.384a36.48 36.48 0 0 1-32.96 20.16 36.672 36.672 0 0 1-33.024-20.16L378.88 565.504a27.776 27.776 0 0 0-20.992-15.424l-230.976-34.368a36.224 36.224 0 0 1-28.864-23.488 33.28 33.28 0 0 1 8.192-34.624l169.344-169.088a27.648 27.648 0 0 0 7.744-24.192l-39.232-234.432a33.664 33.664 0 0 1 14.656-33.6c11.2-7.68 26.752-8.576 39.04-1.984l201.28 108.352a28.288 28.288 0 0 0 13.184 3.264z m0 0"  horiz-adv-x="1024" />

    
    <glyph glyph-name="pinglun3" unicode="&#58907;" d="M716.518 503.815c-28.037 0-50.743-24.206-50.743-54.131 0-29.878 22.706-54.076 50.743-54.076 28.035 0 50.69 24.198 50.69 54.076 0.051 29.924-22.655 54.131-50.69 54.131zM513.602 503.815c-28.009 0-50.688-24.206-50.688-54.131 0-29.878 22.711-54.076 50.688-54.076 27.977 0 50.686 24.198 50.686 54.076 0 29.924-22.65 54.131-50.686 54.131zM817.95 802.107H209.256c-70.911 0-145.378-36.701-145.378-149.387v-388.393c0-77.342 37.231-164.357 147.643-146.566h142.984c36.225-39.165 130.679-139.679 130.679-139.679 7.408-7.934 17.737-12.517 28.413-12.517 10.649 0 21.005 4.583 29.198 13.437 0.812 0.837 73.86 86.027 125.656 138.784h147.147c94.443-8.808 144.524 69.206 144.524 146.541V682.604c0.029 74.993-39.733 124.353-142.172 119.503z m82.422-149.388v-388.393c0-46.304-43.817-90.735-84.688-90.735H646.56l-7.922-7.855c-42.552-42.497-102.812-108.363-126.305-135.403-28.71 30.495-104.78 110.635-126.49 134.469l-8.002 8.736H211.526c-52.679 0-87.897 44.485-87.897 90.789V652.719c0 44.182 44.592 93.606 85.628 93.606h608.745c43.464 4.853 89.648-27.509 82.37-93.606zM310.687 503.815c-28.005 0-50.688-24.206-50.688-54.131 0-29.878 22.739-54.076 50.688-54.076 27.984 0 50.718 24.198 50.718 54.076 0 29.924-22.683 54.131-50.718 54.131z"  horiz-adv-x="1024" />

    
    <glyph glyph-name="zan2" unicode="&#58922;" d="M793.314 525.938H599.36l26.608 222.143c0.109 0.898 0.168 1.804 0.18 2.705 0.214 15.183-6.782 30.412-20.225 44.044-20.459 20.749-54.819 36.393-79.925 36.393-25.555 0-48.909-12.931-62.477-34.594L303.013 540.24c-5.603-8.955-15.259-14.302-25.828-14.302h-47.932c-85.256 0-154.616-69.36-154.616-154.616v-280.929c0-85.252 69.36-154.616 154.616-154.616h529.701c81.087 0 141.681 59.306 154.427 151.487l34.359 280.929c0.126 1.04 0.189 2.085 0.189 3.129 0.001 85.256-69.359 154.616-154.615 154.616zM126.176 90.393V371.322c0 56.836 46.241 103.077 103.077 103.077h21.81v-487.084h-21.81c-56.836 0.001-103.077 46.238-103.077 103.078z m736.099 3.531c-7.126-51.539-38.012-106.609-103.321-106.609H302.602v491.24c18.021 5.844 33.685 17.702 44.098 34.339l160.505 256.385c4.081 6.514 11.106 10.406 18.794 10.406 16.559 0 45.855-18.492 48.519-27.787l-29.783-248.663A25.766 25.766 0 0 1 570.32 474.4h222.994c56.341 0 102.268-45.436 103.065-101.593l-34.104-278.883z"  horiz-adv-x="1024" />

    
    <glyph glyph-name="pinglun4" unicode="&#58930;" d="M511.9 68.5L610.7 170l17.4 17.9h209v472H187.3v-472.1h208.4l17.4-17.9 98.8-101.4m0-77.9c-4.1 0-8.3 1.6-11.5 4.9L370.7 128.70000000000005H166.6c-21.2 0-38.4 17.6-38.4 39.3V679.6c0 21.7 17.2 39.3 38.4 39.3h691.2c21.2 0 38.4-17.6 38.4-39.3V168c0-21.7-17.2-39.3-38.4-39.3H653L523.3-4.5c-3.2-3.2-7.3-4.9-11.4-4.9zM334.9 463c27.2 0 49.3-22 49.3-49.2 0-27.2-22-49.2-49.3-49.2-27.2 0-49.2 22-49.2 49.2 0 27.1 22.1 49.2 49.2 49.2zM512.2 463c27.2 0 49.2-22 49.2-49.2 0-27.2-22-49.2-49.2-49.2-27.2 0-49.2 22-49.2 49.2 0 27.1 22 49.2 49.2 49.2zM689.4 463c27.2 0 49.2-22 49.2-49.2 0-27.2-22-49.2-49.2-49.2-27.2 0-49.3 22-49.3 49.2 0.1 27.1 22.1 49.2 49.3 49.2z"  horiz-adv-x="1024" />

    
    <glyph glyph-name="shoucang3" unicode="&#58889;" d="M252.696-62.945c-10.15 0-19.869 3.176-28.11 9.186-14.833 10.728-22.133 28.663-19.052 46.822l45.165 263.944-191.656 186.81C45.826 456.76 41.21 475.63 46.957 493.094c5.666 17.406 20.498 29.89 38.686 32.511l264.944 38.536L469.065 804.243c8.23 16.501 24.708 26.704 43.042 26.704 18.38 0 34.858-10.222 43.006-26.677l118.423-240.13 264.918-38.535c18.044-2.598 33.228-15.431 38.672-32.7 5.622-17.456 0.96-36.253-12.182-49.08L773.24 257.009 818.496-6.9c3.11-17.761-4.363-36.18-19.049-46.858-8.14-5.966-17.87-9.142-28.077-9.142h-0.002a48.533 48.533 0 0 0-22.387 5.498L512.075 67.156 275.09-57.382c-6.825-3.627-14.593-5.563-22.394-5.563z m259.412 854.718c-3.435 0-6.408-1.847-7.951-4.94L376.606 528.34 91.259 486.836c-2.62-0.377-5.834-2.13-7.071-5.93-1.269-3.856 0.325-7.203 2.233-9.072l206.364-201.143-48.633-284.205c-0.44-2.594 0.22-6.213 3.408-8.511l0.102-0.074c1.89-1.38 3.781-1.67 5.035-1.67a8.778 8.778 0 0 1 4.095 1.024l255.29 134.16 255.092-134.12a9.128 9.128 0 0 1 4.198-1.02c1.269 0 3.166 0.28 4.982 1.61 2.739 1.99 4.106 5.32 3.544 8.527l-48.75 284.28 206.447 201.18c1.895 1.85 3.485 5.206 2.239 9.05l-0.063 0.192c-1.145 3.653-4.447 5.366-6.928 5.722l-285.33 41.507-127.517 258.574c-1.458 2.937-4.558 4.856-7.888 4.856z"  horiz-adv-x="1024" />

    
    <glyph glyph-name="shoucang4" unicode="&#59194;" d="M508.777 86.793L270.415-38.522c-15.644-8.224-34.992-2.21-43.216 13.433a32 32 0 0 0-3.215 20.3l45.523 265.422a8 8 0 0 1-2.3 7.08L74.367 455.687c-12.655 12.336-12.914 32.595-0.578 45.25a32 32 0 0 0 18.313 9.332L358.6 548.992a8 8 0 0 1 6.023 4.377l119.181 241.487c7.822 15.849 27.01 22.355 42.858 14.534a32 32 0 0 0 14.534-14.534l119.18-241.487a8 8 0 0 1 6.024-4.377l266.498-38.724c17.49-2.541 29.607-18.78 27.066-36.27a32 32 0 0 0-9.331-18.312l-192.84-187.972a8 8 0 0 1-2.3-7.081l45.523-265.421c2.987-17.419-8.711-33.962-26.13-36.95a32 32 0 0 0-20.3 3.216L516.222 86.793a8 8 0 0 1-7.446 0z m0 71a8 8 0 0 0 7.446 0l197.94-104.064a8 8 0 0 1 11.608 8.434l-37.803 220.41a8 8 0 0 0 2.3 7.08L850.406 445.75a8 8 0 0 1-4.434 13.646l-221.304 32.157a8 8 0 0 0-6.024 4.376l-98.97 200.536a8 8 0 0 1-14.348 0l-98.97-200.536a8 8 0 0 0-6.024-4.376l-221.304-32.157a8 8 0 0 1-4.434-13.646l160.138-156.095a8 8 0 0 0 2.3-7.081l-37.803-220.41a8 8 0 0 1 11.608-8.434l197.94 104.064z"  horiz-adv-x="1024" />

    
    <glyph glyph-name="zan3" unicode="&#58931;" d="M511.1 4.3L134.5 380.9c-59.4 51.2-93.4 125.5-93.4 203.9 0 71.9 28 139.5 78.8 190.3 50.8 50.8 118.4 78.8 190.3 78.8 43 0 85.7-10.4 123.6-30 29.1-15.1 55.5-35.6 77.4-60.2 21.9 24.5 48.3 45.1 77.4 60.2 37.9 19.6 80.7 30 123.6 30 71.9 0 139.5-28 190.3-78.8 50.8-50.8 78.8-118.4 78.8-190.3 0-79.7-35-154.7-96-206L511.1 4.3zM310.3 813.9c-126.4 0-229.2-102.8-229.2-229.2 0-66.9 29.2-130.4 80-174l0.6-0.5 349.4-349.4 347.4 347.4 0.7 0.6c52.3 43.7 82.3 107.8 82.3 175.9 0 126.4-102.8 229.2-229.2 229.2-72.7 0-141.8-35-184.9-93.7l-16.1-22-16.1 22C452.1 778.9 383 813.9 310.3 813.9z"  horiz-adv-x="1024" />

    
    <glyph glyph-name="add" unicode="&#58891;" d="M959.594643 384.589424c0 247.526513-200.659089 448.186625-448.185602 448.186625C263.883551 832.77605 63.223439 632.116961 63.223439 384.589424c0-247.526513 200.660112-448.185602 448.186625-448.185602S959.594643 137.062911 959.594643 384.589424zM490.94394 365.65826 139.968333 365.65826l0 40.932248 350.974583 0L490.942917 757.566114l40.932248 0 0.001023-350.974583L882.850771 406.591531l0-40.932248L531.875165 365.659283l0.001023-350.97356-40.932248 0L490.94394 365.65826z"  horiz-adv-x="1024" />

    
    <glyph glyph-name="add1" unicode="&#58921;" d="M511.17819-127.449171C232.458621-134.059121-1.643784 113.814014 0.008703 387.025292 1.661191 659.134911 239.068571 897.64395 516.135653 895.991462c271.55879-1.652488 510.618658-239.059868 508.966171-516.12695C1023.449336 108.305722 787.694443-135.711609 511.17819-127.449171zM491.34834 798.494696c-195.544362 1.652488-418.630184-188.383583-394.944528-457.188227 15.974046-181.222803 190.03607-398.249504 459.942373-374.013019 181.773632 16.524876 396.046187 190.586899 371.809703 459.391544C911.080182 617.822722 730.408208 816.672059 491.34834 798.494696zM560.201988 533.545856c0-27.541459 0.550829-55.082919 0-82.624378-0.550829-15.423217 5.508292-20.38068 20.38068-19.829851 55.082919 0.550829 110.165838 0 165.248757 0.550829 15.974046 0 22.583997-4.406634 21.482338-20.931509-1.101658-18.728192-1.101658-37.456385 0-55.633748 0.550829-14.872388-5.508292-19.279022-19.279022-18.728192-55.082919 0.550829-110.165838 0-165.248757 0.550829-16.524876 0-23.134826-4.957463-22.583997-22.033168 1.101658-54.53209 0-108.51335 0.550829-163.04544 0.550829-17.626534-6.059121-23.134826-22.583997-22.033168-17.075705 1.101658-34.702239 1.101658-51.777944 0-15.974046-1.101658-21.482338 4.957463-21.482338 21.482338 0.550829 53.430431-0.550829 107.411692 0.550829 160.842123 0.550829 20.38068-6.60995 25.888972-25.888972 25.338143-53.430431-1.101658-107.411692 0-160.842123-0.550829-14.872388 0-21.482338 4.406634-20.38068 19.829851 1.101658 18.728192 1.101658 37.456385 0 55.633748-1.101658 15.974046 5.508292 19.829851 20.38068 19.829851 54.53209-0.550829 108.51335 0.550829 163.04544-0.550829 17.626534-0.550829 24.236484 4.406634 23.685655 23.134826-1.101658 54.53209 0 108.51335-0.550829 163.04544 0 16.524876 5.508292 22.033168 21.482338 21.482338 17.626534-1.101658 35.803897-1.101658 53.430431 0 14.872388 0.550829 20.931509-4.406634 20.38068-19.829851C559.651159 589.730433 560.201988 561.638144 560.201988 533.545856z"  horiz-adv-x="1026" />

    
    <glyph glyph-name="add2" unicode="&#58972;" d="M874.035 746.044c-96.7 96.7-225.28 149.956-362.035 149.956-136.764 0-265.335-53.248-362.044-149.956-96.7-96.708-149.956-225.28-149.956-362.044s53.248-265.335 149.956-362.044c96.708-96.7 225.28-149.956 362.044-149.956s265.335 53.248 362.044 149.956c96.7 96.708 149.956 225.28 149.956 362.044s-53.257 265.335-149.965 362.044zM554.667 426.667v153.651c0 0.003 0 0.006 0 0.009 0 23.531-19.076 42.607-42.607 42.607-0.021 0-0.042-0-0.063-0 0.003 0 0.003 0 0.003 0-23.546 0-42.637-19.073-42.667-42.613l-0-153.654h-153.651c-0.003 0-0.006 0-0.009 0-23.531 0-42.607-19.076-42.607-42.607 0-0.021 0-0.042 0-0.063-0 0.003-0 0.003-0 0.003 0-23.546 19.073-42.637 42.613-42.667l153.654-0v-153.651c-0-0.003-0-0.006-0-0.009 0-23.531 19.076-42.607 42.607-42.607 0.021 0 0.042 0 0.063 0-0.003-0-0.003-0-0.003-0 23.546 0 42.637 19.073 42.667 42.613l0 153.654h153.651c0.003-0 0.006-0 0.009-0 23.531 0 42.607 19.076 42.607 42.607 0 0.021-0 0.042-0 0.063 0-0.003 0-0.003 0-0.003 0 23.546-19.073 42.637-42.613 42.667l-153.654 0zM813.696 82.304c-80.58-80.597-187.733-124.971-301.696-124.971s-221.116 44.382-301.696 124.971c-80.597 80.589-124.971 187.733-124.971 301.696 0 113.963 44.382 221.116 124.971 301.696 80.589 80.597 187.733 124.971 301.696 124.971 113.963 0 221.116-44.382 301.696-124.971 80.597-80.58 124.971-187.733 124.971-301.696 0-113.971-44.382-221.116-124.971-301.696z"  horiz-adv-x="1024" />

    
    <glyph glyph-name="add3" unicode="&#59003;" d="M512 896C229.831111 896 0 666.168889 0 384S229.831111-128 512-128 1024 101.831111 1024 384 794.168889 896 512 896z m0-955.733333C266.24-59.733333 68.266667 138.24 68.266667 384S266.24 827.733333 512 827.733333 955.733333 629.76 955.733333 384 757.76-59.733333 512-59.733333zM750.933333 418.133333h-204.8v204.8c0 18.204444-15.928889 34.133333-34.133333 34.133334S477.866667 641.137778 477.866667 622.933333v-204.8h-204.8c-18.204444 0-34.133333-15.928889-34.133334-34.133333S254.862222 349.866667 273.066667 349.866667h204.8v-204.8c0-18.204444 15.928889-34.133333 34.133333-34.133334S546.133333 126.862222 546.133333 145.066667v204.8h204.8c18.204444 0 34.133333 15.928889 34.133334 34.133333S769.137778 418.133333 750.933333 418.133333z"  horiz-adv-x="1024" />

    
    <glyph glyph-name="Addwithcircle" unicode="&#59009;" d="M768 384c0-11.264-9.216-20.48-20.48-20.48H532.48v-215.04c0-11.264-9.216-20.48-20.48-20.48s-20.48 9.216-20.48 20.48V363.52H276.48c-11.264 0-20.48 9.216-20.48 20.48s9.216 20.48 20.48 20.48h215.04V619.52c0 11.264 9.216 20.48 20.48 20.48s20.48-9.216 20.48-20.48v-215.04h215.04c11.264 0 20.48-9.216 20.48-20.48z m204.8 0c0-253.952-206.848-460.8-460.8-460.8S51.2 130.048 51.2 384 258.048 844.8 512 844.8s460.8-206.848 460.8-460.8z m-40.96 0C931.84 615.424 743.424 803.84 512 803.84S92.16 615.424 92.16 384s188.416-419.84 419.84-419.84 419.84 188.416 419.84 419.84z"  horiz-adv-x="1024" />

    
    <glyph glyph-name="Add" unicode="&#58976;" d="M512-128a512 512 0 1 0 512 512 512.576 512.576 0 0 0-512-512z m0 960a448 448 0 1 1 448-448A448.512 448.512 0 0 1 512 832z m192-480h-160v-160a32 32 0 0 0-64 0v160h-160a32 32 0 0 0 0 64h160v160a32 32 0 0 0 64 0v-160h160a32 32 0 0 0 0-64z"  horiz-adv-x="1024" />

    
    <glyph glyph-name="bianji" unicode="&#59010;" d="M256.326435 724.160283c-44.577265 0-81.025385-38.752606-81.025385-86.689385l0-522.41521c0-47.692209 36.44812-86.446861 81.025385-86.446861l488.499773 0c44.576241 0 80.796164 38.753629 80.796164 86.446861L825.622372 458.367755l83.825151 86.689385 0-461.790458c0-79.741136-63.157435-144.327106-137.686872-144.327106L226.612693-61.060425c-74.524321 0-134.89427 64.585971-134.89427 144.327106L91.718423 660.323373c0 79.734996 60.369949 153.266709 134.89427 153.266709l431.612135 0-80.797188-89.433892L256.326435 724.15619 256.326435 724.160283zM555.139008 299.628404 374.04758 244.734166l51.773154 192.515618L555.139008 299.628404 555.139008 299.628404zM573.256644 319.00266 443.698916 456.376401l284.643875 302.55685 129.557728-137.364531L573.256644 319.00266 573.256644 319.00266zM916.409075 683.66908l-38.776142-41.240263L748.080322 780.050198l38.772049 41.240263c14.399965 15.151072 36.914748 15.903202 50.154283 1.734504l81.023338-85.947488C931.268504 722.923106 930.564469 698.820152 916.409075 683.66908L916.409075 683.66908zM916.409075 683.66908"  horiz-adv-x="1024" />

    
    <glyph glyph-name="bianji1" unicode="&#58999;" d="M881.144408 437.254901l0-341.449649c0-58.042951-47.053666-105.093547-105.053638-105.093547L250.759137-9.288295c-58.024531 0-105.061824 47.050596-105.061824 105.093547L145.697313 673.627377c0 58.042951 47.037293 105.083314 105.061824 105.083314l315.201845 0L565.960982 831.240067 250.759137 831.240067c-87.058798 0-157.599388-70.553892-157.599388-157.612691l0-577.821101c0-87.058798 70.540589-157.597341 157.599388-157.597341l525.331633 0c87.035262 0 157.594271 70.53752 157.594271 157.597341L933.685042 437.254901 881.144408 437.254901zM415.629115 286.920988c10.280134-10.272971 26.938536-10.272971 37.195134 0L899.320373 733.414041c10.283204 10.261715 10.283204 26.930349 0 37.21867-10.275018 10.259668-26.930349 10.259668-37.20639 0L415.629115 324.126354C405.337725 313.86771 405.337725 297.211355 415.629115 286.920988z"  horiz-adv-x="1024" />

    
    <glyph glyph-name="bianji2" unicode="&#58908;" d="M742.941466-115.911461l-542.473192 0c-55.909493 0-101.745204 45.835711-101.745204 101.745204L98.723069 662.791933c0 55.909493 45.835711 101.745204 101.745204 101.745204l406.477127 0c16.621741 0 30.221348-13.599606 30.221348-30.221348s-13.599606-30.221348-30.221348-30.221348l-406.477127 0c-22.666011 0-41.302509-18.636498-41.302509-41.302509l0-676.95819c0-22.666011 18.636498-41.302509 41.302509-41.302509l542.473192 0c22.666011 0 41.302509 18.636498 41.302509 41.302509L784.243974 515.714707c0 16.621741 13.599606 30.221348 30.221348 30.221348s30.221348-13.599606 30.221348-30.221348l0-529.880964C844.68667-70.07575 799.354648-115.911461 742.941466-115.911461zM644.722086 508.66306c-7.555337 0-15.110674 2.518446-20.651254 8.562715-12.088539 11.58485-12.592228 30.725037-1.007378 42.813576l249.829808 262.422036c11.58485 12.088539 30.725037 12.592228 42.813576 1.007378 12.088539-11.58485 12.592228-30.725037 1.007378-42.813576l-249.829808-262.422036C660.840138 511.685194 652.781112 508.66306 644.722086 508.66306zM496.133792 443.687162l-271.99213 0c-16.621741 0-30.221348 13.599606-30.221348 30.221348s13.599606 30.221348 30.221348 30.221348l271.99213 0c16.621741 0 30.221348-13.599606 30.221348-30.221348S513.259223 443.687162 496.133792 443.687162zM720.275455 176.731923l-495.630103 0c-16.621741 0-30.221348 13.599606-30.221348 30.221348s13.599606 30.221348 30.221348 30.221348L720.275455 237.174619c16.621741 0 30.221348-13.599606 30.221348-30.221348S736.897196 176.731923 720.275455 176.731923z"  horiz-adv-x="1024" />

    
    <glyph glyph-name="bianji3" unicode="&#58882;" d="M767.515-60.397h-574.95c-52.833 0-95.826 42.991-95.826 95.823V674.23c0 52.826 42.993 95.817 95.826 95.817h447.181c17.662 0 31.944-14.309 31.944-31.937 0-17.632-14.282-31.94-31.944-31.94H192.565c-17.6 0-31.943-14.339-31.943-31.939v-638.805c0-17.634 14.343-31.942 31.943-31.942h574.951c17.627 0 31.939 14.307 31.939 31.942v511.04c0 17.633 14.281 31.942 31.943 31.942 17.664 0 31.939-14.308 31.939-31.942v-511.041c-0.001-52.832-42.995-95.822-95.822-95.822z m-187.66 511.041a31.854 31.854 0 0 0-22.581 9.363c-12.492 12.486-12.492 32.672 0 45.16L874.707 822.59c12.491 12.492 32.679 12.492 45.166 0 12.492-12.485 12.492-32.672 0-45.165L602.441 460.007c-6.229-6.264-14.407-9.363-22.586-9.363z m-131.756 0H256.448c-17.633 0-31.944 14.31-31.944 31.942 0 17.632 14.311 31.942 31.944 31.942H448.1c17.629 0 31.938-14.31 31.938-31.942-0.001-17.632-14.31-31.942-31.939-31.942z m191.647-191.64H256.448c-17.633 0-31.944 14.276-31.944 31.939 0 17.667 14.311 31.942 31.944 31.942h383.298c17.662 0 31.944-14.275 31.944-31.942 0-17.662-14.282-31.939-31.944-31.939z m0 0"  horiz-adv-x="1024" />

    
    <glyph glyph-name="bianji4" unicode="&#58997;" d="M988.891429 802.377143L898.194286 878.445714c-32.182857 23.405714-78.994286 20.48-105.325715-11.702857L342.308571 331.337143c-8.777143-8.777143-14.628571-23.405714-17.554285-35.108572 0-2.925714 0-5.851429-2.925715-8.777142l-20.48-108.251429c-2.925714-11.702857 0-23.405714 2.925715-38.034286 14.628571-38.034286 55.588571-58.514286 93.622857-43.885714l102.4 38.034286c2.925714 0 5.851429 2.925714 8.777143 2.925714 11.702857 5.851429 23.405714 11.702857 32.182857 23.405714L994.742857 697.051429c26.331429 32.182857 23.405714 78.994286-5.851428 105.325714zM479.817143 220.16l-5.851429-2.925714-78.994285-29.257143 14.628571 81.92 2.925714 5.851428 67.291429-55.588571z m58.514286 70.217143l-67.291429 55.588571 380.342857 456.411429 67.291429-55.588572-380.342857-456.411428zM939.154286 524.434286c-23.405714 0-43.885714-20.48-43.885715-43.885715v-427.154285c0-46.811429-38.034286-81.92-81.92-81.92H181.394286c-46.811429 0-81.92 38.034286-81.92 81.92V685.348571c0 46.811429 38.034286 81.92 81.92 81.92h427.154285c23.405714 0 43.885714 20.48 43.885715 43.885715s-20.48 43.885714-43.885715 43.885714H181.394286C87.771429 855.04 11.702857 778.971429 11.702857 685.348571v-631.954285c0-93.622857 76.068571-169.691429 169.691429-169.691429h631.954285c93.622857 0 169.691429 76.068571 169.691429 169.691429V480.548571c0 23.405714-17.554286 43.885714-43.885714 43.885715z"  horiz-adv-x="1024" />

    
    <glyph glyph-name="bianji5" unicode="&#58929;" d="M792.576 570.368l-325.632-327.168-98.816 93.696 325.632 327.168z m-449.024-256l99.328-93.696-145.92-51.2zM819.2 594.432l-102.4 93.696 30.208 30.208a61.952 61.952 0 0 0 85.504 0l12.288-11.776a57.856 57.856 0 0 0 0-83.456zM774.656 25.6H249.344A95.744 95.744 0 0 0 153.6 121.344V646.656A95.744 95.744 0 0 0 249.344 742.4h346.624a11.776 11.776 0 0 0 11.776-11.776v-24.064a11.776 11.776 0 0 0-11.776-11.776H272.896a71.68 71.68 0 0 1-71.68-71.68v-477.696a71.68 71.68 0 0 1 71.68-71.68h477.696a71.68 71.68 0 0 1 71.68 71.68V467.456a11.776 11.776 0 0 0 11.776 11.776h24.064a11.776 11.776 0 0 0 11.776-11.776v-346.624A95.744 95.744 0 0 0 774.656 25.6z"  horiz-adv-x="1024" />

    
    <glyph glyph-name="bianji6" unicode="&#59013;" d="M973.769 772.045l-45.454 47.117c-18.016 18.573-41.855 29.106-65.969 29.106-21.341 0-40.744-8.039-55.156-22.73L325.186 327.46c-0.558-0.557-0.278-1.109-0.832-1.667-0.557-0.831-1.388-1.663-1.663-2.769l-49.616-187.371c-2.773-10.808 0-22.729 7.76-31.043 5.82-5.819 13.581-9.145 21.899-9.145 2.768 0 5.54 0.273 8.035 1.107l180.163 50.724c0.278 0 0.552-0.279 0.552-0.279 2.221 0 4.162 0.831 5.546 2.496l482.562 497.523c14.411 14.691 22.172 34.927 22.172 56.825 0.001 24.946-9.975 49.611-27.995 68.184zM346.527 172.522l25.223 95.344 67.075-69.297-92.298-26.047zM488.439 237.1l-78.165 80.658 347.578 359.218 77.607-81.49L488.439 237.1z m444.032 458.443l-47.953-49.337-77.606 81.49 47.121 48.784c7.482 7.761 21.894 6.651 30.485-2.22l45.459-47.116c4.71-4.989 7.482-11.365 7.482-18.016 0.278-5.267-1.663-9.981-4.988-13.585z m0 0M1022 384v-0.552C1021.721 102.116 793.604-126 512-126 230.391-126 2 102.395 2 384 2 665.61 230.391 894 512 894c18.294 0 33.258-14.968 33.258-33.262 0-18.29-14.964-33.259-33.258-33.259C266.979 827.479 68.521 629.022 68.521 384c0-245.02 198.457-443.475 443.479-443.475 244.743 0 443.2 198.455 443.475 443.201V384c0.278 18.293 14.969 32.985 33.263 32.985S1021.721 402.294 1022 384z m0 0"  horiz-adv-x="1024" />

    
    <glyph glyph-name="bianjibiaoge_o" unicode="&#60231;" d="M546.133333 768l243.2-243.2-371.2-371.2H170.666667v243.2L546.133333 768zM213.333333 379.733333v-179.2h179.2L725.333333 524.8l-179.2 179.2L213.333333 379.733333z m-42.666666-311.466666h128v-42.666667H170.666667v42.666667z m170.666666 0h213.333334v-42.666667H341.333333v42.666667z m256 0h298.666667v-42.666667h-298.666667v42.666667z"  horiz-adv-x="1024" />

    
    <glyph glyph-name="bianji7" unicode="&#58939;" d="M927.931616 319.952529a30.218687 30.218687 0 0 1-32.003979-32.003979v-323.190307a28.695939 28.695939 0 0 0-28.879719-28.879718H92.78266a28.695939 28.695939 0 0 0-28.879719 28.879718V739.128519a28.695939 28.695939 0 0 0 28.879719 28.879718h351.991262a32.003979 32.003979 0 0 1 0 63.981704H92.78266A92.861423 92.861423 0 0 1 0 739.128519v-777.547045A92.23132 92.23132 0 0 1 92.78266-127.998162H870.329704a92.861423 92.861423 0 0 1 92.78266 92.78266v323.190306a34.865697 34.865697 0 0 1-35.180748 32.003979z m0 0l86.376613 438.446638L886.318567 886.38883a30.927553 30.927553 0 0 1-44.789819 0L233.663178 278.365734a29.037244 29.037244 0 0 1-9.60907-22.394909v-127.989662a30.244942 30.244942 0 0 1 32.00398-32.00398h127.989662a29.037244 29.037244 0 0 1 22.394909 9.60907L1014.386992 713.530586a30.927553 30.927553 0 0 1 0 44.789818z m-479.980925-83.17359l-83.17359 83.199844L767.937974 723.139656l83.199844-83.199844z m-76.767543-76.793797h-83.199844v83.199844l31.977725 32.003979 83.199844-83.199844zM895.927637 684.755885l-83.199845 83.199844 51.195865 51.195865 83.199845-83.199844z m0 0"  horiz-adv-x="1024" />

    
    <glyph glyph-name="anniu-jiantouxiangyou" unicode="&#60163;" d="M635.733333 384l-149.333333 149.333333L426.666667 473.6l89.6-89.6-89.6-89.6 59.733333-59.733333 149.333333 149.333333zM170.666667 384c0-187.733333 153.6-341.333333 341.333333-341.333333s341.333333 153.6 341.333333 341.333333-153.6 341.333333-341.333333 341.333333-341.333333-153.6-341.333333-341.333333z m85.333333 0c0 140.8 115.2 256 256 256s256-115.2 256-256-115.2-256-256-256-256 115.2-256 256z"  horiz-adv-x="1024" />

    
    <glyph glyph-name="jiantou_liebiaoxiangyou" unicode="&#60164;" d="M558.933333 405.333333L384 230.4l59.733333-59.733333 234.666667 234.666666L443.733333 640 384 580.266667l174.933333-174.933334z"  horiz-adv-x="1024" />

    
    <glyph glyph-name="jiantou_liebiaoxiangzuo" unicode="&#60165;" d="M503.466667 405.333333l174.933333-174.933333-59.733333-59.733333L384 405.333333 618.666667 640l59.733333-59.733333-174.933333-174.933334z"  horiz-adv-x="1024" />

    
    <glyph glyph-name="anniu_jiantouxiangzuo" unicode="&#60166;" d="M388.266667 384l149.333333-149.333333 59.733333 59.733333-89.6 89.6L597.333333 473.6l-59.733333 59.733333L388.266667 384zM853.333333 384c0 187.733333-153.6 341.333333-341.333333 341.333333s-341.333333-153.6-341.333333-341.333333 153.6-341.333333 341.333333-341.333333 341.333333 153.6 341.333333 341.333333z m-85.333333 0c0-140.8-115.2-256-256-256s-256 115.2-256 256 115.2 256 256 256 256-115.2 256-256z"  horiz-adv-x="1024" />

    
    </font>
</defs>
</svg>
