<svg style="position: absolute; width: 0; height: 0;" width="0" height="0" version="1.1" xmlns="http://www.w3.org/2000/svg" xmlns:xlink="http://www.w3.org/1999/xlink"><defs><symbol id="dodo-window" viewBox="0 -128 1024 1024"><path d="M509 -102 q207 5 344.5 142 q137.5 137 142.5 344 q-5 207 -142.5 344 q-137.5 137 -344.5 142 q-206 -5 -343.5 -142 q-137.5 -137 -142.5 -344 q5 -207 142.5 -344 q137.5 -137 343.5 -142 ZM509 819 q185 -5 308 -128 q123 -123 128 -307 q-5 -184 -128 -307 q-123 -123 -308 -128 q-184 5 -307 128 q-123 123 -128 307 q5 184 128 307 q123 123 307 128 ZM509 22 q154 4 256 106 q102 102 105 256 q-3 154 -105 256 q-102 102 -256 105 l0 -723 l0 0 Z"></path></symbol><symbol id="dodo-sync" viewBox="0 -128 1024 1024"><path d="M842 644 q28 0 53 -11.5 q25 -11.5 44 -32.5 q19 -21 29 -47.5 q10 -26.5 10 -55.5 l0 -351 q-1 -63 -39.5 -104.5 q-38.5 -41.5 -96.5 -43.5 l-387 0 q-58 2 -96.5 43.5 q-38.5 41.5 -40.5 104.5 l0 351 q2 62 40.5 104 q38.5 42 96.5 43 l113 0 l0 -61 l-113 0 q-32 -1 -53 -25.5 q-21 -24.5 -22 -60.5 l0 -351 q1 -37 22 -61 q21 -24 53 -25 l387 0 q32 1 53 25 q21 24 22 61 l0 351 q-1 36 -22 60.5 q-21 24.5 -53 25.5 l-74 0 l0 61 l74 0 ZM579 785 q59 -2 98 -44 q39 -42 41 -105 l0 -355 q-2 -63 -41 -105 q-39 -42 -98 -44 l-106 0 l0 62 l106 0 q33 1 54.5 25.5 q21.5 24.5 22.5 61.5 l0 355 q-1 37 -22.5 61.5 q-21.5 24.5 -54.5 25.5 l-397 0 q-33 -1 -55 -25.5 q-22 -24.5 -23 -61.5 l0 -355 q1 -37 23 -61.5 q22 -24.5 55 -25.5 l93 0 l0 -62 l-93 0 q-59 2 -98.5 44 q-39.5 42 -40.5 105 l0 355 q1 63 40.5 105 q39.5 42 98.5 44 l397 0 Z"></path></symbol><symbol id="dodo-lossless" viewBox="0 -128 1024 1024"><path d="M704 448 l0 -128 l-86 0 l0 128 l86 0 ZM726 256 q18 0 30 12 q12 12 12 30 l0 172 q0 18 -12 30 q-12 12 -30 12 l-172 0 l0 -256 l172 0 ZM406 512 l0 -86 l-86 0 l0 86 l-64 0 l0 -256 l64 0 l0 106 l86 0 l0 -106 l64 0 l0 256 l-64 0 ZM214 0 q-36 0 -61 26 q-25 26 -25 60 l0 596 q0 34 25 60 q25 26 61 26 l596 0 q34 0 60 -26 q26 -26 26 -60 l0 -596 q0 -34 -26 -60 q-26 -26 -60 -26 l-596 0 Z"></path></symbol><symbol id="dodo-restore" viewBox="0 -128 1024 1024"><path d="M815 833 q42 -1 69 -28.5 q27 -27.5 28 -68.5 l0 -704 q-1 -41 -28 -68.5 q-27 -27.5 -69 -28.5 l-606 0 q-42 1 -69 28.5 q-27 27.5 -28 68.5 l0 704 q1 41 28 68.5 q27 27.5 69 28.5 l606 0 ZM755 736 q-16 0 -26 -10.5 q-10 -10.5 -10 -26 q0 -15.5 10 -25.5 q10 -10 25.5 -10 q15.5 0 26 10 q10.5 10 10.5 25.5 q0 15.5 -10.5 26 q-10.5 10.5 -25.5 10.5 ZM840 594 q-12 -3 -25 -4 l-606 0 q-13 1 -25 4 l0 -538 q1 -20 14.5 -34 q13.5 -14 34.5 -14 l558 0 q21 0 34.5 14 q13.5 14 14.5 34 l0 538 ZM524 493 q83 -7 137.5 -64.5 q54.5 -57.5 56.5 -141.5 q-2 -88 -60 -146 q-58 -58 -146 -60 q-84 2 -141.5 56.5 q-57.5 54.5 -64.5 137.5 l-73 0 l109 121 l109 -121 l-71 0 q6 -52 42.5 -86 q36.5 -34 89.5 -36 q57 2 94.5 39.5 q37.5 37.5 39.5 94.5 q-2 53 -36 89.5 q-34 36.5 -86 42.5 l0 4 q-6 -2 -12 -3 q-15 1 -25.5 11 q-10.5 10 -10.5 25.5 q0 15.5 10.5 26 q10.5 10.5 25.5 10.5 q6 0 12 -2 l0 2 Z"></path></symbol><symbol id="dodo-consult" viewBox="0 -128 1024 1024"><path d="M777 144 l-41 0 l0 -32 l41 0 l0 32 ZM827 144 l-29 0 l0 -32 l29 0 l0 32 ZM851 -4 q44 1 74 31 q30 30 31 76 l0 399 q-1 46 -31 76 q-30 30 -74 31 l-233 0 l0 75 l-198 0 l0 -75 l-253 0 q-45 -1 -74.5 -31 q-29.5 -30 -30.5 -76 l0 -399 q1 -46 30.5 -76 q29.5 -30 74.5 -31 l684 0 ZM509 17 q-8 0 -12.5 5 q-4.5 5 -4.5 12 q0 7 4.5 12 q4.5 5 12 5 q7.5 0 12.5 -5 q5 -5 5 -12 q0 -7 -5 -12 q-5 -5 -12 -5 ZM839 587 q5 0 9 -4 q4 -4 4 -9.5 q0 -5.5 -4 -9 q-4 -3.5 -9 -3.5 l-77 0 q-5 0 -8.5 3.5 q-3.5 3.5 -3.5 9 q0 5.5 3.5 9.5 q3.5 4 8.5 4 l77 0 ZM883 103 q0 -15 -9.5 -24.5 q-9.5 -9.5 -22.5 -9.5 l-684 0 q-14 0 -23 9.5 q-9 9.5 -10 24.5 l0 399 q1 15 10 24.5 q9 9.5 23 9.5 l684 0 q13 0 22.5 -9.5 q9.5 -9.5 9.5 -24.5 l0 -399 ZM697 707 q15 0 25 10 q10 10 10 25 q0 15 -10 25 q-10 10 -25 10 l-377 0 q-15 0 -24.5 -10 q-9.5 -10 -9.5 -25 q0 -15 9.5 -25 q9.5 -10 24.5 -10 l377 0 ZM715 206 l-42 0 l0 -33 l42 0 l0 33 ZM185 117 l433 0 l0 373 l-433 0 l0 -373 ZM277 439 q-1 18 25.5 21 q26.5 3 99.5 2 q77 1 102 -2 q25 -3 23 -21 l0 -1 q-1 -34 -26.5 -60 q-25.5 -26 -65.5 -37 q-10 -5 -9 -13.5 q1 -8.5 3 -12.5 q13 -11 21 -30 q8 -19 8 -40 q-1 -31 -16.5 -49.5 q-15.5 -18.5 -39.5 -18.5 q-24 0 -40 18.5 q-16 18.5 -16 49.5 q0 21 7.5 40 q7.5 19 20.5 30 q3 4 4 12.5 q1 8.5 -9 13.5 q-41 11 -66 37 q-25 26 -26 60 l0 1 ZM665 346 l166 0 l0 144 l-166 0 l0 -144 ZM700 470 q0 7 10 8.5 q10 1.5 39 1.5 q29 0 38.5 -1.5 q9.5 -1.5 8.5 -8.5 l0 0 q0 -13 -10 -23 q-10 -10 -25 -14 q-4 -3 -3.5 -6 q0.5 -3 1.5 -4 q10 -10 11 -27 q-1 -13 -7 -20 q-6 -7 -15 -7 q-9 0 -15 7 q-6 7 -7 20 q1 17 11 27 q1 1 1.5 4 q0.5 3 -3.5 6 q-15 4 -25 14 q-10 10 -10 23 l0 0 ZM753 206 l-17 0 l0 -33 l17 0 l0 33 ZM715 144 l-42 0 l0 -32 l42 0 l0 32 Z"></path></symbol><symbol id="dodo-display" viewBox="0 -128 1024 1024"><path d="M900 49 l0 536 l-305 0 l0 112 l-130 0 l0 -112 l-305 0 l0 -536 l29 0 l682 0 l29 0 ZM871 78 l-682 0 l0 402 l682 0 l0 -402 ZM686 635 l0 132 l-312 0 l0 -132 l50 0 l0 83 l212 0 l0 -83 l50 0 Z"></path></symbol><symbol id="dodo-slow" viewBox="0 -128 1024 1024"><path d="M295 776 q-105 -59 -167 -161.5 q-62 -102.5 -64 -230.5 q5 -190 131.5 -316.5 q126.5 -126.5 316.5 -131.5 q71 1 135 22 l11 4 q36 12 69 29 l2 1 q105 59 167 161.5 q62 102.5 64 230.5 q-5 191 -131.5 317 q-126.5 126 -316.5 131 q-71 -1 -135 -22 l-11 -3 q-36 -12 -69 -30 q-1 -1 -2 -1 ZM236 185 q-30 43 -47.5 93 q-17.5 50 -17.5 106 q1 99 50 177.5 q49 78.5 130 123.5 q19 9 38 17 l12 4 q27 9 57 14 q26 5 54 5 q56 0 106.5 -17.5 q50.5 -17.5 92.5 -47.5 l-105 -105 l73 -81 l108 109 q31 -43 48.5 -93 q17.5 -50 17.5 -106 q-1 -99 -50.5 -178.5 q-49.5 -79.5 -132.5 -123.5 q-17 -9 -36 -16 l-11 -4 q-27 -9 -57 -14 q-26 -5 -54 -5 q-56 0 -106.5 17.5 q-50.5 17.5 -92.5 47.5 l105 105 l-73 81 l-109 -109 ZM497 426 l-171 0 l278 -310 l-77 226 l171 0 l-279 310 l78 -226 Z"></path></symbol><symbol id="dodo-zoom2" viewBox="0 -128 1024 1024"><path d="M1152 873 l128 0 l0 -128 l-128 128 ZM993 698 q21 21 21 49 q0 28 -21 49 l-33 33 q-21 20 -48.5 20 q-27.5 0 -49.5 -20 l-175 -176 q-17 -17 -20 -39 q-3 -22 8 -42 l-34 -33 q-48 38 -106.5 59 q-58.5 21 -124.5 21 q-159 -4 -264 -109.5 q-105 -105.5 -109 -263.5 q4 -159 109 -264.5 q105 -105.5 264 -109.5 q159 4 264 109.5 q105 105.5 109 264.5 q0 66 -21 124.5 q-21 58.5 -59 106.5 l33 34 q20 -11 42.5 -8 q22.5 3 39.5 19 l175 176 l0 0 ZM410 550 q129 -3 215 -89 q86 -86 89 -215 q-3 -129 -89 -215 q-86 -86 -215 -89 q-129 3 -215 89 q-86 86 -89 215 q3 129 89 215 q86 86 215 89 l0 0 Z"></path></symbol><symbol id="dodo-play" viewBox="0 -128 1024 1024"><path d="M512 834 q-191 -5 -318 -132 q-127 -127 -132 -318 q5 -191 132 -318 q127 -127 318 -132 q191 5 318 132 q127 127 132 318 q-5 191 -132 318 q-127 127 -318 132 ZM438 187 q-37 -21 -61 -7.5 q-24 13.5 -25 55.5 l0 287 q1 42 25.5 56.5 q24.5 14.5 61.5 -5.5 l234 -132 q40 -24 40.5 -55 q0.5 -31 -38.5 -56 l-237 -143 Z"></path></symbol><symbol id="dodo-qrcode" viewBox="0 -128 1024 1024"><path d="M71 -55 l409 0 l0 409 l-409 0 l0 -409 ZM137 288 l277 0 l0 -277 l-277 0 l0 277 ZM200 225 l151 0 l0 -151 l-151 0 l0 151 ZM807 423 l153 0 l0 156 l-408 0 l0 -156 l252 0 l3 0 ZM804 814 l156 0 l0 -156 l-156 0 l0 156 ZM552 814 l155 0 l0 -156 l-155 0 l0 156 ZM960 -50 l0 410 l-409 0 l0 -410 l409 0 ZM894 17 l-277 0 l0 277 l277 0 l0 -277 ZM680 231 l151 0 l0 -151 l-151 0 l0 151 ZM64 414 l409 0 l0 409 l-409 0 l0 -409 ZM130 757 l277 0 l0 -277 l-277 0 l0 277 ZM193 694 l151 0 l0 -151 l-151 0 l0 151 Z"></path></symbol><symbol id="dodo-ruler" viewBox="0 -128 1024 1024"><path d="M0 640 l1024 0 l0 -512 l-1024 0 l0 512 ZM960 192 l0 384 l-896 0 l0 -384 l896 0 ZM128 448 l64 0 l0 -256 l-64 0 l0 256 ZM256 320 l64 0 l0 -128 l-64 0 l0 128 ZM640 320 l64 0 l0 -128 l-64 0 l0 128 ZM384 320 l64 0 l0 -128 l-64 0 l0 128 ZM768 320 l64 0 l0 -128 l-64 0 l0 128 ZM512 448 l64 0 l0 -256 l-64 0 l0 256 Z"></path></symbol><symbol id="dodo-pin" viewBox="0 -128 1024 1024"><path d="M327 491.93 q-51 61 -107 124.5 q-56 63.5 -73 83.5 q-34 45 -47.5 76.5 q-13.5 31.5 -12.5 32.5 q1 1 32.5 -12.5 q31.5 -13.5 76.5 -47.5 q20 -17 84 -73 q64 -56 124 -107 l-77 -77 ZM921 179.93 q16 17 16 39 q0 22 -16.5 39 q-16.5 17 -38.5 17 q-22 0 -39 -17 l-17 -16 l-211 299 l66 66 q16 18 16 40 q0 22 -16.5 38.5 q-16.5 16.5 -38.5 16.5 q-22 0 -40 -16 l-392 -392 q-16 -18 -16 -40 q0 -22 16.5 -38.5 q16.5 -16.5 38.5 -16.5 q22 0 39 16 l67 66 l299 -211 l-16 -17 q-17 -17 -17 -39 q0 -22 17 -38.5 q17 -16.5 39 -16.5 q22 0 39 16 l205 205 Z"></path></symbol><symbol id="dodo-ct" viewBox="0 -128 1024 1024"><path d="M973 384 q-2 149 -78.5 264.5 q-76.5 115.5 -202.5 170.5 l0 12 q0 11 -7.5 18.5 q-7.5 7.5 -18.5 8.5 l-306 0 q-11 -1 -18 -8.5 q-7 -7.5 -8 -18.5 l0 -12 q-133 -59 -210.5 -183.5 q-77.5 -124.5 -69.5 -284.5 q15 -173 127 -294 q112 -121 280 -144 q26 -3 52 -3 q196 6 325.5 139.5 q129.5 133.5 134.5 334.5 ZM692 762 q105 -54 166.5 -154.5 q61.5 -100.5 63.5 -223.5 q-5 -179 -120.5 -297.5 q-115.5 -118.5 -288.5 -123.5 q-23 0 -47 3 q-147 20 -247 127.5 q-100 107.5 -114 260.5 q-7 132 55.5 241 q62.5 109 173.5 167 l0 -115 l-51 0 q-11 0 -18 -7.5 q-7 -7.5 -7 -18.5 l0 -53 q1 -33 22.5 -55.5 q21.5 -22.5 53.5 -23.5 l358 0 q32 1 54 23.5 q22 22.5 23 55.5 l0 53 q-1 11 -8 18.5 q-7 7.5 -18 7.5 l-51 0 l0 115 ZM385 647 l0 158 l256 0 l0 -158 l-153 0 l-103 0 ZM717 594 l0 -26 q0 -11 -7 -18.5 q-7 -7.5 -18 -7.5 l-358 0 q-10 0 -17.5 7.5 q-7.5 7.5 -7.5 18.5 l0 26 l383 0 l25 0 ZM513 95 q119 3 198.5 84.5 q79.5 81.5 82.5 204.5 q0 28 -6 58 q-2 10 -11 16 q-9 6 -19.5 4 q-10.5 -2 -16 -11 q-5.5 -9 -3.5 -20 q5 -24 5 -47 q-2 -101 -67 -167.5 q-65 -66.5 -163 -69.5 q-97 3 -162 69.5 q-65 66.5 -68 167.5 q0 24 5 47 q2 11 -3.5 20 q-5.5 9 -16 11 q-10.5 2 -19.5 -4 q-9 -6 -11 -16 q-6 -30 -6 -58 q3 -123 82.5 -204.5 q79.5 -81.5 198.5 -84.5 ZM181 358 q11 0 18 7.5 q7 7.5 7 18.5 q0 11 -7 18.5 q-7 7.5 -18 7.5 q-11 0 -18 -7.5 q-7 -7.5 -7 -18.5 q0 -11 7 -18.5 q7 -7.5 18 -7.5 ZM845 358 q11 0 18.5 7.5 q7.5 7.5 7.5 18.5 q0 11 -7.5 18.5 q-7.5 7.5 -18.5 7.5 q-11 0 -18 -7.5 q-7 -7.5 -7 -18.5 q0 -11 7 -18.5 q7 -7.5 18 -7.5 Z"></path></symbol><symbol id="dodo-fold-d" viewBox="0 -128 1024 1024"><path d="M85 128 l854 0 l0 -128 l-854 0 l0 128 ZM85 426 l854 0 l0 -128 l-854 0 l0 128 ZM85 725 l854 0 l0 -128 l-854 0 l0 128 Z"></path></symbol><symbol id="dodo-mag" viewBox="0 -128 1024 1024"><path d="M939 719 q20 21 20 48 q0 27 -20 47 q-20 20 -47 20 q-27 0 -48 -19 l-161 -161 q-10 -11 -15 -24 q-116 81 -252.5 71 q-136.5 -10 -241.5 -111 q-112 -118 -112 -270.5 q0 -152.5 112 -270.5 q118 -112 270.5 -112 q152.5 0 270.5 112 q101 105 111 241 q10 136 -71 253 q13 5 24 15 l160 161 ZM206 558 q104 99 238.5 99 q134.5 0 238.5 -99 q99 -104 99 -238.5 q0 -134.5 -99 -238.5 q-104 -99 -238.5 -99 q-134.5 0 -238.5 99 q-99 104 -99 238.5 q0 134.5 99 238.5 ZM697 172 q40 70 40 147.5 q0 77.5 -40 147.5 l-19 -11 q36 -65 36 -136.5 q0 -71.5 -36 -136.5 l19 -11 Z"></path></symbol><symbol id="dodo-3d-c" viewBox="0 -128 1024 1024"><path d="M958 86 l-571 99 l-324 -149 l498 -100 l397 150 ZM63 86 l299 149 l0 596 l-299 -199 l0 -546 ZM213 439 q2 14 19.5 34.5 q17.5 20.5 20.5 49.5 q-2 19 -15 28 q-13 9 -25 2 q-12 -11 -18.5 -26.5 q-6.5 -15.5 -6.5 -38.5 l-50 -29 q0 89 75 134 q34 14 57 4 q23 -10 27 -44 q-2 -33 -17 -60 q-15 -27 -18 -49 q3 3 18 -11 q15 -14 17 -44 q-1 -34 -23 -63.5 q-22 -29.5 -56 -55.5 q-37 -19 -54.5 -8 q-17.5 11 -20.5 52 l50 30 q7 -31 29 -25 q12 8 21 22 q9 14 9 33 q-2 26 -19.5 30.5 q-17.5 4.5 -19.5 -10.5 l0 45 ZM411 235 l547 -100 l0 547 l-547 149 l0 -596 ZM610 667 l100 -30 q164 -46 164 -203 q0 -157 -164 -120 l-100 30 l0 323 ZM789 458 q0 53 -23 85 q-23 32 -71 40 l-35 10 l0 -214 l35 -5 q48 -15 71 6.5 q23 21.5 23 77.5 Z"></path></symbol><symbol id="dodo-3d-2" viewBox="0 -128 1024 1024"><path d="M894 536 q-2 25 -18 48.5 q-16 23.5 -40 36.5 l-265 139 q-12 6 -24 8 q-16 4 -33.5 4 q-17.5 0 -33.5 -3 q-13 -2 -27 -9 l-265 -139 q-24 -13 -40 -36.5 q-16 -23.5 -18 -48.5 l0 -304 q2 -25 18 -48.5 q16 -23.5 40 -36.5 l265 -139 q12 -6 24 -8 q16 -4 33.5 -4 q17.5 0 33.5 3 q13 2 27 9 l265 139 q24 13 40 36.5 q16 23.5 18 48.5 q0 2 0 4 l0 300 ZM482 438 q1 -5 1 -10 q0 -26 -20 -44 l0 0 q-5 -5 -10 -7 l-264 -139 l0 292 l149 -78 l0 -99 l3 0 q12 6 24 11 l0 86 l62 -32 l19 17 l-68 36 l71 37 l0 29 l-78 -42 l-153 80 l264 138 l0 -275 ZM512 337 q16 0 30 -6 l0 0 l264 -138 l-264 -138 l0 159 l80 42 q-13 7 -24 15 l-2 0 l-70 -37 l0 65 q-14 0 -27 0 l-1 0 l0 -65 l-77 39 q-10 -9 -22 -16 l83 -43 l0 -160 l-265 139 l265 138 l0 0 q14 6 30 6 ZM835 238 l-264 138 q-5 3 -10 8 l0 0 q-20 18 -20 44 q0 5 1 10 l0 276 l265 -139 l-154 -80 l-76 40 l0 -27 l69 -37 l-69 -36 q8 -10 17 -19 l65 34 l0 -91 l22 -11 l5 0 l0 104 l149 78 l0 -292 Z"></path></symbol><symbol id="dodo-help" viewBox="0 -128 1024 1024"><path d="M199 626 q-1 16 -11.5 26.5 q-10.5 10.5 -26.5 11.5 l-60 0 q-16 -1 -26.5 -11.5 q-10.5 -10.5 -10.5 -26.5 q0 -16 10.5 -26.5 q10.5 -10.5 26.5 -10.5 l60 0 q16 0 26.5 10.5 q10.5 10.5 11.5 26.5 ZM101 179 q-16 0 -26.5 -10.5 q-10.5 -10.5 -10.5 -26.5 q0 -16 10.5 -26.5 q10.5 -10.5 26.5 -11.5 l60 0 q16 1 26.5 11.5 q10.5 10.5 10.5 26.5 q0 16 -10.5 26.5 q-10.5 10.5 -26.5 10.5 l-60 0 ZM101 502 q-16 0 -26.5 -10.5 q-10.5 -10.5 -10.5 -26.5 q0 -16 10.5 -26.5 q10.5 -10.5 26.5 -11.5 l60 0 q16 1 26.5 11.5 q10.5 10.5 10.5 26.5 q0 16 -10.5 26.5 q-10.5 10.5 -26.5 10.5 l-60 0 ZM892 197 q21 1 43.5 14 q22.5 13 24.5 33 l0 64 q-2 20 -24.5 33 q-22.5 13 -43.5 14 q-6 0 -12 -2 l0 -154 q6 -2 12 -2 ZM892 32 q21 0 43.5 13.5 q22.5 13.5 24.5 33.5 l0 64 q-2 20 -24.5 33 q-22.5 13 -43.5 14 q-6 0 -12 -2 l0 -155 q6 -1 12 -1 ZM101 341 q-16 -1 -26.5 -11.5 q-10.5 -10.5 -10.5 -26.5 q0 -16 10.5 -26.5 q10.5 -10.5 26.5 -10.5 l60 0 q16 0 26.5 10.5 q10.5 10.5 10.5 26.5 q0 16 -10.5 26.5 q-10.5 10.5 -26.5 11.5 l-60 0 ZM892 362 q21 1 43.5 14 q22.5 13 24.5 33 l0 64 q-2 20 -24.5 33.5 q-22.5 13.5 -43.5 13.5 q-6 0 -12 -1 l0 -155 q6 -2 12 -2 ZM787 -40 q33 0 55 22 q22 22 22 55 l0 694 q0 33 -22 55 q-22 22 -55 22 l-591 0 q-32 0 -54 -22 q-22 -22 -23 -55 l0 -45 l42 0 q26 0 43 -17 q17 -17 17 -42.5 q0 -25.5 -17 -42.5 q-17 -17 -43 -18 l-42 0 l0 -41 l42 0 q26 -1 43 -18 q17 -17 17 -42.5 q0 -25.5 -17 -42.5 q-17 -17 -43 -17 l-42 0 l0 -42 l42 0 q26 0 43 -17 q17 -17 17 -42.5 q0 -25.5 -17 -42.5 q-17 -17 -43 -18 l-42 0 l0 -41 l42 0 q26 -1 43 -18 q17 -17 17 -42.5 q0 -25.5 -17 -42.5 q-17 -17 -43 -17 l-42 0 l0 -45 q1 -33 23 -55 q22 -22 54 -22 l591 0 ZM563 589 l-74 0 l0 74 l74 0 l0 -74 ZM681 332 q16 -29 16 -64 q0 -60 -46.5 -102.5 q-46.5 -42.5 -124.5 -42.5 q-73 0 -118 39.5 q-45 39.5 -54 114.5 l67 8 q9 -56 37 -82 q28 -26 70.5 -26 q42.5 0 72 29 q29.5 29 29.5 67 q0 21 -10 38.5 q-10 17.5 -44 47.5 q-34 30 -47 45 q-18 22 -26 43 q-11 28 -11 66 l1 20 l62 0 q1 -39 6 -56.5 q5 -17.5 14.5 -31 q9.5 -13.5 41.5 -41.5 q47 -42 64 -72 Z"></path></symbol><symbol id="dodo-new" viewBox="0 -128 1024 1024"><path d="M794 832 q68 -2 114 -47.5 q46 -45.5 52 -119.5 l0 -147 q-1 -19 -12 -28.5 q-11 -9.5 -26 -9.5 q-20 0 -29.5 11.5 q-9.5 11.5 -9.5 26.5 l0 147 q-1 39 -25.5 64 q-24.5 25 -63.5 26 l-148 0 q-19 0 -28.5 11.5 q-9.5 11.5 -9.5 26.5 q1 19 12 29 q11 10 26 10 l148 0 ZM915 300 q19 0 29 -11.5 q10 -11.5 10 -26.5 l0 -160 q-2 -69 -47 -113.5 q-45 -44.5 -113 -46.5 l-148 0 q-38 0 -38 38 q1 20 11.5 29.5 q10.5 9.5 20.5 9.5 l147 0 q39 1 64 25.5 q25 24.5 26 63.5 l0 154 q0 19 11.5 28.5 q11.5 9.5 26.5 9.5 ZM109 300 q14 0 23 -11.5 q9 -11.5 9 -26.5 l0 -154 q1 -39 25.5 -63.5 q24.5 -24.5 63.5 -25.5 l148 0 q15 0 26 -6.5 q11 -6.5 11 -25.5 q0 -19 -11 -29 q-11 -10 -26 -10 l-148 0 q-68 2 -113 47 q-45 45 -47 113 l0 154 q0 15 10 26.5 q10 11.5 29 11.5 ZM378 832 q14 -1 27.5 -9.5 q13.5 -8.5 23.5 -22.5 q-1 -20 -12.5 -29.5 q-11.5 -9.5 -26.5 -9.5 l-153 0 q-39 -1 -64 -25.5 q-25 -24.5 -26 -63.5 l0 -148 q0 -38 -38 -38 q-19 1 -29 12 q-10 11 -10 26 l0 148 q2 68 47 113 q45 45 113 47 l148 0 ZM512 582 q15 0 26.5 -8.5 q11.5 -8.5 11.5 -23.5 l0 -314 q0 -19 -11.5 -28.5 q-11.5 -9.5 -26.5 -9.5 q-15 0 -26.5 8.5 q-11.5 8.5 -11.5 23.5 l0 314 q0 19 11.5 28.5 q11.5 9.5 26.5 9.5 ZM672 428 q15 0 23.5 -11.5 q8.5 -11.5 8.5 -26.5 q0 -15 -8.5 -26.5 q-8.5 -11.5 -23.5 -11.5 l-314 0 q-19 0 -28.5 11.5 q-9.5 11.5 -9.5 26.5 q0 15 8.5 26.5 q8.5 11.5 23.5 11.5 l320 0 Z"></path></symbol><symbol id="dodo-label-a" viewBox="0 -128 1024 1024"><path d="M971 541.06 q5 4 4 10.5 q-1 6.5 -7 10.5 l-104 33 l43 133 q3 11 -2.5 22 q-5.5 11 -16.5 14.5 q-11 3.5 -22 -1.5 q-11 -5 -15 -17 l-43 -133 l-104 34 q-5 1 -9.5 -3 q-4.5 -4 -3.5 -10 l59 -263 q2 -6 7.5 -8 q5.5 -2 10.5 2 l203 176 ZM645 589.06 l-538 0 q-24 -1 -41 -18 q-17 -17 -18 -41 l0 -472 q1 -25 18 -42 q17 -17 41 -17 l711 0 q24 0 41 17 q17 17 18 42 l0 328 l-59 -53 l0 -275 l-711 0 l0 472 l552 0 l-14 59 Z"></path></symbol><symbol id="dodo-collapse" viewBox="0 -128 1024 1024"><path d="M848 242 q11 -12 14 -27.5 q3 -15.5 -2.5 -30.5 q-5.5 -15 -18 -24.5 q-12.5 -9.5 -29.5 -11.5 l-600 0 q-17 2 -29.5 11.5 q-12.5 9.5 -18 24.5 q-5.5 15 -2.5 30.5 q3 15.5 14 27.5 l301 329 q14 15 35 15 q21 0 36 -15 l300 -329 Z"></path></symbol><symbol id="dodo-filter" viewBox="0 -128 1024 1024"><path d="M817 -55 q15 0 26 7.5 q11 7.5 17 19.5 q3 6 3.5 18.5 q0.5 12.5 -11.5 27.5 l-203 229 q-20 22 -30.5 49.5 q-10.5 27.5 -10.5 57.5 l0 434 q0 15 -10 25 q-10 10 -24 10 q-10 0 -18 -5 l-154 -96 q-16 -10 -16 -29 l0 -336 q0 -30 -10.5 -57.5 q-10.5 -27.5 -30.5 -49.5 l-206 -232 q-11 -15 -10.5 -27.5 q0.5 -12.5 3.5 -18.5 q5 -12 16 -19.5 q11 -7.5 27 -7.5 l642 0 ZM175 -128 q-37 0 -68 20 q-28 19 -41.5 49 q-13.5 30 -10 62.5 q3.5 32.5 29.5 62.5 l206 232 q21 25 22 59 l0 336 q0 28 13.5 52 q13.5 24 37.5 39 l153 96 q26 16 57 16 q43 -1 75 -30 q15 -15 23.5 -34.5 q8.5 -19.5 9.5 -43.5 l0 -434 q0 -34 22 -59 l203 -229 q26 -30 29.5 -62.5 q3.5 -32.5 -10.5 -62.5 q-14 -30 -42 -49 q-30 -20 -67 -20 l-642 0 Z"></path></symbol><symbol id="dodo-reset-r" viewBox="0 -128 1024 1024"><path d="M511 383.24 l0 0 ZM383 383.24 q1 -55 37.5 -91 q36.5 -36 90.5 -37 q54 1 90.5 37 q36.5 36 37.5 91 q-1 54 -37.5 90 q-36.5 36 -90.5 38 q-54 -2 -90.5 -38 q-36.5 -36 -37.5 -90 ZM960 0.24 l0 257 l-256 0 l0 -64 l141 0 q-55 -94 -149.5 -146.5 q-94.5 -52.5 -209.5 -45.5 q-163 15 -263.5 130.5 q-100.5 115.5 -93.5 278.5 q15 162 130.5 263 q115.5 101 278.5 94 q145 -13 242.5 -108.5 q97.5 -95.5 113.5 -236.5 l65 -4 q-16 168 -130 282.5 q-114 114.5 -287 130.5 q-190 8 -324.5 -109.5 q-134.5 -117.5 -152.5 -307.5 q-8 -190 109.5 -324.5 q117.5 -134.5 307.5 -152.5 q132 -7 240.5 51.5 q108.5 58.5 173.5 164.5 l0 -153 l64 0 Z"></path></symbol><symbol id="dodo-layout" viewBox="0 -128 1024 1024"><path d="M566 699 q1 32 8 63 l-422 0 q-27 0 -45 -18 q-18 -18 -19 -45 l0 -701 q1 -27 19 -45 q18 -18 45 -19 l701 0 q27 1 45 19 q18 18 18 45 l0 395 q-31 -8 -63 -7 l0 -133 l-383 0 l0 446 l96 0 ZM152 189 l701 0 l0 -191 l-701 0 l0 191 ZM407 253 l-255 0 l0 446 l255 0 l0 -446 ZM809 577 q28 1 46.5 20.5 q18.5 19.5 18.5 48.5 q0 29 -18.5 48.5 q-18.5 19.5 -46.5 19.5 q-28 0 -46.5 -19.5 q-18.5 -19.5 -18.5 -48.5 q0 -29 18.5 -48.5 q18.5 -19.5 46.5 -20.5 ZM809 692 q18 -1 30.5 -14 q12.5 -13 12.5 -32 q0 -19 -12.5 -32 q-12.5 -13 -31 -13 q-18.5 0 -30.5 13 q-12 13 -12 32 q0 19 12 32 q12 13 31 14 ZM977 621 q1 12 1 25.5 q0 13.5 -1 25.5 l-2 13 q-4 18 -17 19 l-1 0 q-21 0 -35 15 q-14 15 -15 37 q0 7 2 13 l2 6 q3 8 1 16 q-2 8 -8 13 l-50 28 q-4 2 -9 2 q-10 0 -18 -8 q-5 -6 -16.5 -15 q-11.5 -9 -23.5 -9 q-12 0 -23.5 9 q-11.5 9 -15.5 15 q-8 7 -18 7 q-5 0 -9 -2 l-48 -27 q-6 -5 -8.5 -13 q-2.5 -8 0.5 -16 l3 -6 q1 -6 2 -13 q-1 -22 -15 -37 q-14 -15 -35 -15 l-2 0 q-12 -1 -16 -19 l-2 -13 q-2 -12 -2 -25.5 q0 -13.5 2 -25.5 l2 -14 q4 -17 17 -18 l1 0 q21 -1 35 -15.5 q14 -14.5 15 -36.5 q-1 -7 -2 -13 l-3 -7 q-3 -7 -0.5 -15 q2.5 -8 8.5 -13 l50 -29 q5 -2 9 -2 q11 1 18 8 q5 6 16.5 14 q11.5 8 23 8 q11.5 0 22.5 -8 q11 -8 16 -13 q8 -8 18 -8 q5 0 9 2 l49 28 q6 5 8 13 q2 8 -1 15 l-2 7 q-2 6 -2 13 q1 22 15 36.5 q14 14.5 35 15.5 l1 0 q13 1 17 18 l2 14 ZM955 667 q1 -10 1 -20.5 q0 -10.5 -1 -20.5 l-2 -14 q-29 -2 -48.5 -23 q-19.5 -21 -19.5 -52 q0 -10 2.5 -18 q2.5 -8 3.5 -11 l-45 -26 l-2 1 q-7 8 -16 14 q-21 16 -39 16 q-18 0 -38 -16 q-9 -7 -17 -15 l-2 0 l-46 26 q1 3 3.5 11 q2.5 8 2.5 18 q0 31 -19.5 52 q-19.5 21 -48.5 23 l-2 14 q-1 10 -1 20.5 q0 10.5 1 20.5 l2 14 q29 2 48.5 23 q19.5 21 19.5 52 q0 10 -2.5 18 q-2.5 8 -3.5 11 l44 25 l1 0 q8 -9 17 -16 q21 -16 39.5 -16 q18.5 0 39.5 17 q9 7 17 15 l2 1 l45 -27 q-1 -2 -3.5 -10 q-2.5 -8 -2.5 -18 q0 -31 19.5 -52 q19.5 -21 48.5 -23 l2 -14 Z"></path></symbol><symbol id="dodo-less" viewBox="0 -128 1024 1024"><path d="M906 687 l-78 78 l-380 -381 l380 -381 l78 78 l-304 303 l304 303 ZM576 687 l-77 78 l-381 -381 l381 -381 l77 78 l-303 303 l303 303 Z"></path></symbol><symbol id="dodo-cobb" viewBox="0 -128 1024 1024"><path d="M1016 798 l-31 98 l-979 -318 l31 -98 l367 118 q74 -57 111 -116 q37 -59 36 -118 q-5 -73 -45.5 -127 q-40.5 -54 -73.5 -79 l-395 126 l-31 -98 l971 -314 l35 98 l-520 167 q37 34 72.5 90.5 q35.5 56.5 39.5 132.5 q1 65 -34.5 129 q-35.5 64 -106.5 126 l553 183 Z"></path></symbol><symbol id="dodo-3d" viewBox="0 -128 1024 1024"><path d="M940 651 l-405 221 l-9 -16 l-441 -221 l0 -551 l-1 -20 l441 -184 l10 3 l367 184 l29 17 l0 551 l9 16 ZM894 105 l-358 215 l-19 -32 l339 -203 l-330 -165 l-419 174 l419 210 l0 531 l368 -201 l0 -529 Z"></path></symbol><symbol id="dodo-recover" viewBox="0 -128 1024 1024"><path d="M579 209 l0 188 l157 94 l-31 54 l-193 -112 l0 -224 l67 0 ZM557 -15 q172 4 287.5 115.5 q115.5 111.5 120.5 283.5 q-5 172 -118 285.5 q-113 113.5 -286 117.5 q-84 -1 -158 -31.5 q-74 -30.5 -128 -85.5 l62 -62 q41 44 98 68.5 q57 24.5 122 25.5 q134 -4 222 -92 q88 -88 91 -222 q-3 -134 -91 -222 q-88 -88 -222 -92 q-134 4 -222.5 92 q-88.5 88 -91.5 222 l135 0 l-180 179 l-179 -179 l135 0 q4 -172 117.5 -285.5 q113.5 -113.5 285.5 -117.5 Z"></path></symbol><symbol id="dodo-zoom" viewBox="0 -128 1024 1024"><path d="M963 743 q15 16 15 36.5 q0 20.5 -15.5 35.5 q-15.5 15 -36 15 q-20.5 0 -36.5 -15 l-122 -122 q-52 40 -115 62 q-63 22 -134 23 q-75 0 -144.5 -26 q-69.5 -26 -125.5 -76 q-13 -11 -13.5 -26.5 q-0.5 -15.5 10.5 -28 q11 -12.5 26.5 -13.5 q15.5 -1 28.5 10 q45 39 101 60.5 q56 21.5 117 21.5 q141 -4 235 -98 q94 -94 98 -235 q-4 -141 -98 -235 q-94 -94 -235 -98 q-61 1 -117 22 q-56 21 -101 61 q-13 10 -29 9 q-16 -1 -27 -13.5 q-11 -12.5 -10 -28 q1 -15.5 14 -26.5 q57 -49 126 -75 q69 -26 144 -27 q174 5 290 121 q116 116 121 290 q-1 72 -24 137 q-23 65 -65 118 l122 121 ZM499 406 q-16 0 -26.5 -11 q-10.5 -11 -10.5 -28 q0 -17 10.5 -28 q10.5 -11 26.5 -11 l238 0 q16 0 26.5 11 q10.5 11 10.5 28 q0 17 -10.5 28 q-10.5 11 -26.5 11 l-238 0 ZM261 505 q0 16 -11.5 27 q-11.5 11 -28 11 q-16.5 0 -27.5 -11 q-11 -11 -11 -27 l0 -99 l-99 0 q-16 0 -27 -11 q-11 -11 -11 -28 q0 -17 11 -28 q11 -11 27 -11 l99 0 l0 -99 q0 -16 11 -26.5 q11 -10.5 27.5 -10.5 q16.5 0 28 10.5 q11.5 10.5 11.5 26.5 l0 99 l99 0 q16 0 26.5 11 q10.5 11 10.5 28 q0 17 -10.5 28 q-10.5 11 -26.5 11 l-99 0 l0 99 Z"></path></symbol><symbol id="dodo-elliptic-anno" viewBox="0 -128 1024 1024"><path d="M900 282 q-2 12 -10 19 q-8 7 -19 7 q-13 -1 -22 -9.5 q-9 -8.5 -9 -21.5 l1 -7 l0 -131 l-142 0 q-13 -1 -22 -9.5 q-9 -8.5 -9 -22 q0 -13.5 9 -22 q9 -8.5 22 -9.5 l142 0 l0 -135 q-2 -3 -1 -7 q0 -13 9 -21.5 q9 -8.5 22 -8.5 q13 0 21.5 8.5 q8.5 8.5 9.5 21.5 l0 144 l142 0 q13 0 22 9 q9 9 9 22 q0 13 -9 22 q-9 9 -22 9 l-142 0 l-2 142 ZM1000 645 q12 -1 20 7.5 q8 8.5 7.5 20.5 q-0.5 12 -10.5 21 q-53 55 -120 91 q1 1 -1 2 q-5 2 -13 3 q-12 -1 -19.5 -9 q-7.5 -8 -8.5 -19 q1 -16 14 -24 q61 -35 110 -84 q9 -9 21 -9 ZM776 780 q12 0 20 8 q8 8 8 20 q0 10 -5.5 17 q-5.5 7 -15.5 10 q-71 22 -149 28 q-12 0 -20 -8 q-8 -8 -8 -19.5 q0 -11.5 6.5 -19.5 q6.5 -8 17.5 -9 q70 -5 136 -26 q5 -2 10 -1 ZM534 804 q11 1 18 9 q7 8 7 19.5 q0 11.5 -8 19.5 q-8 8 -20 8 l-1 0 q-18 0 -36 -3 l-50 -8 q-185 -40 -297 -152 q-112 -112 -115 -261 q1 -116 74.5 -213.5 q73.5 -97.5 203.5 -154.5 l42 -17 l27 -8 q6 -5 14 -5 q12 1 20 9 q8 8 8 20 q0 9 -5.5 16 q-5.5 7 -14.5 10 q-15 4 -31 10 q-19 7 -38 16 q-114 51 -178 135 q-64 84 -66 183 q3 128 102 225.5 q99 97.5 264 131.5 q23 5 46 7 q17 1 34 3 ZM1129 439 q0 78 -34 148 q-3 8 -10 13.5 q-7 5.5 -17 5.5 q-12 0 -20 -8 q-8 -8 -8 -20 q0 -6 1 -11 q32 -62 31 -128 l0 -2 q1 -12 9 -20 q8 -8 19.5 -8 q11.5 0 19.5 8 q8 8 9 20 l0 2 ZM1019 182 q55 57 84 130 q3 6 3 11 q0 12 -8 20 q-8 8 -20 8 q-9 0 -15.5 -5 q-6.5 -5 -9.5 -13 q-27 -63 -75 -111 q-9 -9 -8.5 -20.5 q0.5 -11.5 8.5 -19.5 q8 -8 20 -7.5 q12 0.5 21 7.5 ZM657 74 q-36 -4 -71 -4 q-35 0 -68 4 l0 -2 l-2 0 q-12 0 -20 -8 q-8 -8 -8 -20 q0 -12 8 -20 q8 -8 20 -8 l2 0 q73 -7 146 1 l0 2 q10 0 17.5 8 q7.5 8 7.5 19 q0 11 -8 19 q-8 8 -20 9 l-4 0 Z"></path></symbol><symbol id="dodo-rect-anno" viewBox="0 -128 1024 1024"><path d="M1122 96 q13 1 22 9.5 q9 8.5 9 21.5 q0 13 -9 22 q-9 9 -22 9 l-141 0 l0 142 q-1 13 -9.5 22 q-8.5 9 -21.5 9 q-13 0 -22 -9 q-9 -9 -9 -22 l0 -142 l-142 0 q-13 0 -22 -9 q-9 -9 -9 -22 q0 -13 9 -21.5 q9 -8.5 22 -9.5 l142 0 l0 -141 q0 -13 9 -22 q9 -9 22 -9 q13 0 21.5 9 q8.5 9 9.5 22 l0 141 l141 0 ZM86 214 q-12 0 -20 -7.5 q-8 -7.5 -8 -18.5 l0 -61 q0 -12 8 -19.5 q8 -7.5 20 -8.5 l81 0 q12 1 20 8.5 q8 7.5 8 19.5 q0 12 -8 20 q-8 8 -20 9 l-52 0 l0 30 l-1 0 q0 12 -8 20 q-8 8 -20 8 ZM278 156 q-12 -1 -20 -9 q-8 -8 -8 -20 q0 -12 8 -19.5 q8 -7.5 20 -8.5 l141 0 q12 1 19.5 8.5 q7.5 7.5 7.5 19.5 q0 12 -7.5 20 q-7.5 8 -19.5 9 l-141 0 ZM530 156 q-12 -1 -19.5 -9 q-7.5 -8 -8 -20 q-0.5 -12 7.5 -19.5 q8 -7.5 20 -8.5 l140 0 q12 1 20 8.5 q8 7.5 8 19.5 q0 12 -8 20 q-8 8 -20 9 l-140 0 ZM978 604 q-1 11 -8.5 19 q-7.5 8 -19.5 8 q-12 0 -20 -8 q-8 -8 -8 -19 l0 -141 q0 -12 8 -20 q8 -8 20 -8 q12 0 19.5 8 q7.5 8 8.5 20 l0 141 ZM950 686 q12 1 19.5 9 q7.5 8 8.5 21 l0 119 q-1 12 -8.5 20 q-7.5 8 -19.5 8 l-141 0 q-12 0 -20 -8 q-8 -8 -8 -20 q0 -12 8 -19.5 q8 -7.5 20 -8.5 l0 -1 l113 0 l0 -92 q0 -11 8 -19 q8 -8 20 -9 ZM702 806 q11 0 19 8 q8 8 8 20 q0 12 -8 20 q-8 8 -20 8 l-617 0 q-12 0 -19.5 -8 q-7.5 -8 -8.5 -20 l0 -566 q1 -12 8.5 -20 q7.5 -8 19.5 -8 q12 0 20 8 q8 8 8 20 l2 0 l0 536 l588 2 Z"></path></symbol><symbol id="dodo-angle" viewBox="0 -128 1024 1024"><path d="M152 833 q-38 -1 -63.5 -26.5 q-25.5 -25.5 -25.5 -64 q0 -38.5 25.5 -63.5 q25.5 -25 63.5 -25 q38 0 63.5 25 q25.5 25 25.5 63.5 q0 38.5 -25.5 64 q-25.5 25.5 -63.5 26.5 ZM152 797 q-23 -1 -38 -16 q-15 -15 -15 -38 q0 -23 15 -38.5 q15 -15.5 38 -15.5 q23 0 38 15.5 q15 15.5 15 38.5 q0 23 -15 38 q-15 15 -38 16 ZM875 117 q-38 -1 -63.5 -26.5 q-25.5 -25.5 -25.5 -63.5 q0 -38 25.5 -63.5 q25.5 -25.5 63.5 -25.5 q38 0 63.5 25.5 q25.5 25.5 25.5 63.5 q0 38 -25.5 63.5 q-25.5 25.5 -63.5 26.5 ZM875 81 q-23 -1 -38.5 -16 q-15.5 -15 -15.5 -38 q0 -23 15.5 -38 q15.5 -15 38.5 -15 q23 0 38 15 q15 15 15 38 q0 23 -15 38 q-15 15 -38 16 ZM1172 833 q-38 -1 -63.5 -26.5 q-25.5 -25.5 -25.5 -64 q0 -38.5 25.5 -63.5 q25.5 -25 63.5 -25 q38 0 63.5 25 q25.5 25 25.5 63.5 q0 38.5 -25.5 64 q-25.5 25.5 -63.5 26.5 ZM1172 797 q-23 -1 -38.5 -16 q-15.5 -15 -15.5 -38 q0 -23 15.5 -38.5 q15.5 -15.5 38.5 -15.5 q23 0 38 15.5 q15 15.5 15 38.5 q0 23 -15 38 q-15 15 -38 16 ZM211 770 l900 0 l0 -54 l-900 0 l0 54 ZM212 720 l637 -636 l-38 -39 l-637 637 l38 38 ZM563 339 q77 78 120.5 181.5 q43.5 103.5 44.5 222.5 l54 0 q0 -126 -46.5 -239.5 q-46.5 -113.5 -134.5 -203.5 l-38 39 Z"></path></symbol><symbol id="dodo-pen-draw" viewBox="0 -128 1024 1024"><path d="M279 753.79 q7 0 15 -2 l416 -158 q9 -4 14 -12 l138 -224 q5 -8 4 -17 q-1 -9 -8 -16 l-167 -179 q-6 -7 -15 -8.5 q-9 -1.5 -18 3.5 l-240 130 q-8 5 -12 13 l-174 401 q-5 14 -2.5 28 q2.5 14 12.5 25 q15 16 37 16 ZM666 198.79 l138 148 l-122 199 l-395 150 l165 -381 l214 -116 ZM882 422.79 q10 0 19 -7 l74 -67 q8 -8 8.5 -19.5 q0.5 -11.5 -6.5 -19.5 l-248 -270 q-8 -8 -19 -8.5 q-11 -0.5 -19 6.5 l-78 66 q-8 8 -9 19.5 q-1 11.5 7 19.5 l251 271 q9 9 20 9 ZM706 96.79 l211 230 l-33 30 l-213 -230 l35 -30 ZM547 490.79 q19 -1 32 -13.5 q13 -12.5 13 -31.5 q0 -19 -13 -32 q-13 -13 -32 -13 q-19 0 -31.5 13 q-12.5 13 -12.5 32 q0 19 12.5 31.5 q12.5 12.5 31.5 13.5 ZM547 422.79 q10 0 16.5 6.5 q6.5 6.5 6.5 16.5 q0 10 -6.5 16.5 q-6.5 6.5 -16.5 6.5 q-10 0 -16.5 -6.5 q-6.5 -6.5 -6.5 -16.5 q0 -10 6.5 -16.5 q6.5 -6.5 16.5 -6.5 ZM268 750.79 q9 0 16.5 -5.5 q7.5 -5.5 10 -15.5 q2.5 -10 -3 -19.5 q-5.5 -9.5 -16.5 -12.5 q-33 -7 -91 -31 q-58 -24 -80 -71 q-17 -48 38 -121 q69 -93 96 -166 q27 -73 13 -132 q-19 -86 -120 -142 q-10 -6 -20.5 -2.5 q-10.5 3.5 -16 13.5 q-5.5 10 -2.5 20.5 q3 10.5 13 16.5 q80 43 93 105 q21 92 -100 254 q-72 96 -46 172 q25 60 87 91.5 q62 31.5 122 45.5 q4 0 7 0 ZM271 696.79 l16 15 l244 -234 l-15 -16 l-245 235 Z"></path></symbol><symbol id="dodo-restore2" viewBox="0 -128 1024 1024"><path d="M835 103 q57 57 87 129.5 q30 72.5 30 153.5 q0 81 -30 153.5 q-30 72.5 -87.5 130 q-57.5 57.5 -130 87.5 q-72.5 30 -153.5 30 q-69 0 -133 -23 q-63 -22 -115 -63 q-10 -8 -11.5 -21 q-1.5 -13 7 -23.5 q8.5 -10.5 21 -12 q12.5 -1.5 23.5 6.5 q45 36 97.5 54 q52.5 18 110.5 18 q143 -3 238 -98.5 q95 -95.5 99 -238.5 q-3 -143 -98.5 -238 q-95.5 -95 -238.5 -99 q-142 3 -237 97 q-95 94 -100 235 l85 0 l-117 167 l-116 -167 l84 0 q1 -80 31.5 -151 q30.5 -71 87 -127.5 q56.5 -56.5 129 -87 q72.5 -30.5 153.5 -30.5 q81 0 153.5 30.5 q72.5 30.5 130.5 87.5 ZM504 139 q14 1 23 9.5 q9 8.5 9 22.5 l0 226 l112 90 q11 9 12 21.5 q1 12.5 -7 23.5 q-10 12 -25 12 q-11 0 -20 -7 l-124 -100 q-11 -9 -11 -24 l0 -242 q0 -14 9 -22.5 q9 -8.5 22 -9.5 Z"></path></symbol><symbol id="dodo-more" viewBox="0 -128 1024 1024"><path d="M195 769 q-5 5 -12.5 5.5 q-7.5 0.5 -12.5 -4.5 l-44 -41 q-5 -5 -5.5 -11.5 q-0.5 -6.5 4.5 -12.5 l254 -310 q8 -11 0 -22 l-254 -310 q-5 -6 -4.5 -12.5 q0.5 -6.5 5.5 -11.5 l44 -41 q5 -5 12.5 -4.5 q7.5 0.5 12.5 5.5 l320 373 q4 6 4 12 q0 6 -4 12 l-320 373 ZM557 -2 q5 -5 12.5 -4.5 q7.5 0.5 12.5 5.5 l320 374 q4 5 4 11 q0 6 -4 11 l-320 374 q-5 5 -12.5 5.5 q-7.5 0.5 -12.5 -4.5 l-44 -41 q-5 -5 -5.5 -11.5 q-0.5 -6.5 4.5 -12.5 l254 -310 q8 -11 0 -22 l-258 -315 q-5 -8 1 -15 l48 -45 Z"></path></symbol><symbol id="dodo-reverse" viewBox="0 -128 1024 1024"><path d="M884 825 q35 -1 56.5 -23.5 q21.5 -22.5 24.5 -57.5 l0 -720 q-1 -35 -23.5 -57.5 q-22.5 -22.5 -57.5 -23.5 l-720 0 q-34 1 -57 23.5 q-23 22.5 -24 57.5 l0 720 q1 35 24 57.5 q23 22.5 57 23.5 l720 0 ZM880 15 q3 0 6 2.5 q3 2.5 3 6.5 l0 720 q0 4 -3 6.5 q-3 2.5 -6 2.5 l-720 0 q-4 0 -6.5 -2.5 q-2.5 -2.5 -2.5 -6.5 l0 -720 q0 -4 5 -6.5 q5 -2.5 8 -2.5 l716 0 ZM524 127 q-110 3 -182 76 q-72 73 -74 181 q2 108 74 181 q72 73 182 75 l0 149 l-405 0 l0 -810 l405 0 l0 148 ZM524 127 q111 3 182.5 76 q71.5 73 74.5 181 q-3 108 -74.5 181 q-71.5 73 -182.5 75 l0 -513 Z"></path></symbol><symbol id="dodo-expand" viewBox="0 -128 1024 1024"><path d="M926 580 q19 -1 32.5 -17.5 q13.5 -16.5 13.5 -41.5 q0 -25 -13.5 -41.5 q-13.5 -16.5 -32.5 -17.5 l-534 0 q-20 1 -33 17.5 q-13 16.5 -13 41.5 q0 25 13 41.5 q13 16.5 33 17.5 l533 0 l1 0 ZM926 306 q19 -1 32.5 -17.5 q13.5 -16.5 13.5 -41.5 q0 -25 -13.5 -41.5 q-13.5 -16.5 -32.5 -17.5 l-534 0 q-20 1 -33 17.5 q-13 16.5 -13 41.5 q0 25 13 41.5 q13 16.5 33 17.5 l533 0 l1 0 ZM922 42 q22 -1 36.5 -19 q14.5 -18 13.5 -42.5 q-1 -24.5 -16 -40 q-15 -15.5 -37 -16.5 l-817 0 q-22 1 -36.5 19 q-14.5 18 -13.5 42.5 q1 24.5 16 40 q15 15.5 37 16.5 l817 0 ZM301 385 l-233 -195 l0 390 l233 -195 ZM102 727 q-22 0 -36.5 18 q-14.5 18 -13.5 42.5 q1 24.5 16 40 q15 15.5 37 16.5 l817 0 q22 -1 36.5 -19 q14.5 -18 13.5 -42 q-1 -24 -16 -40 q-15 -16 -37 -16 l-817 0 ZM102 727 l0 0 Z"></path></symbol><symbol id="dodo-down" viewBox="0 -128 1024 1024"><path d="M545 519 q15 -16 15 -36 q0 -20 -15 -36 l-288 -287 q-15 -15 -35 -15 q-20 0 -35.5 15 q-15.5 15 -15.5 35 q0 20 15 36 l288 288 q16 15 36 15 q20 0 35 -15 ZM474 519 q-14 -16 -14 -36 q0 -20 14 -36 l288 -287 q16 -15 36 -15 q20 0 35 15 q15 15 15 35 q0 20 -14 36 l-288 288 q-16 15 -36 15 q-20 0 -36 -15 Z"></path></symbol><symbol id="dodo-rotate180" viewBox="0 -128 1024 1024"><path d="M924 64 q15 0 25.5 10.5 q10.5 10.5 10.5 25.5 l0 288 q0 15 -10.5 25.5 q-10.5 10.5 -25.5 10.5 q-15 0 -25.5 -10.5 q-10.5 -10.5 -10.5 -25.5 l0 -50 q-6 -53 -27 -101 q-29 -68 -81.5 -120.5 q-52.5 -52.5 -120.5 -81.5 q-70 -30 -147 -30 q-77 0 -147 30 q-68 29 -120.5 81.5 q-52.5 52.5 -81.5 120.5 q-30 70 -30 147 q0 77 30 147 q29 68 81.5 120.5 q52.5 52.5 120.5 81.5 q70 30 147 30 q49 0 95.5 -12 q46.5 -12 88 -35.5 q41.5 -23.5 76 -55.5 q34.5 -32 59.5 -72 q8 -12 21.5 -15 q13.5 -3 26 5 q12.5 8 15.5 21.5 q3 13.5 -5 26.5 q-30 46 -70 84 q-40 38 -89.5 65.5 q-49.5 27.5 -104.5 42 q-55 14.5 -113 14.5 q-91 0 -174 -35 q-81 -34 -143 -96 q-62 -62 -96 -143 q-35 -83 -35 -174 q0 -91 35 -174 q34 -81 96 -143 q62 -62 143 -96 q83 -35 174 -35 q91 0 174 35 q81 34 143 96 q33 34 59 73 l0 -40 q0 -15 10.5 -25.5 q10.5 -10.5 25.5 -10.5 ZM236 329 q1 10 13 11 l23 0 q12 1 13 11 l0 127 q1 10 13 10 l15 0 q12 0 13 -10 l0 -188 q-1 -9 -13 -10 l-9 0 q-9 0 -12 7 q-8 19 -20 25 q-5 3 -8.5 4 q-3.5 1 -15.5 2.5 q-12 1.5 -12 10.5 ZM390 363 q7 7 18 11 q-18 8 -27.5 21.5 q-9.5 13.5 -9.5 31.5 q0 32 21.5 48.5 q21.5 16.5 51.5 16.5 q34 0 53 -19 q19 -19 19 -47 q0 -23 -14 -38 q-8 -8 -21 -14 q12 -7 17 -13 q10 -13 10 -33 q0 -20 -17 -36 q-17 -16 -47.5 -16 q-30.5 0 -47.5 16.5 q-17 16.5 -17 40.5 q0 19 11 30 ZM470 453 q-10 8 -25 8 q-19 0 -28 -9.5 q-9 -9.5 -9 -24.5 q0 -15 10 -24 q10 -9 26 -9 q16 0 26 9 q10 9 10 25.5 q0 16.5 -10 24.5 ZM464 349 q-7 7 -19.5 7 q-12.5 0 -20.5 -6 q-8 -6 -8 -16.5 q0 -10.5 6 -18 q6 -7.5 20.5 -7.5 q14.5 0 21.5 7.5 q7 7.5 7 17 q0 9.5 -7 16.5 ZM669 310 q-18 -34 -59 -34 q-45 0 -63 48 q-9 26 -9 61 q0 46 16 74 q18 33 56 33 q42 0 60 -40 q13 -28 13 -71 q0 -45 -14 -71 ZM636 437 q-10 15 -26 15 q-21 0 -30 -24 q-5 -16 -5 -42 q-1 -35 8 -52.5 q9 -17.5 29 -17.5 q20 0 27 18.5 q7 18.5 7 47.5 q0 41 -10 55 ZM788 289 q-13 -13 -31.5 -13 q-18.5 0 -31.5 13 q-13 13 -13 31.5 q0 18.5 12.5 31.5 q12.5 13 31 13 q18.5 0 31.5 -12.5 q13 -12.5 13 -31.5 q0 -19 -12 -32 ZM742 334 q-5 -5 -5.5 -13 q-0.5 -8 5.5 -14 q6 -6 14 -6 q8 0 14 6 q6 6 6 14 q0 8 -6 13.5 q-6 5.5 -14 5.5 q-8 0 -14 -6 Z"></path></symbol><symbol id="dodo-reset" viewBox="0 -128 1024 1024"><path d="M496 185 q12 0 20.5 8.5 q8.5 8.5 9.5 21.5 l0 158 l154 0 q12 0 20.5 8.5 q8.5 8.5 8.5 21 q0 12.5 -8.5 21 q-8.5 8.5 -20.5 9.5 l-183 0 q-12 -1 -20 -8 q-8 -7 -10 -18 q-1 -4 -1 -9 l0 -183 q0 -13 8.5 -21.5 q8.5 -8.5 21.5 -8.5 ZM857 238 q30 70 30 146 q0 76 -30 146 q-28 67 -80 119 q-52 52 -119 80 q-70 30 -146 30 q-76 0 -146 -30 q-67 -28 -119 -80 q-9 -9 -9 -21 q0 -12 9 -21 q9 -9 21 -9 q12 0 21 8 q46 45 102.5 69 q56.5 24 120.5 24 q64 0 120.5 -24 q56.5 -24 101.5 -69 q45 -45 69 -102 q24 -57 24 -120.5 q0 -63.5 -24 -120.5 q-24 -57 -68.5 -101.5 q-44.5 -44.5 -101.5 -68.5 q-57 -24 -121 -24 q-57 0 -108.5 19.5 q-51.5 19.5 -93.5 54.5 q-59 50 -88 120 l32 -18 q12 -6 23.5 -2.5 q11.5 3.5 17.5 15 q6 11.5 2.5 23 q-3.5 11.5 -14.5 17.5 l-96 51 q-6 4 -14 4 q-14 0 -24 -13 l-53 -98 q-6 -12 -2.5 -23.5 q3.5 -11.5 14.5 -17.5 q11 -6 22.5 -2.5 q11.5 3.5 18.5 14.5 l16 30 q17 -42 44 -79 q27 -37 62 -67 q50 -42 111.5 -65 q61.5 -23 129.5 -23 q76 0 146 30 q67 28 119 80 q52 52 80 119 Z"></path></symbol><symbol id="dodo-chair" viewBox="0 -128 1024 1024"><path d="M121 610 q-8 -8 -8.5 -18 q-0.5 -10 6.5 -19 l302 -374 q-1 -9 -1 -17 q2 -104 71.5 -173.5 q69.5 -69.5 173.5 -72.5 q104 3 173 72.5 q69 69.5 72 173.5 q-3 104 -72 173 q-69 69 -173 72 q-9 0 -17 -1 l-375 302 q-8 6 -18 6 q-10 0 -18 -8 l-22 -22 q0 13 5 26 q10 29 49 45 q23 8 56.5 -3.5 q33.5 -11.5 74.5 -31.5 q76 -41 174 -58.5 q98 -17.5 209 62.5 q9 7 10.5 18 q1.5 11 -5.5 20 q-7 9 -18 10.5 q-11 1.5 -20 -5.5 q-90 -66 -172 -51 q-82 15 -155 53 q-35 18 -69 30.5 q-34 12.5 -65 13.5 q-21 0 -41 -8 q-60 -25 -79 -76 q-9 -27 -7.5 -51 q1.5 -24 7.5 -40 l-48 -48 ZM364 448 q-8 8 -8.5 19 q-0.5 11 8 19.5 q8.5 8.5 19 8.5 q10.5 0 19.5 -8 l59 -60 q8 -8 8 -19 q0 -11 -8 -19 q-8 -8 -19 -8 q-11 0 -19 8 l-59 59 Z"></path></symbol><symbol id="dodo-move" viewBox="0 -128 1024 1024"><path d="M475 385 l73 0 l0 -364 l-73 0 l0 364 ZM657 130 l-145 -219 l-146 219 l291 0 ZM512 422 l364 0 l0 -73 l-364 0 l0 73 ZM771 531 l219 -145 l-219 -146 l0 291 ZM475 748 l73 0 l0 -364 l-73 0 l0 364 ZM366 639 l146 219 l145 -219 l-291 0 ZM147 422 l365 0 l0 -73 l-365 0 l0 73 ZM257 240 l-219 146 l219 145 l0 -291 Z"></path></symbol><symbol id="dodo-page" viewBox="0 -128 1024 1024"><path d="M371 76 q16 -13 27 -8 q11 5 12 26 l0 580 q-1 21 -12 26 q-11 5 -27 -8 l-317 -275 q-16 -14 -16 -33 q0 -19 16 -33 l317 -275 ZM653 692 q-16 13 -27 8 q-11 -5 -12 -26 l0 -580 q1 -21 12 -26 q11 -5 27 8 l317 275 q16 14 16 33 q0 19 -16 33 l-317 275 Z"></path></symbol><symbol id="dodo-label" viewBox="0 -128 1024 1024"><path d="M512 383.78 l-113 0 l0 290 l-176 0 l0 -579 l289 0 l0 289 ZM801 383.78 l-247 0 l0 -289 l247 0 l0 289 ZM773 122.78 l-191 0 l0 233 l191 0 l0 -233 ZM442 673.78 l360 0 l0 -248 l-360 0 l0 248 ZM132 -66.22 q26 0 45 15.5 q19 15.5 24 40.5 l8 0 l0 28 l-8 0 q-4 22 -19.5 36.5 q-15.5 14.5 -36.5 18.5 l0 9 l-29 0 l0 -9 q-23 -6 -38.5 -24.5 q-15.5 -18.5 -15.5 -44.5 q1 -30 20.5 -49.5 q19.5 -19.5 49.5 -20.5 ZM132 45.78 q18 0 30 -12 q12 -12 12 -30 q0 -18 -12 -30 q-12 -12 -30 -12 q-18 0 -30 12 q-12 12 -12 30 q0 18 12 30 q12 12 30 12 ZM876 72.78 q-21 -5 -35 -19.5 q-14 -14.5 -18 -34.5 l-11 0 l0 -29 l11 0 q6 -25 24.5 -40.5 q18.5 -15.5 44.5 -15.5 q30 1 49.5 20.5 q19.5 19.5 19.5 49.5 q0 27 -16 46 q-16 19 -42 23 l0 9 l-27 0 l0 -9 ZM892 -38.22 q-18 1 -30 13 q-12 12 -12 30 q0 18 12 29.5 q12 11.5 30 11.5 q18 0 30 -11.5 q12 -11.5 12 -29.5 q0 -18 -12 -30 q-12 -12 -30 -13 ZM144 693.78 q22 5 37 19.5 q15 14.5 20 36.5 l7 0 l0 28 l-7 0 q-6 25 -24.5 40.5 q-18.5 15.5 -44.5 15.5 q-30 -1 -49.5 -20.5 q-19.5 -19.5 -20.5 -49.5 q0 -26 15 -44.5 q15 -18.5 39 -24.5 l0 -10 l28 0 l0 9 ZM132 805.78 q18 -1 30 -13 q12 -12 12 -30 q0 -18 -12 -30 q-12 -12 -30 -12 q-18 0 -30 12 q-12 12 -12 30 q0 18 12 30 q12 12 30 13 ZM904 693.78 q25 5 41.5 24 q16.5 19 16.5 45 q0 26 -15 45 q-15 19 -40 25 q-30 5 -53.5 -10.5 q-23.5 -15.5 -30.5 -44.5 l-11 0 l0 -28 l11 0 q5 -21 19 -35.5 q14 -14.5 34 -19.5 l0 -10 l28 0 l0 9 ZM892 805.78 q17 -1 29 -13 q12 -12 12.5 -30 q0.5 -18 -11.5 -30 q-12 -12 -30 -12 q-18 0 -30 12 q-12 12 -12 30 q0 18 12 30 q12 12 30 13 ZM237 18.78 l29 0 l0 -29 l-29 0 l0 29 ZM352 18.78 l29 0 l0 -29 l-29 0 l0 29 ZM295 18.78 l28 0 l0 -29 l-28 0 l0 29 ZM409 18.78 l29 0 l0 -29 l-29 0 l0 29 ZM696 18.78 l29 0 l0 -29 l-29 0 l0 29 ZM524 18.78 l29 0 l0 -29 l-29 0 l0 29 ZM754 18.78 l29 0 l0 -29 l-29 0 l0 29 ZM639 18.78 l29 0 l0 -29 l-29 0 l0 29 ZM582 18.78 l29 0 l0 -29 l-29 0 l0 29 ZM467 18.78 l29 0 l0 -29 l-29 0 l0 29 ZM467 776.78 l29 0 l0 -28 l-29 0 l0 28 ZM352 776.78 l29 0 l0 -28 l-29 0 l0 28 ZM409 776.78 l29 0 l0 -28 l-29 0 l0 28 ZM237 776.78 l29 0 l0 -28 l-29 0 l0 28 ZM295 776.78 l28 0 l0 -28 l-28 0 l0 28 ZM524 776.78 l29 0 l0 -28 l-29 0 l0 28 ZM696 776.78 l29 0 l0 -28 l-29 0 l0 28 ZM639 776.78 l29 0 l0 -28 l-29 0 l0 28 ZM582 776.78 l29 0 l0 -28 l-29 0 l0 28 ZM754 776.78 l29 0 l0 -28 l-29 0 l0 28 ZM876 369.78 l27 0 l0 -29 l-27 0 l0 29 ZM876 139.78 l27 0 l0 -29 l-27 0 l0 29 ZM876 426.78 l27 0 l0 -29 l-27 0 l0 29 ZM876 483.78 l27 0 l0 -28 l-27 0 l0 28 ZM876 254.78 l27 0 l0 -29 l-27 0 l0 29 ZM876 311.78 l27 0 l0 -28 l-27 0 l0 28 ZM876 197.78 l27 0 l0 -29 l-27 0 l0 29 ZM876 541.78 l27 0 l0 -29 l-27 0 l0 29 ZM876 599.78 l27 0 l0 -29 l-27 0 l0 29 ZM876 656.78 l27 0 l0 -29 l-27 0 l0 29 ZM116 311.78 l29 0 l0 -28 l-29 0 l0 28 ZM116 254.78 l29 0 l0 -29 l-29 0 l0 29 ZM116 656.78 l29 0 l0 -29 l-29 0 l0 29 ZM116 139.78 l29 0 l0 -29 l-29 0 l0 29 ZM116 599.78 l29 0 l0 -29 l-29 0 l0 29 ZM116 483.78 l29 0 l0 -28 l-29 0 l0 28 ZM116 541.78 l29 0 l0 -29 l-29 0 l0 29 ZM116 426.78 l29 0 l0 -29 l-29 0 l0 29 ZM116 197.78 l29 0 l0 -29 l-29 0 l0 29 ZM116 369.78 l29 0 l0 -29 l-29 0 l0 29 Z"></path></symbol><symbol id="dodo-film-3d" viewBox="0 -128 1024 1024"><path d="M948 653 q16 -1 17 -17 l0 -655 q-1 -16 -17 -17 l-923 0 q-16 1 -17 17 l0 655 q1 16 17 17 l923 0 ZM999 653 q16 -1 17 -17 l0 -655 q-1 -16 -17 -17 l-923 0 q-16 1 -17 17 l0 655 q1 16 17 17 l923 0 ZM965 15 l-428 0 l0 587 l428 0 l0 -587 ZM965 15 l-856 0 l0 587 l856 0 l0 -587 ZM420 753 l151 0 l0 -100 l-151 0 l0 100 ZM621 804 q11 -1 18 -8 q7 -7 7 -17.5 q0 -10.5 -7 -17.5 q-7 -7 -18 -8 l-252 0 q-10 1 -17.5 8 q-7.5 7 -7.5 17.5 q0 10.5 7.5 17.5 q7.5 7 17.5 8 l252 0 ZM655 804 q10 -1 17.5 -8 q7.5 -7 7.5 -17.5 q0 -10.5 -7.5 -17.5 q-7.5 -7 -17.5 -8 l-252 0 q-11 1 -18 8 q-7 7 -7 17.5 q0 10.5 7 17.5 q7 7 18 8 l252 0 ZM453 753 l151 0 l0 -100 l-151 0 l0 100 ZM705 443 q57 -2 95 -40 q38 -38 39 -95 q-1 -56 -39 -94 q-38 -38 -95 -40 l-109 0 q-10 0 -17.5 7.5 q-7.5 7.5 -7.5 17.5 l0 219 q0 10 7.5 17 q7.5 7 17.5 8 l109 0 ZM621 225 l84 0 q36 0 59.5 23.5 q23.5 23.5 23.5 60 q0 36.5 -23.5 60 q-23.5 23.5 -59.5 23.5 l-84 0 l0 -167 ZM406 334 q35 -1 57.5 -23 q22.5 -22 22.5 -56.5 q0 -34.5 -23 -57 q-23 -22.5 -57 -23.5 l-147 0 q-11 0 -18 7.5 q-7 7.5 -7 18 q0 10.5 7 17.5 q7 7 18 8 l147 0 q13 0 21.5 7.5 q8.5 7.5 8.5 20.5 q0 13 -8.5 21.5 q-8.5 8.5 -21.5 8.5 l-147 0 q-11 1 -18 8 q-7 7 -7 17.5 q0 10.5 7 17.5 q7 7 18 8 l147 0 ZM406 443 q35 -1 57.5 -23.5 q22.5 -22.5 22.5 -57.5 q0 -35 -23 -57.5 q-23 -22.5 -57 -22.5 l-147 0 q-11 0 -18 7 q-7 7 -7 17.5 q0 10.5 7 18 q7 7.5 18 7.5 l147 0 q13 0 21.5 8.5 q8.5 8.5 8.5 21.5 q0 13 -8.5 21.5 q-8.5 8.5 -21.5 8.5 l-147 0 q-11 1 -18 8 q-7 7 -7 17.5 q0 10.5 7 17.5 q7 7 18 8 l147 0 Z"></path></symbol><symbol id="hd-film" viewBox="0 -128 1024 1024"><path d="M948 653 q16 -1 17 -17 l0 -655 q-1 -16 -17 -17 l-923 0 q-16 1 -17 17 l0 655 q1 16 17 17 l923 0 ZM999 653 q16 -1 17 -17 l0 -655 q-1 -16 -17 -17 l-923 0 q-16 1 -17 17 l0 655 q1 16 17 17 l923 0 ZM965 15 l-856 0 l0 587 l856 0 l0 -587 ZM420 753 l151 0 l0 -100 l-151 0 l0 100 ZM621 804 q11 -1 18 -8 q7 -7 7 -17.5 q0 -10.5 -7 -17.5 q-7 -7 -18 -8 l-252 0 q-10 1 -17.5 8 q-7.5 7 -7.5 17.5 q0 10.5 7.5 17.5 q7.5 7 17.5 8 l252 0 ZM655 804 q10 -1 17.5 -8 q7.5 -7 7.5 -17.5 q0 -10.5 -7.5 -17.5 q-7.5 -7 -17.5 -8 l-252 0 q-11 1 -18 8 q-7 7 -7 17.5 q0 10.5 7 17.5 q7 7 18 8 l252 0 ZM453 753 l151 0 l0 -100 l-151 0 l0 100 ZM462 443 q10 -1 17.5 -8 q7.5 -7 7.5 -17 l0 -219 q0 -10 -7.5 -17.5 q-7.5 -7.5 -18 -7.5 q-10.5 0 -17.5 7.5 q-7 7.5 -8 17.5 l0 219 q1 10 8 17 q7 7 18 8 ZM462 334 q10 -1 17.5 -8 q7.5 -7 7.5 -17.5 q0 -10.5 -7.5 -17.5 q-7.5 -7 -17.5 -8 l-202 0 q-10 1 -17.5 8 q-7.5 7 -7.5 17.5 q0 10.5 7.5 17.5 q7.5 7 17.5 8 l202 0 ZM705 443 q57 -2 95 -40 q38 -38 39 -95 q-1 -56 -39 -94 q-38 -38 -95 -40 l-109 0 q-10 0 -17.5 7.5 q-7.5 7.5 -7.5 17.5 l0 219 q0 10 7.5 17 q7.5 7 17.5 8 l109 0 ZM621 225 l84 0 q36 0 59.5 23.5 q23.5 23.5 23.5 60 q0 36.5 -23.5 60 q-23.5 23.5 -59.5 23.5 l-84 0 l0 -167 ZM260 443 q11 -1 18 -8 q7 -7 7 -17 l0 -219 q0 -10 -7 -17.5 q-7 -7.5 -17.5 -7.5 q-10.5 0 -18 7.5 q-7.5 7.5 -7.5 17.5 l0 219 q0 10 7.5 17 q7.5 7 17.5 8 Z"></path></symbol><symbol id="dodo-snap" viewBox="0 -128 1024 1024"><path d="M1140 93 l0 713 l-1029 0 l0 -713 l224 0 l40 -131 l504 0 l39 131 l222 0 ZM626 705 q108 -3 180 -75 q72 -72 75 -181 q0 -79 -42.5 -142 q-42.5 -63 -115 -93.5 q-72.5 -30.5 -147 -15.5 q-74.5 15 -130.5 70.5 q-56 55.5 -71 130 q-15 74.5 15 147.5 q30 73 93.5 115.5 q63.5 42.5 142.5 43.5 ZM604 278 q73 2 121.5 50.5 q48.5 48.5 50.5 120.5 q-2 73 -50.5 121.5 q-48.5 48.5 -121.5 50.5 q-73 -2 -121.5 -50.5 q-48.5 -48.5 -49.5 -121.5 q1 -73 49.5 -121 q48.5 -48 121.5 -50 Z"></path></symbol><symbol id="dodo-clear" viewBox="0 -128 1024 1024"><path d="M859 388 q43 -1 72.5 -30.5 q29.5 -29.5 30.5 -73.5 q-1 -44 -30.5 -73.5 q-29.5 -29.5 -72.5 -30.5 l-216 0 l0 -129 q-1 -36 -25.5 -60.5 q-24.5 -24.5 -60.5 -25.5 l-99 0 q-36 1 -60.5 25.5 q-24.5 24.5 -24.5 60.5 l0 129 l-207 0 q-44 1 -73.5 30.5 q-29.5 29.5 -30.5 73.5 q1 44 30.5 73.5 q29.5 29.5 73.5 30.5 l693 0 ZM395 243 q17 0 28.5 -11.5 q11.5 -11.5 12.5 -28.5 l0 -152 q0 -10 6 -16.5 q6 -6.5 16 -6.5 l99 0 q10 0 16 6.5 q6 6.5 7 16.5 l0 152 q0 17 11.5 28.5 q11.5 11.5 28.5 11.5 l239 0 q17 1 28.5 12.5 q11.5 11.5 11.5 28.5 q0 17 -11.5 29 q-11.5 12 -28.5 12 l-693 0 q-18 0 -29.5 -12 q-11.5 -12 -11.5 -29 q0 -17 11.5 -28.5 q11.5 -11.5 29.5 -12.5 l229 0 ZM769 803 q28 -1 47 -20 q19 -19 20 -48 l0 -409 l-657 0 l0 409 q1 29 20 48 q19 19 48 20 l522 0 ZM773 389 l0 346 q-1 4 -4 5 l-522 0 q-4 -1 -5 -5 l0 -346 l531 0 ZM368 803 q13 0 22 -9 q9 -9 10 -23 l0 -184 q-1 -14 -10 -22.5 q-9 -8.5 -22 -8.5 q-13 0 -22 8.5 q-9 8.5 -9 22.5 l0 184 q0 14 9 23 q9 9 22 9 ZM508 803 q13 0 22 -9 q9 -9 9 -23 l0 -184 q0 -14 -9 -22.5 q-9 -8.5 -22.5 -8.5 q-13.5 0 -22.5 8.5 q-9 8.5 -9 22.5 l0 184 q0 14 9 23 q9 9 23 9 ZM647 803 q13 0 22 -9 q9 -9 10 -23 l0 -184 q-1 -14 -10 -22.5 q-9 -8.5 -22 -8.5 q-13 0 -22 8.5 q-9 8.5 -9 22.5 l0 184 q0 14 9 23 q9 9 22 9 Z"></path></symbol><symbol id="dodo-copy" viewBox="0 -128 1024 1024"><path d="M858 643 q31 0 51.5 -20.5 q20.5 -20.5 21.5 -51.5 l0 -565 q-1 -31 -21.5 -51.5 q-20.5 -20.5 -51.5 -21.5 l-492 0 q-30 1 -51 22 q-21 21 -21 51 l0 37 l446 0 q30 0 51 21 q21 21 21 51 l0 528 l46 0 ZM730 197 q0 -30 -21 -51 q-21 -21 -51 -21 l-492 0 q-31 0 -51.5 20.5 q-20.5 20.5 -21.5 51.5 l0 565 q1 31 21.5 51.5 q20.5 20.5 51.5 21.5 l492 0 q30 -1 51 -22 q21 -21 21 -51 l0 -565 ZM203 589 q0 -8 5 -13 q5 -5 13 -5 l309 0 q8 0 13 5 q5 5 5 13 l0 36 q0 8 -5 13 q-5 5 -13 5 l-309 0 q-8 0 -13 -5 q-5 -5 -5 -13 l0 -36 ZM394 325 q-1 8 -6 13 q-5 5 -13 5 l-154 0 q-8 0 -13 -5 q-5 -5 -5 -13 l0 -37 q0 -7 5 -12.5 q5 -5.5 13 -5.5 l154 0 q8 0 13 5.5 q5 5.5 6 12.5 l0 37 ZM621 480 q0 7 -5 12.5 q-5 5.5 -13 5.5 l-382 0 q-8 0 -13 -5.5 q-5 -5.5 -5 -12.5 l0 -37 q0 -8 5 -13 q5 -5 13 -5 l382 0 q8 0 13 5 q5 5 5 13 l0 37 Z"></path></symbol><symbol id="dodo-2d" viewBox="0 -128 1024 1024"><path d="M449 123 q8 3 13 9.5 q5 6.5 6 15.5 l0 234 q-1 11 -8.5 18.5 q-7.5 7.5 -18.5 7.5 l-207 0 l0 181 l207 0 q11 0 18.5 7.5 q7.5 7.5 7.5 19 q0 11.5 -7.5 18.5 q-7.5 7 -18.5 8 l-233 0 q-12 -1 -19 -8 q-7 -7 -8 -19 l0 -233 q0 -9 5.5 -16 q5.5 -7 13.5 -9 q4 -2 8 -2 l207 0 l0 -181 l-207 0 q-12 0 -19 -7.5 q-7 -7.5 -7 -18.5 q0 -11 7 -18.5 q7 -7.5 19 -7.5 l233 0 q4 0 8 1 ZM798 202 q23 36 35 81.5 q12 45.5 12 95.5 q0 50 -12 95.5 q-12 45.5 -35 82 q-23 36.5 -55 57.5 q-32 21 -69 22 l-147 0 q-11 0 -18.5 -7.5 q-7.5 -7.5 -7.5 -18.5 l0 -462 q0 -11 7.5 -18.5 q7.5 -7.5 18.5 -7.5 l147 0 q37 1 69 22 q32 21 55 58 ZM753 528 q19 -30 29 -68 q10 -38 10 -81 q0 -43 -10 -81 q-10 -38 -29 -68 q-17 -27 -38 -41 q-21 -14 -43 -15 l-119 0 l0 409 l119 0 q22 0 43 -14 q21 -14 38 -41 Z"></path></symbol><symbol id="dodo-redo" viewBox="0 -128 1024 1024"><path d="M458 818.51 q-25 -2 -48.5 -12 q-23.5 -10 -43.5 -29 l-263 -254 l205 -212 l368 355 l-103 107 q-19 20 -43.5 31.5 q-24.5 11.5 -51.5 13.5 l-20 0 ZM1083 351.51 q21 -22 20 -52.5 q-1 -30.5 -22 -51.5 l-368 -355 q-22 -21 -52 -20.5 q-30 0.5 -52 21.5 l-558 579 q-21 23 -20.5 52 q0.5 29 22.5 52 l263 253 q25 25 56.5 40 q31.5 15 66.5 20 l0 2 l17 0 q12 0 24 0 l471 0 l0 -73 l-319 0 l451 -467 ZM662 -55.49 l368 356 l-303 314 l-368 -356 l303 -314 Z"></path></symbol><symbol id="dodo-del" viewBox="0 -128 1024 1024"><path d="M764 120 l-504 0 l0 583 q0 23 15.5 38.5 q15.5 15.5 38.5 15.5 l396 0 q23 0 38.5 -15.5 q15.5 -15.5 15.5 -38.5 l0 -583 ZM369 55 l286 0 l0 -33 q0 -10 -11 -11 l-263 0 q-11 1 -12 11 l0 33 ZM929 55 q14 0 23.5 9 q9.5 9 9.5 23 q0 14 -9.5 23.5 q-9.5 9.5 -23.5 9.5 l-98 0 l0 583 q-2 51 -36 85 q-34 34 -85 35 l-396 0 q-51 -1 -85 -35 q-34 -34 -36 -85 l0 -582 l-98 0 q-14 0 -23.5 -9.5 q-9.5 -9.5 -9.5 -23.5 q0 -14 9.5 -23.5 q9.5 -9.5 23.5 -9.5 l209 0 l0 -33 q1 -33 22.5 -54.5 q21.5 -21.5 54.5 -22.5 l263 0 q33 1 54.5 22.5 q21.5 21.5 22.5 54.5 l0 33 l208 0 ZM512 658 q-14 0 -23.5 -9.5 q-9.5 -9.5 -9.5 -23.5 l0 -351 q0 -14 9.5 -23.5 q9.5 -9.5 23.5 -9.5 q14 0 23.5 9.5 q9.5 9.5 9.5 23.5 l0 351 q0 14 -9.5 23.5 q-9.5 9.5 -23.5 9.5 ZM358 658 q-14 0 -23 -9.5 q-9 -9.5 -10 -23.5 l0 -351 q0 -14 9.5 -23.5 q9.5 -9.5 23.5 -9.5 q14 0 23.5 9.5 q9.5 9.5 9.5 23.5 l0 351 q0 14 -9.5 23.5 q-9.5 9.5 -23.5 9.5 ZM666 658 q-14 0 -23.5 -9.5 q-9.5 -9.5 -9.5 -23.5 l0 -351 q0 -14 9.5 -23.5 q9.5 -9.5 23.5 -9.5 q14 0 23.5 9.5 q9.5 9.5 9.5 23.5 l0 351 q0 14 -9.5 23.5 q-9.5 9.5 -23.5 9.5 Z"></path></symbol><symbol id="dodo-users" viewBox="0 -128 1024 1024"><path d="M384 448 q82 -2 136 -56 q54 -54 56 -136 l0 -224 q0 -14 -9 -23 q-9 -9 -23 -9 l-320 0 q-14 0 -23 9 q-9 9 -9 23 l0 224 q2 82 56 136 q54 54 136 56 ZM512 64 l0 192 q0 26 -9.5 49 q-9.5 23 -28 41.5 q-18.5 18.5 -41.5 28 q-23 9.5 -49 9.5 q-54 -1 -90.5 -37.5 q-36.5 -36.5 -37.5 -90.5 l0 -192 l256 0 ZM640 448 q82 -2 136 -56 q54 -54 56 -136 l0 -224 q0 -14 -9 -23 q-9 -9 -23 -9 l-160 0 l0 64 l128 0 l0 192 q-1 54 -37.5 90.5 q-36.5 36.5 -90.5 37.5 l0 64 ZM640 32 l0 0 ZM608 32 q0 -14 9 -23 q9 -9 23 -9 q14 0 23 9 q9 9 9 23 q0 14 -9 23 q-9 9 -23 9 q-14 0 -23 -9 q-9 -9 -9 -23 ZM640 416 l0 0 ZM608 416 q0 -14 9 -23 q9 -9 23 -9 q14 0 23 9 q9 9 9 23 q0 14 -9 23 q-9 9 -23 9 q-14 0 -23 -9 q-9 -9 -9 -23 ZM640 768 q27 -1 45 -19 q18 -18 19 -45 l0 -64 q-1 -54 -37.5 -90.5 q-36.5 -36.5 -90.5 -37.5 l-384 0 q-54 1 -90.5 37.5 q-36.5 36.5 -37.5 90.5 l0 64 q1 27 19 45 q18 18 45 19 l512 0 ZM576 576 q27 1 45 19 q18 18 19 45 l0 64 l-512 0 l0 -64 q1 -27 19 -45 q18 -18 45 -19 l384 0 ZM896 768 q27 -1 45 -19 q18 -18 19 -45 l0 -64 q-1 -54 -37.5 -90.5 q-36.5 -36.5 -90.5 -37.5 l-64 0 l0 64 l64 0 q27 1 45 19 q18 18 19 45 l0 64 l-128 0 l0 64 l128 0 ZM768 544 l0 0 ZM736 544 q0 -14 9 -23 q9 -9 23 -9 q14 0 23 9 q9 9 9 23 q0 14 -9 23 q-9 9 -23 9 q-14 0 -23 -9 q-9 -9 -9 -23 ZM768 736 l0 0 ZM736 736 q0 -14 9 -23 q9 -9 23 -9 q14 0 23 9 q9 9 9 23 q0 14 -9 23 q-9 9 -23 9 q-14 0 -23 -9 q-9 -9 -9 -23 Z"></path></symbol><symbol id="dodo-linetool" viewBox="0 -128 1024 1024"><path d="M188 691 q16 1 17 17 l0 171 q-1 16 -17 17 l-171 0 q-16 -1 -17 -17 l0 -171 q1 -16 17 -17 l171 0 ZM1007 -128 q16 1 17 17 l0 171 q-1 16 -17 17 l-171 0 q-16 -1 -17 -17 l0 -171 q1 -16 17 -17 l171 0 ZM194 725 q4 -1 4 -3 l649 -649 q5 -5 5 -11.5 q0 -6.5 -5.5 -12 q-5.5 -5.5 -12 -5.5 q-6.5 0 -11.5 5 l-649 649 q-5 5 -5 12 q0 7 5 12 q3 2 7 2.5 q4 0.5 7 0.5 l6 0 Z"></path></symbol><symbol id="dodo-fusion" viewBox="0 -128 1024 1024"><path d="M787 109 q107 49 171 147 q64 98 66 224 q-4 177 -121.5 294.5 q-117.5 117.5 -294.5 121.5 q-126 -2 -224 -66 q-98 -64 -147 -171 q-107 -49 -171 -147 q-64 -98 -66 -224 q4 -177 121.5 -294.5 q117.5 -117.5 294.5 -121.5 q126 2 224 66 q98 64 147 171 ZM77 288 q0 77 31.5 142.5 q31.5 65.5 89.5 113.5 q-4 -15 -5 -32 q-1 -17 -1 -32 q4 -177 121.5 -294.5 q117.5 -117.5 294.5 -121.5 q15 0 32 1 q17 1 32 5 q-48 -58 -113.5 -89.5 q-65.5 -31.5 -142.5 -31.5 q-143 4 -239 100 q-96 96 -100 239 ZM608 819 q143 -4 239 -100 q96 -96 100 -239 q-1 -77 -34.5 -142.5 q-33.5 -65.5 -86.5 -113.5 q4 15 5 32 q1 17 1 32 q-4 177 -121.5 294.5 q-117.5 117.5 -294.5 121.5 q-15 0 -32 -1 q-17 -1 -32 -5 q48 58 113.5 89.5 q65.5 31.5 142.5 31.5 Z"></path></symbol><symbol id="dodo-fast" viewBox="0 -128 1024 1024"><path d="M704 348 q4 8 -2 16 l-262 306 q-5 5 -11 5 q-4 0 -7 -2 q-10 -6 -7 -17 l67 -227 l-148 0 q-10 0 -14 -8.5 q-4 -8.5 2 -16.5 l262 -306 q8 -8 18 -2.5 q10 5.5 7 16.5 l-67 227 l148 0 q10 0 14 9 ZM512 894 q217 -5 361 -149.5 q144 -144.5 149 -360.5 q-5 -216 -149 -360.5 q-144 -144.5 -361 -149.5 q-217 5 -361 149.5 q-144 144.5 -149 360.5 q5 216 149 360.5 q144 144.5 361 149.5 ZM512 -66 q191 5 318 132 q127 127 132 318 q-5 191 -132 318 q-127 127 -318 132 q-191 -5 -318 -132 q-127 -127 -132 -318 q5 -191 132 -318 q127 -127 318 -132 Z"></path></symbol><symbol id="dodo-flip-h" viewBox="0 -128 1024 1024"><path d="M134 695 q-22 18 -45 6.5 q-23 -11.5 -25 -42.5 l0 -548 q2 -31 25 -42.5 q23 -11.5 45 6.5 l298 274 q16 15 16 36 q0 21 -16 36 l-164 151 l-134 123 ZM890 74 q22 -18 45 -6.5 q23 11.5 25 42.5 l0 548 q-2 31 -25 42.5 q-23 11.5 -45 -6.5 l-298 -274 q-16 -15 -16 -36 q0 -21 16 -36 l164 -151 l134 -123 ZM890 169 l-234 215 l234 215 l0 -215 l0 -215 ZM512 -64 q19 1 29 18 q10 17 0 34 q-10 17 -29.5 17 q-19.5 0 -29.5 -17 q-10 -17 0 -34 q10 -17 30 -18 ZM547 109 q-1 15 -11 24.5 q-10 9.5 -24.5 9.5 q-14.5 0 -24.5 -9.5 q-10 -9.5 -10 -24.5 q0 -15 10 -25 q10 -10 24.5 -10 q14.5 0 24.5 10 q10 10 11 25 ZM547 246 q-1 15 -11 25 q-10 10 -24.5 10 q-14.5 0 -24.5 -10 q-10 -10 -10 -25 q0 -15 10 -24.5 q10 -9.5 24.5 -9.5 q14.5 0 24.5 9.5 q10 9.5 11 24.5 ZM547 383 q0 15 -10 25 q-10 10 -24.5 10 q-14.5 0 -24.5 -10 q-10 -10 -10 -25 q0 -15 10 -25 q10 -10 24.5 -10 q14.5 0 24.5 10 q10 10 10 25 ZM547 659 q-1 15 -11 25 q-10 10 -24.5 10 q-14.5 0 -24.5 -10 q-10 -10 -10 -25 q0 -15 10 -24.5 q10 -9.5 24.5 -9.5 q14.5 0 24.5 9.5 q10 9.5 11 24.5 ZM547 522 q-1 15 -11 24.5 q-10 9.5 -24.5 9.5 q-14.5 0 -24.5 -9.5 q-10 -9.5 -10 -24.5 q0 -15 10 -25 q10 -10 24.5 -10 q14.5 0 24.5 10 q10 10 11 25 ZM547 797 q-1 15 -11 25 q-10 10 -24.5 10 q-14.5 0 -24.5 -10 q-10 -10 -10 -25 q0 -15 10 -25 q10 -10 24.5 -10 q14.5 0 24.5 10 q10 10 11 25 Z"></path></symbol><symbol id="dodo-setting" viewBox="0 -128 1024 1024"><path d="M881 384 q1 40 22.5 70.5 q21.5 30.5 56.5 43.5 q-17 66 -50 122 q-35 -15 -71.5 -9 q-36.5 6 -65 34.5 q-28.5 28.5 -34.5 65 q-6 36.5 9 71.5 q-56 33 -121 50 q-14 -35 -44.5 -56.5 q-30.5 -21.5 -70.5 -21.5 q-40 0 -70.5 21.5 q-30.5 21.5 -43.5 56.5 q-65 -17 -122 -50 q15 -35 9 -71.5 q-6 -36.5 -34.5 -65 q-28.5 -28.5 -65 -34.5 q-36.5 -6 -71.5 9 q-33 -57 -50 -122 q35 -13 56.5 -43.5 q21.5 -30.5 21.5 -70.5 q0 -40 -21.5 -70.5 q-21.5 -30.5 -56.5 -44.5 q17 -65 50 -121 q35 15 71.5 9 q36.5 -6 65 -34.5 q28.5 -28.5 34.5 -65 q6 -36.5 -9 -71.5 q57 -33 122 -50 q13 35 43.5 56.5 q30.5 21.5 70.5 21.5 q40 0 70.5 -21.5 q30.5 -21.5 44.5 -56.5 q64 17 121 50 q-15 35 -9 71.5 q6 36.5 34.5 65 q28.5 28.5 65 34.5 q36.5 6 71.5 -9 q33 56 50 121 q-35 14 -56.5 44.5 q-21.5 30.5 -22.5 70.5 ZM512 507 q52 -1 87 -36 q35 -35 36 -87 q-1 -52 -36 -87 q-35 -35 -87 -36 q-52 1 -87 36 q-35 35 -36 87 q1 52 36 87 q35 35 87 36 Z"></path></symbol><symbol id="dodo-rotate270" viewBox="0 -128 1024 1024"><path d="M926 63 q15 0 25.5 10 q10.5 10 10.5 26 l0 289 q0 15 -10.5 25.5 q-10.5 10.5 -25.5 10.5 q-15 0 -25.5 -10.5 q-10.5 -10.5 -10.5 -25.5 l0 -50 q-7 -53 -27 -102 q-29 -68 -82 -121 q-53 -53 -121 -82 q-71 -29 -148 -29 q-77 0 -148 29 q-68 29 -121 82 q-53 53 -82 121 q-29 71 -29 148 q0 77 29 148 q29 68 82 121 q53 53 121 82 q71 29 148 29 q49 0 96 -12 q47 -12 89 -36 q84 -46 136 -127 q8 -12 21.5 -15 q13.5 -3 26 5 q12.5 8 15.5 21.5 q3 13.5 -5 26.5 q-30 47 -70.5 85 q-40.5 38 -90 65.5 q-49.5 27.5 -105 42 q-55.5 14.5 -113.5 14.5 q-92 0 -175 -35 q-81 -35 -143 -97 q-62 -62 -97 -143 q-35 -83 -35 -175 q0 -92 35 -175 q35 -81 97 -143 q62 -62 143 -97 q83 -35 175 -35 q92 0 175 35 q81 35 143 97 q34 33 60 73 l0 -40 q0 -16 10.5 -26 q10.5 -10 25.5 -10 ZM789 289 q-13 -13 -31.5 -13 q-18.5 0 -31.5 13 q-13 13 -13 31 q0 18 12.5 31.5 q12.5 13.5 31 13.5 q18.5 0 32 -13 q13.5 -13 13.5 -31.5 q0 -18.5 -13 -31.5 ZM743 334 q-5 -6 -5.5 -14 q-0.5 -8 5.5 -13.5 q6 -5.5 14 -5.5 q8 0 14 5.5 q6 5.5 6 14 q0 8.5 -6 14 q-6 5.5 -14 5.5 q-8 0 -14 -6 ZM275 451 q4 -5 7 -9 q8 -10 29.5 -27 q21.5 -17 30.5 -25 q9 -8 17.5 -22.5 q8.5 -14.5 8.5 -31.5 q0 -11 -4 -21.5 q-4 -10.5 -11.5 -18.5 q-7.5 -8 -17.5 -12 q-15 -7 -37 -7 q-18 0 -31 5 q-13 5 -22 14 q-9 9 -13 19.5 q-4 10.5 -4 19 q0 8.5 4.5 13.5 q4.5 5 12 5 q7.5 0 11.5 -5 q4 -5 7.5 -14.5 q3.5 -9.5 4.5 -11.5 q11 -17 29 -17 q9 0 16.5 4 q7.5 4 11.5 11 q4 7 4 16 q0 9 -4 17.5 q-4 8.5 -11.5 17 q-7.5 8.5 -19.5 16.5 q-6 4 -21 18 q-15 14 -34 33 q-4 5 -8 13.5 q-4 8.5 -4 13.5 q0 8 6 13.5 q6 5.5 16 5.5 l104 0 q9 0 13.5 -4.5 q4.5 -4.5 4.5 -12 q0 -7.5 -5.5 -12 q-5.5 -4.5 -16.5 -4.5 l-74 0 ZM422 280 q-11 0 -17 3 q-6 3 -6 12.5 q0 9.5 5.5 13.5 q5.5 4 17.5 4 l75 0 q-17 23 -30 45.5 q-13 22.5 -21.5 44 q-8.5 21.5 -12.5 37 q-4 15.5 -4 24.5 q0 12 5 18 q5 6 14 6 q9 0 14.5 -5.5 q5.5 -5.5 8.5 -20.5 l6 -36 q1 -8 5 -19 q8 -25 17.5 -42.5 q9.5 -17.5 18.5 -29.5 l16 -21 q7 -10 7 -16 q0 -9 -6 -13.5 q-6 -4.5 -19 -4.5 l-94 0 ZM701 383 q0 -42 -11 -65 q-6 -14 -15 -23 q-9 -9 -21 -13.5 q-12 -4.5 -26 -4.5 q-22 0 -38 10.5 q-16 10.5 -24 30.5 q-5 12 -7 29 q-2 17 -2 39 q0 16 2 30 q2 14 6 26 q9 21 26 33.5 q17 12.5 38 12.5 q18 0 33.5 -9 q15.5 -9 24.5 -26 q8 -14 11 -30.5 q3 -16.5 3 -39.5 ZM662 380 q0 28 -3 44.5 q-3 16.5 -10 25.5 q-7 9 -20 9 q-13 0 -20.5 -8.5 q-7.5 -8.5 -10.5 -25.5 q-3 -17 -3 -44 q0 -38 7.5 -57 q7.5 -19 25.5 -19 q13 0 20.5 8.5 q7.5 8.5 10.5 25 q3 16.5 3 41.5 Z"></path></symbol><symbol id="dodo-rotate90" viewBox="0 -128 1024 1024"><path d="M926 63 q15 0 25.5 10 q10.5 10 10.5 26 l0 289 q0 15 -10.5 25.5 q-10.5 10.5 -25.5 10.5 q-15 0 -25.5 -10.5 q-10.5 -10.5 -10.5 -25.5 l0 -50 q-7 -53 -27 -102 q-29 -68 -82 -121 q-53 -53 -121 -82 q-71 -29 -148 -29 q-77 0 -148 29 q-68 29 -121 82 q-53 53 -82 121 q-29 71 -29 148 q0 77 29 148 q29 68 82 121 q53 53 121 82 q71 29 148 29 q49 0 96 -12 q47 -12 89 -36 q84 -46 136 -127 q8 -12 21.5 -15 q13.5 -3 26 5 q12.5 8 15.5 21.5 q3 13.5 -5 26.5 q-30 47 -70.5 85 q-40.5 38 -90 65.5 q-49.5 27.5 -105 42 q-55.5 14.5 -113.5 14.5 q-92 0 -175 -35 q-81 -35 -143 -97 q-62 -62 -97 -143 q-35 -83 -35 -175 q0 -92 35 -175 q35 -81 97 -143 q62 -62 143 -97 q83 -35 175 -35 q92 0 175 35 q81 35 143 97 q34 33 60 73 l0 -40 q0 -16 10.5 -26 q10.5 -10 25.5 -10 ZM789 289 q-13 -13 -31.5 -13 q-18.5 0 -31.5 13 q-13 13 -13 31 q0 18 12.5 31.5 q12.5 13.5 31 13.5 q18.5 0 32 -13 q13.5 -13 13.5 -31.5 q0 -18.5 -13 -31.5 ZM743 334 q-5 -6 -5.5 -14 q-0.5 -8 5.5 -13.5 q6 -5.5 14 -5.5 q8 0 14 5.5 q6 5.5 6 14 q0 8.5 -6 14 q-6 5.5 -14 5.5 q-8 0 -14 -6 ZM462 392 q-2 38 -12 53 q-5 8 -12 12 q-7 4 -15.5 4 q-8.5 0 -16 -5.5 q-7.5 -5.5 -10 -13 q-2.5 -7.5 -7.5 -11 q-5 -3.5 -11.5 -3.5 q-6.5 0 -11 4.5 q-4.5 4.5 -4.5 10.5 q0 10 7 20.5 q7 10.5 20.5 17.5 q13.5 7 32 7 q18.5 0 33 -7 q14.5 -7 25 -21 q10.5 -14 16 -34.5 q5.5 -20.5 5.5 -47.5 q0 -24 -5 -43.5 q-5 -19.5 -15 -32 q-10 -12.5 -24 -19 q-14 -6.5 -32 -6.5 q-16 0 -29 5.5 q-13 5.5 -22.5 15 q-9.5 9.5 -14.5 22.5 q-5 13 -5 26.5 q0 13.5 4.5 26 q4.5 12.5 13 22 q8.5 9.5 20 14.5 q11.5 5 25 5 q13.5 0 25 -5.5 q11.5 -5.5 20.5 -16.5 ZM459 349 q0 12 -5 20.5 q-5 8.5 -13 13 q-8 4.5 -17 4.5 q-14 0 -23 -11 q-9 -11 -9 -30 q0 -19 9 -30 q9 -11 22 -11 q8 0 14.5 3 q6.5 3 11.5 9 q5 6 7.5 14 q2.5 8 2.5 18 ZM673 383 q0 -42 -10 -65 q-6 -14 -15 -23 q-9 -9 -21 -13.5 q-12 -4.5 -26 -4.5 q-22 0 -38 10.5 q-16 10.5 -24 30.5 q-5 12 -7.5 29 q-2.5 17 -2.5 39 q0 16 2.5 30 q2.5 14 6.5 26 q9 21 25.5 33.5 q16.5 12.5 38.5 12.5 q18 0 33.5 -9 q15.5 -9 24.5 -26 q8 -14 10.5 -30.5 q2.5 -16.5 2.5 -39.5 ZM635 380 q0 28 -3 44.5 q-3 16.5 -10.5 25.5 q-7.5 9 -20 9 q-12.5 0 -20 -8.5 q-7.5 -8.5 -10.5 -25.5 q-3 -17 -3 -44 q0 -38 7.5 -57 q7.5 -19 25.5 -19 q13 0 20.5 8.5 q7.5 8.5 10.5 25 q3 16.5 3 41.5 Z"></path></symbol><symbol id="dodo-cuboid" viewBox="0 -128 1024 1024"><path d="M811 612 l0 48 q0 2 -1 2 l-315 135 q-2 1 -2 -1 l0 -561 q0 -1 1 -1 l314 -136 q1 0 2 0.5 q1 0.5 1 1.5 l0 231 l50 33 l0 -311 q-1 -14 -13 -20 l0 0 l-380 -129 l-1 0 l-379 129 l0 0 q-12 6 -13 20 l0 641 q0 1 1 2 l391 168 l2 0 l391 -168 q1 -1 1 -2 l0 -92 l-50 10 ZM126 662 q-1 0 -1 -2 l0 -560 q0 -1 0.5 -1.5 q0.5 -0.5 1.5 -0.5 l315 136 q1 0 1 1 l0 561 q-1 2 -3 1 l-314 -135 ZM170 62 q-2 -2 0 -4 l298 -101 l297 101 q3 2 1 4 l-298 128 q0 0 -1 0 l-297 -128 ZM965 459 q5 2 5.5 6.5 q0.5 4.5 -4.5 8.5 l-79 38 l58 85 q5 8 2 16 q-3 8 -11.5 12 q-8.5 4 -18 2 q-9.5 -2 -14.5 -9 l-59 -86 l-79 39 q-4 1 -8.5 -1 q-4.5 -2 -4.5 -6 l3 -190 q0 -4 4 -6.5 q4 -2.5 9 -0.5 l197 92 Z"></path></symbol><symbol id="dodo-sphere" viewBox="0 -128 1024 1024"><path d="M916 583 q46 -94 46 -199 q0 -90 -34 -172 q-34 -82 -98 -146 q-64 -64 -146 -98 q-82 -34 -172 -34 q-90 0 -172 34 q-82 34 -146 98 q-64 64 -98 146 q-34 82 -34 172 q0 90 34 172 q34 82 98 146 q64 64 146 98 q82 34 172 34 q56 0 110 -13.5 q54 -13.5 104 -40.5 l0 -46 q-47 29 -101 44.5 q-54 15.5 -113 15.5 q-174 -4 -290 -120 q-116 -116 -120 -290 q4 -174 120 -290 q116 -116 290 -120 q174 4 290 120 q116 116 120 290 q0 97 -43 183 l37 16 ZM512 584 q88 0 168 -12 q80 -12 143 -34.5 q63 -22.5 98 -53.5 q41 -34 41 -75 q0 -41 -41 -75 q-35 -31 -98 -53.5 q-63 -22.5 -143 -34.5 q-80 -12 -168 -12 q-88 0 -168 12 q-80 12 -143 34.5 q-63 22.5 -98 53.5 q-41 34 -41 75 q0 41 41 75 q35 31 98 53.5 q63 22.5 143 34.5 q80 12 168 12 ZM512 274 q184 2 295.5 43.5 q111.5 41.5 114.5 91.5 q-3 50 -114.5 91.5 q-111.5 41.5 -295.5 43.5 q-184 -2 -295.5 -43.5 q-111.5 -41.5 -114.5 -91.5 q3 -50 114.5 -91.5 q111.5 -41.5 295.5 -43.5 ZM537 834 q41 0 75 -41 q31 -35 53.5 -98 q22.5 -63 34.5 -143 q12 -80 12 -168 q0 -88 -12 -168 q-12 -80 -34.5 -143 q-22.5 -63 -53.5 -98 q-34 -41 -75 -41 q-41 0 -75 41 q-31 35 -53.5 98 q-22.5 63 -34.5 143 q-12 80 -12 168 q0 88 12 168 q12 80 34.5 143 q22.5 63 53.5 98 q34 41 75 41 ZM537 -26 q50 3 91.5 114.5 q41.5 111.5 43.5 295.5 q-2 184 -43.5 295.5 q-41.5 111.5 -91.5 114.5 q-50 -3 -91.5 -114.5 q-41.5 -111.5 -43.5 -295.5 q2 -184 43.5 -295.5 q41.5 -111.5 91.5 -114.5 ZM631 253 q0 -21 14.5 -35.5 q14.5 -14.5 35.5 -14.5 q21 0 35 14.5 q14 14.5 14 35.5 q0 21 -14 35 q-14 14 -35 14 q-21 0 -35.5 -14 q-14.5 -14 -14.5 -35 ZM674 353 q32 -1 53.5 -22 q21.5 -21 21.5 -53 q0 -32 -21.5 -53 q-21.5 -21 -53 -21 q-31.5 0 -53 21 q-21.5 21 -21.5 53 q0 32 21.5 53 q21.5 21 52.5 22 ZM674 243 q15 1 24 11 q9 10 9 24 q0 14 -9 23.5 q-9 9.5 -23 11.5 q-21 0 -32 -17.5 q-11 -17.5 0 -35.5 q11 -18 31 -17 ZM327 555 q1 -25 17 -41 q16 -16 40 -16 q24 0 40 16 q16 16 16 40.5 q0 24.5 -16 40.5 q-16 16 -40 16 q-24 0 -40 -16 q-16 -16 -17 -40 ZM406 603 q32 -1 53 -22 q21 -21 21 -53 q0 -32 -21 -53 q-21 -21 -53 -21 q-32 0 -53 21 q-21 21 -21 53 q0 32 21 53 q21 21 53 22 ZM406 493 q14 1 23 11 q9 10 9 24 q0 14 -9 23.5 q-9 9.5 -23 11.5 q-21 0 -32 -17.5 q-11 -17.5 0 -35.5 q11 -18 32 -17 ZM909 660 q3 2 3 6 q0 4 -3 8 l-54 36 l40 82 q3 7 1 15 q-2 8 -7.5 12 q-5.5 4 -12.5 2 q-7 -2 -10 -10 l-41 -81 l-54 37 q-3 1 -6 -1 q-3 -2 -3 -6 l2 -181 q0 -4 3 -6 q3 -2 6 -1 l136 88 Z"></path></symbol><symbol id="dodo-reset-size" viewBox="0 -128 1024 1024"><path d="M965 30 q0 -41 -27.5 -68.5 q-27.5 -27.5 -67.5 -27.5 l-721 0 q-19 0 -36.5 7 q-17.5 7 -31.5 21 q-28 27 -28 68 l0 720 q0 20 7 37.5 q7 17.5 21 31 q14 13.5 31.5 20.5 q17.5 7 36.5 7 l476 0 q-34 -42 -53 -94 q-19 -52 -19 -110.5 q0 -58.5 20 -112.5 q-5 -6 -8 -13 q-7 -13 10 -29 l13 -15 q4 -4 16 -14 q6 -7 14 -12 q47 -61 114.5 -95 q67.5 -34 144.5 -34 q45 0 88 12 l0 -299 ZM373 54 q22 2 28 13 q6 11 -7 23 q-9 9 -19.5 20.5 q-10.5 11.5 -19.5 21 q-9 9.5 -6 16.5 q5 10 13 18 q20 21 36 36 q19 17 37 35 q10 10 15.5 24 q5.5 14 -10.5 31 l-14 13 l-15 16 q-16 15 -27 11.5 q-11 -3.5 -26 -19 q-15 -15.5 -29.5 -29 q-14.5 -13.5 -34.5 -33.5 q-14 -14 -24.5 -19 q-10.5 -5 -20.5 4 l-39 39 q-13 12 -23 9 q-10 -3 -12 -23 l-6 -44 q-3 -25 -5.5 -52 q-2.5 -27 -5.5 -52 l-6 -46 q-4 -37 31 -34 l190 21 ZM367 611 q-14 14 -17 22.5 q-3 8.5 7 17.5 q17 18 34 36 q12 13 9 23 q-3 10 -22 13 l-45 5 q-25 3 -51 6 l-99 11 q-36 4 -33 -31 q1 -19 4 -43 l16 -146 q3 -23 13.5 -28.5 q10.5 -5.5 24.5 6.5 q10 11 20 21 l22 21 q10 8 16 7 q6 -1 15 -10 q39 -39 77 -79 q10 -9 22.5 -15.5 q12.5 -6.5 28.5 9.5 l14 13 l16 15 q16 16 13.5 29 q-2.5 13 -18.5 29 l-67 68 ZM863 107 l-6 49 l-6 50 l-5 46 q-2 24 -12.5 29.5 q-10.5 5.5 -23.5 -8.5 q-9 -8 -20 -19 l-20 -19 q-10 -8 -18 -6 q-10 4 -18 13 q-21 21 -36 37 l-37 39 q-10 9 -23.5 14.5 q-13.5 5.5 -30.5 -11.5 q-10 -9 -14.5 -13 q-4.5 -4 -15.5 -15 q-15 -15 -12 -27 q3 -12 18 -28 l30 -30 q15 -15 35 -35 q12 -11 19 -25 q6 -11 -4 -20 q-7 -7 -18 -18.5 q-11 -11.5 -19 -19.5 q-13 -12 -10 -23 q3 -11 24 -13 l44 -5 q25 -3 51.5 -6 q26.5 -3 51.5 -6 l46 -5 q20 -2 28.5 5.5 q8.5 7.5 5.5 26.5 l-4 43 ZM1059 441 q38 36 58 81 q20 45 20 94.5 q0 49.5 -20 94.5 q-20 45 -58 80.5 q-38 35.5 -86.5 54 q-48.5 18.5 -103 18.5 q-54.5 0 -106.5 -21 q-49 -20 -87 -57 q-5 -5 -4.5 -12 q0.5 -7 6 -12 q5.5 -5 13 -4.5 q7.5 0.5 12.5 5.5 q34 32 76.5 49.5 q42.5 17.5 90.5 17.5 q98 -3 163 -63 q65 -60 67 -150 q-2 -91 -67 -151 q-65 -60 -163 -63 q-92 2 -155.5 57 q-63.5 55 -73.5 139 l51 0 l-70 113 l-70 -113 l52 0 q4 -45 23.5 -85 q19.5 -40 54.5 -73 q38 -35 86.5 -53.5 q48.5 -18.5 102 -18.5 q53.5 0 102 18.5 q48.5 18.5 86.5 53.5 ZM862 438 q8 0 13 5 q5 5 5 12 l0 161 l112 103 q5 5 5 12 q0 7 -5.5 12 q-5.5 5 -13 5 q-7.5 0 -12.5 -5 l-112 -104 l-3 -2 q-7 -5 -8 -15 l0 -167 q0 -7 5.5 -12 q5.5 -5 13.5 -5 Z"></path></symbol><symbol id="dodo-reset-anno" viewBox="0 -128 1024 1024"><path d="M53 816 q1 20 14.5 33.5 q13.5 13.5 33.5 14.5 l720 0 q21 -1 34.5 -14.5 q13.5 -13.5 13.5 -33.5 l0 -864 q0 -20 -13.5 -33.5 q-13.5 -13.5 -34.5 -14.5 l-720 0 q-20 1 -33.5 14.5 q-13.5 13.5 -14.5 33.5 l0 864 ZM730 -5 q21 1 34.5 14.5 q13.5 13.5 13.5 33.5 l0 682 q0 20 -13.5 33.5 q-13.5 13.5 -34.5 14.5 l-537 0 q-21 -1 -34.5 -14.5 q-13.5 -13.5 -13.5 -33.5 l0 -682 q0 -20 13.5 -33.5 q13.5 -13.5 34.5 -14.5 l537 0 ZM538 101 l-235 434 l105 59 l235 -435 l-105 -58 ZM1157 598 q-7 -4 -5 -10 q1 -2 3.5 -19 q2.5 -17 -2.5 -44 q-17 -69 -97 -119 l-37 63 q-2 4 -7.5 4 q-5.5 0 -8.5 -5 l-85 -195 q-2 -4 0.5 -8 q2.5 -4 6.5 -4 l212 -21 q6 0 9 4.5 q3 4.5 0 9.5 l-39 67 q15 9 41 33 q40 39 52 87 q18 73 -31 154 q-4 6 -11 4 q-1 -1 -1 -1 ZM706 624 l-420 0 l0 60 l420 0 l0 -60 Z"></path></symbol><symbol id="dodo-del-sel" viewBox="0 -128 1024 1024"><path d="M770 312 q6 -8 15 -8.5 q9 -0.5 16 5.5 l0 1 q19 18 45 19 l0 0 q26 -1 45 -19 l7 -7 q21 -23 21 -52 q0 -29 -21 -51 l-198 -199 l0 0 l-21 -21 q-22 -21 -52.5 -21 q-30.5 0 -51.5 21 l-7 7 q-18 20 -18 45 q0 25 18 45 q7 7 6 16 q-1 9 -8 15 l-180 139 q-9 7 -20 3 l-101 -42 q-21 -8 -42.5 -4 q-21.5 4 -37.5 20 l-19 19 q-18 19 -18 44.5 q0 25.5 18 45.5 l379 379 q19 18 45 18 q26 0 45 -18 l19 -19 q12 -12 17 -28 q-9 -3 -16 -10 l-84 -81 q-19 -19 -19.5 -44 q-0.5 -25 17.5 -45 q16 -16 37 -20 q21 -4 41 6 l123 -159 ZM139 766 q-6 7 -14 7 q-8 0 -14 -6.5 q-6 -6.5 -6 -16 q0 -9.5 6 -17.5 l217 -253 q5 -6 13.5 -6.5 q8.5 -0.5 14.5 6.5 q6 7 6 16.5 q0 9.5 -6 16.5 l-211 247 l-6 6 ZM876 509 q7 -7 16.5 -7 q9.5 0 16.5 7 q7 7 7 17 q0 10 -7 17 l-123 125 l123 125 q10 10 6.5 23 q-3.5 13 -17 16.5 q-13.5 3.5 -22.5 -5.5 l-124 -125 l-124 125 q-7 7 -16.5 7 q-9.5 0 -17 -7.5 q-7.5 -7.5 -7.5 -17 q0 -9.5 7 -16.5 l124 -125 l-124 -125 q-7 -7 -7 -17 q0 -10 7 -17 q7 -7 17 -7 q10 0 17 7 l124 125 l124 -125 Z"></path></symbol><symbol id="dodo-up" viewBox="0 -128 1024 1024"><path d="M479 249 q-15 16 -15 36 q0 20 15 36 l288 287 q15 15 35 15 q20 0 35.5 -15 q15.5 -15 15.5 -35 q0 -20 -15 -36 l-288 -288 q-16 -15 -36 -15 q-20 0 -35 15 ZM550 249 q14 16 14 36 q0 20 -14 36 l-288 287 q-16 15 -36 15 q-20 0 -35 -15 q-15 -15 -15 -35 q0 -20 14 -36 l288 -288 q16 -15 36 -15 q20 0 36 15 Z"></path></symbol><symbol id="dodo-split" viewBox="0 -128 1024 1024"><path d="M534 299 q0 22 15 37 q15 15 37 15 l295 0 q22 0 37 -15 q15 -15 16 -37 l0 -295 q-1 -22 -15.5 -37 q-14.5 -15 -37.5 -15 l-295 0 q-22 0 -36.5 15 q-14.5 15 -15.5 37 l0 295 ZM534 738 q0 22 15 37 q15 15 37 15 l295 0 q22 0 37 -15 q15 -15 16 -37 l0 -295 q-1 -22 -15.5 -37 q-14.5 -15 -37.5 -15 l-295 0 q-22 0 -36.5 15 q-14.5 15 -15.5 37 l0 295 ZM94 738 q1 22 15.5 37 q14.5 15 37.5 15 l295 0 q22 0 36.5 -15 q14.5 -15 15.5 -37 l0 -295 q-1 -22 -15.5 -37 q-14.5 -15 -36.5 -15 l-295 0 q-22 0 -37 15 q-15 15 -16 37 l0 295 ZM94 299 q1 22 15.5 37 q14.5 15 37.5 15 l295 0 q22 0 36.5 -15 q14.5 -15 15.5 -37 l0 -295 q-1 -22 -15.5 -37 q-14.5 -15 -36.5 -15 l-295 0 q-22 0 -37 15 q-15 15 -16 37 l0 295 ZM187 50 l217 0 l0 217 l-217 0 l0 -217 ZM157 289 l0 0 Z"></path></symbol><symbol id="dodo-flip-v" viewBox="0 -128 1024 1024"><path d="M201 6 q-18 -22 -6.5 -45 q11.5 -23 42.5 -25 l548 0 q31 2 42.5 25 q11.5 23 -6.5 45 l-274 298 q-15 16 -36 16 q-21 0 -36 -16 l-151 -164 l-123 -134 ZM822 762 q18 22 6.5 45 q-11.5 23 -42.5 25 l-548 0 q-31 -2 -42.5 -25 q-11.5 -23 6.5 -45 l274 -298 q15 -16 36 -16 q21 0 36 16 l151 164 l123 134 ZM727 762 l-215 -234 l-215 234 l215 0 l215 0 ZM960 384 q-1 19 -18 29 q-17 10 -34 0 q-17 -10 -17 -29.5 q0 -19.5 17 -29.5 q17 -10 34 0 q17 10 18 30 ZM787 419 q-15 -1 -24.5 -11 q-9.5 -10 -9.5 -24.5 q0 -14.5 9.5 -24.5 q9.5 -10 24.5 -10 q15 0 25 10 q10 10 10 24.5 q0 14.5 -10 24.5 q-10 10 -25 11 ZM650 419 q-15 -1 -25 -11 q-10 -10 -10 -24.5 q0 -14.5 10 -24.5 q10 -10 25 -10 q15 0 24.5 10 q9.5 10 9.5 24.5 q0 14.5 -9.5 24.5 q-9.5 10 -24.5 11 ZM513 419 q-15 0 -25 -10 q-10 -10 -10 -24.5 q0 -14.5 10 -24.5 q10 -10 25 -10 q15 0 25 10 q10 10 10 24.5 q0 14.5 -10 24.5 q-10 10 -25 10 ZM237 419 q-15 -1 -25 -11 q-10 -10 -10 -24.5 q0 -14.5 10 -24.5 q10 -10 25 -10 q15 0 24.5 10 q9.5 10 9.5 24.5 q0 14.5 -9.5 24.5 q-9.5 10 -24.5 11 ZM374 419 q-15 -1 -24.5 -11 q-9.5 -10 -9.5 -24.5 q0 -14.5 9.5 -24.5 q9.5 -10 24.5 -10 q15 0 25 10 q10 10 10 24.5 q0 14.5 -10 24.5 q-10 10 -25 11 ZM99 419 q-15 -1 -25 -11 q-10 -10 -10 -24.5 q0 -14.5 10 -24.5 q10 -10 25 -10 q15 0 25 10 q10 10 10 24.5 q0 14.5 -10 24.5 q-10 10 -25 11 Z"></path></symbol><symbol id="dodo-fold-copy" viewBox="0 -128 1024 1024"><path d="M98 188 q-19 1 -32.5 17.5 q-13.5 16.5 -13.5 41.5 q0 25 13.5 41.5 q13.5 16.5 32.5 17.5 l534 0 q20 -1 33 -17.5 q13 -16.5 13 -41.5 q0 -25 -13 -41.5 q-13 -16.5 -33 -17.5 l-533 0 l-1 0 ZM98 462 q-19 1 -32.5 17.5 q-13.5 16.5 -13.5 41.5 q0 25 13.5 41.5 q13.5 16.5 32.5 17.5 l534 0 q20 -1 33 -17.5 q13 -16.5 13 -41.5 q0 -25 -13 -41.5 q-13 -16.5 -33 -17.5 l-533 0 l-1 0 ZM102 726 q-22 1 -36.5 19 q-14.5 18 -13.5 42.5 q1 24.5 16 40 q15 15.5 37 16.5 l817 0 q22 -1 36.5 -19 q14.5 -18 13.5 -42.5 q-1 -24.5 -16 -40 q-15 -15.5 -37 -16.5 l-817 0 ZM723 383 l233 195 l0 -390 l-233 195 ZM922 41 q22 0 36.5 -18 q14.5 -18 13.5 -42.5 q-1 -24.5 -16 -40 q-15 -15.5 -37 -16.5 l-817 0 q-22 1 -36.5 19 q-14.5 18 -13.5 42 q1 24 16 40 q15 16 37 16 l817 0 ZM922 41 l0 0 Z"></path></symbol></defs></svg>